<svg width="696" height="300" viewBox="0 0 696 300" fill="none" xmlns="http://www.w3.org/2000/svg">
    <rect x="2.5" y="2.5" width="45" height="45" fill="#E30613" stroke="white" stroke-width="5"/>
    <rect x="2.5" y="52.5" width="45" height="45" fill="#E30613" stroke="white" stroke-width="5"/>
    <rect x="2.5" y="102.5" width="45" height="45" fill="#E30613" stroke="white" stroke-width="5"/>
    <rect x="52.5" y="102.5" width="45" height="45" fill="#C908E9" stroke="white" stroke-width="5"/>
    <rect x="102.5" y="102.5" width="45" height="45" fill="#C908E9" stroke="white" stroke-width="5"/>
    <rect x="152.5" y="102.5" width="45" height="45" fill="#C908E9" stroke="white" stroke-width="5"/>
    <rect x="152.5" y="152.5" width="45" height="45" fill="#EB001B" stroke="white" stroke-width="5"/>
    <rect x="152.5" y="202.5" width="45" height="45" fill="#EB001B" stroke="white" stroke-width="5"/>
    <rect x="152.5" y="252.5" width="45" height="45" fill="#EB001B" stroke="white" stroke-width="5"/>
    <rect x="102.5" y="252.5" width="45" height="45" fill="#EB001B" stroke="white" stroke-width="5"/>
    <rect x="52.5" y="252.5" width="45" height="45" fill="#4DAE51" stroke="white" stroke-width="5"/>
    <rect x="2.5" y="252.5" width="45" height="45" fill="#4DAE51" stroke="white" stroke-width="5"/>
    <rect x="52.5" y="2.5" width="45" height="45" fill="#E30613" stroke="white" stroke-width="5"/>
    <rect x="102.5" y="2.5" width="45" height="45" fill="#4DAE51" stroke="white" stroke-width="5"/>
    <rect x="152.5" y="2.5" width="45" height="45" fill="#4DAE51" stroke="white" stroke-width="5"/>
    <rect x="252.5" y="2.5" width="45" height="45" fill="#FFC608" stroke="white" stroke-width="5"/>
    <rect x="302.5" y="2.5" width="45" height="45" fill="#FFC608" stroke="white" stroke-width="5"/>
    <rect x="352.5" y="2.5" width="45" height="45" fill="#FFC608" stroke="white" stroke-width="5"/>
    <rect x="400.5" y="2.5" width="45" height="45" fill="#FFC608" stroke="white" stroke-width="5"/>
    <rect x="252.5" y="52.5" width="45" height="45" fill="#00B4E6" stroke="white" stroke-width="5"/>
    <rect x="400.5" y="52.5" width="45" height="45" fill="#00B4E6" stroke="white" stroke-width="5"/>
    <rect x="252.5" y="102.5" width="45" height="45" fill="#00B4E6" stroke="white" stroke-width="5"/>
    <rect x="400.5" y="102.5" width="45" height="45" fill="#00B4E6" stroke="white" stroke-width="5"/>
    <rect x="252.5" y="152.5" width="45" height="45" fill="#00B4E6" stroke="white" stroke-width="5"/>
    <rect x="252.5" y="202.5" width="45" height="45" fill="#00B4E6" stroke="white" stroke-width="5"/>
    <rect x="400.5" y="202.5" width="45" height="45" fill="#00B4E6" stroke="white" stroke-width="5"/>
    <rect x="400.5" y="152.5" width="45" height="45" fill="#00B4E6" stroke="white" stroke-width="5"/>
    <rect x="252.5" y="252.5" width="45" height="45" fill="#FFC608" stroke="white" stroke-width="5"/>
    <rect x="400.5" y="252.5" width="45" height="45" fill="#FFC608" stroke="white" stroke-width="5"/>
    <rect x="302.5" y="252.5" width="45" height="45" fill="#FFC608" stroke="white" stroke-width="5"/>
    <rect x="352.5" y="252.5" width="45" height="45" fill="#FFC608" stroke="white" stroke-width="5"/>
    <rect x="500.5" y="2.5" width="45" height="45" fill="#FFC608" stroke="white" stroke-width="5"/>
    <rect x="550.5" y="2.5" width="45" height="45" fill="#FFC608" stroke="white" stroke-width="5"/>
    <rect x="600.5" y="2.5" width="45" height="45" fill="#FFC608" stroke="white" stroke-width="5"/>
    <rect x="648.5" y="2.5" width="45" height="45" fill="#FFC608" stroke="white" stroke-width="5"/>
    <rect x="500.5" y="52.5" width="45" height="45" fill="#00B4E6" stroke="white" stroke-width="5"/>
    <rect x="648.5" y="52.5" width="45" height="45" fill="#00B4E6" stroke="white" stroke-width="5"/>
    <rect x="500.5" y="102.5" width="45" height="45" fill="#00B4E6" stroke="white" stroke-width="5"/>
    <rect x="648.5" y="102.5" width="45" height="45" fill="#00B4E6" stroke="white" stroke-width="5"/>
    <rect x="500.5" y="152.5" width="45" height="45" fill="#00B4E6" stroke="white" stroke-width="5"/>
    <rect x="500.5" y="202.5" width="45" height="45" fill="#00B4E6" stroke="white" stroke-width="5"/>
    <rect x="648.5" y="202.5" width="45" height="45" fill="#00B4E6" stroke="white" stroke-width="5"/>
    <rect x="648.5" y="152.5" width="45" height="45" fill="#00B4E6" stroke="white" stroke-width="5"/>
    <rect x="500.5" y="252.5" width="45" height="45" fill="#FFC608" stroke="white" stroke-width="5"/>
    <rect x="648.5" y="252.5" width="45" height="45" fill="#FFC608" stroke="white" stroke-width="5"/>
    <rect x="550.5" y="252.5" width="45" height="45" fill="#FFC608" stroke="white" stroke-width="5"/>
    <rect x="600.5" y="252.5" width="45" height="45" fill="#FFC608" stroke="white" stroke-width="5"/>
</svg>
