<svg width="10" height="18" viewBox="0 0 10 18" fill="none" xmlns="http://www.w3.org/2000/svg">
    <path d="M9.65669 0.352268C9.54859 0.240604 9.42017 0.152011 9.27878 0.0915629C9.1374 0.031115 8.98583 0 8.83276 0C8.67968 0 8.52812 0.031115 8.38673 0.0915629C8.24535 0.152011 8.11693 0.240604 8.00883 0.352268L0.272264 8.3236C0.185957 8.41235 0.117485 8.51776 0.0707664 8.6338C0.0240478 8.74984 0 8.87424 0 8.99987C0 9.1255 0.0240478 9.2499 0.0707664 9.36594C0.117485 9.48199 0.185957 9.5874 0.272264 9.67614L8.00883 17.6475C8.46501 18.1175 9.2005 18.1175 9.65669 17.6475C10.1129 17.1774 10.1129 16.4196 9.65669 15.9496L2.91629 8.99508L9.666 2.04054C10.1129 1.5801 10.1129 0.812706 9.65669 0.352268Z" fill="white"/>
</svg>
