<svg width="19" height="19" viewBox="0 0 19 19" fill="none" xmlns="http://www.w3.org/2000/svg">
    <path d="M18.4022 0.611849L18.4024 0.61203C18.8524 1.06203 18.8524 1.82607 18.4024 2.27607L11.3552 9.32322L11.1785 9.5L11.3552 9.67678L18.4024 16.7239C18.5126 16.8341 18.6 16.965 18.6597 17.109C18.7193 17.253 18.75 17.4073 18.75 17.5632C18.75 17.719 18.7193 17.8734 18.6597 18.0173C18.6 18.1613 18.5126 18.2922 18.4024 18.4024C18.2922 18.5126 18.1613 18.6 18.0174 18.6597C17.8734 18.7193 17.719 18.75 17.5632 18.75C17.4073 18.75 17.253 18.7193 17.109 18.6597C16.965 18.6 16.8342 18.5126 16.7239 18.4024L9.67678 11.3552L9.50001 11.1784L9.32323 11.3552L2.27607 18.4024L2.45285 18.5792L2.27607 18.4024C2.16586 18.5126 2.03502 18.6 1.89103 18.6597C1.74703 18.7193 1.5927 18.75 1.43684 18.75C1.28098 18.75 1.12665 18.7193 0.982658 18.6597C0.838663 18.6 0.707827 18.5126 0.597619 18.4024L0.420841 18.5792L0.597618 18.4024C0.487408 18.2922 0.399987 18.1613 0.340343 18.0173C0.280698 17.8734 0.25 17.719 0.25 17.5632C0.25 17.4073 0.280698 17.253 0.340343 17.109C0.399987 16.965 0.48741 16.8341 0.597618 16.7239L7.64478 9.67678L7.82156 9.5L7.64478 9.32322L0.597618 2.27607C0.487409 2.16586 0.399987 2.03502 0.340343 1.89103C0.280698 1.74703 0.25 1.5927 0.25 1.43684C0.25 1.28098 0.280698 1.12665 0.340343 0.982657C0.399987 0.838663 0.487409 0.707826 0.597618 0.597618C0.707827 0.487409 0.838663 0.399987 0.982658 0.340343C1.12665 0.280698 1.28098 0.25 1.43684 0.25C1.5927 0.25 1.74703 0.280698 1.89103 0.340343C2.03502 0.399987 2.16586 0.487409 2.27607 0.597618L9.32323 7.64478L9.49983 7.82137L9.6766 7.64496L16.7238 0.612211L16.7241 0.611849C16.8342 0.501518 16.965 0.413987 17.109 0.354265C17.253 0.294542 17.4073 0.263801 17.5632 0.263801C17.719 0.263801 17.8734 0.294542 18.0174 0.354265C18.1613 0.413987 18.2921 0.501518 18.4022 0.611849Z" fill="white" stroke="#2D2F34" stroke-width="0.5"/>
</svg>
