<svg width="282" height="156" viewBox="0 0 282 156" fill="none" xmlns="http://www.w3.org/2000/svg">
    <path d="M279.5 9.99999C279.5 7.5723 279.495 6.00302 279.339 4.84676C279.193 3.76241 278.958 3.42254 278.768 3.23223C278.577 3.04192 278.238 2.80655 277.153 2.66077C275.997 2.50531 274.428 2.5 272 2.5H10C7.57233 2.5 6.00305 2.50531 4.84677 2.66077C3.76242 2.80655 3.42255 3.04192 3.23224 3.23224C3.04193 3.42255 2.80655 3.76242 2.66077 4.84676C2.50531 6.00303 2.5 7.5723 2.5 10V117.807C2.5 120.235 2.50531 121.804 2.66077 122.96C2.80655 124.044 3.04193 124.384 3.23224 124.575C3.42255 124.765 3.76242 125 4.84677 125.146C6.00305 125.302 7.57233 125.307 10 125.307H23.6276H23.7922C26.0084 125.307 27.918 125.307 29.4471 125.512C31.0859 125.732 32.6568 126.229 33.9309 127.504C35.2051 128.778 35.702 130.349 35.9223 131.987C36.1279 133.516 36.1277 135.426 36.1276 137.642V137.807V139.234C36.1276 144.386 36.1338 147.97 36.4854 150.446C36.8497 153.012 37.4473 153.333 37.6581 153.421C37.8688 153.51 38.5155 153.713 40.6049 152.18C42.6212 150.699 45.188 148.198 48.8714 144.596L64.9523 128.87C65.0344 128.79 65.1157 128.71 65.1964 128.631C66.3895 127.46 67.4483 126.422 68.8221 125.862C70.196 125.302 71.6791 125.304 73.3504 125.306C73.4634 125.307 73.5773 125.307 73.692 125.307H272C274.428 125.307 275.997 125.302 277.153 125.146C278.238 125 278.577 124.765 278.768 124.575C278.958 124.384 279.193 124.044 279.339 122.96C279.495 121.804 279.5 120.235 279.5 117.807V9.99999Z" stroke="#FFC608" stroke-width="5"/>
</svg>
