<svg width="50" height="41" viewBox="0 0 50 41" fill="none" xmlns="http://www.w3.org/2000/svg">
    <g opacity="0.5">
        <path d="M48.9798 40.4555V40.5595H49.0732C49.0938 40.5595 49.1115 40.5545 49.1243 40.5464C49.1361 40.5383 49.143 40.5242 49.143 40.507C49.143 40.4898 49.1361 40.4767 49.1243 40.4686C49.1115 40.4595 49.0938 40.4555 49.0732 40.4555H48.9798ZM49.0742 40.3827C49.1223 40.3827 49.1597 40.3938 49.1862 40.416C49.2127 40.4383 49.2255 40.4686 49.2255 40.507C49.2255 40.5393 49.2157 40.5656 49.1941 40.5868C49.1734 40.607 49.1439 40.6201 49.1046 40.6252L49.2285 40.7717H49.1321L49.0172 40.6262H48.9798V40.7717H48.8992V40.3827H49.0742ZM49.0496 40.9061C49.0938 40.9061 49.1351 40.897 49.1724 40.8798C49.2108 40.8627 49.2442 40.8394 49.2727 40.8101C49.3012 40.7808 49.3238 40.7465 49.3405 40.706C49.3562 40.6666 49.365 40.6242 49.365 40.5787C49.365 40.5333 49.3562 40.4908 49.3405 40.4514C49.3238 40.412 49.3012 40.3766 49.2727 40.3473C49.2442 40.318 49.2108 40.2948 49.1724 40.2776C49.1351 40.2615 49.0938 40.2534 49.0496 40.2534C49.0054 40.2534 48.9631 40.2615 48.9248 40.2776C48.8855 40.2948 48.8511 40.318 48.8226 40.3473C48.7941 40.3766 48.7715 40.412 48.7558 40.4514C48.7391 40.4908 48.7312 40.5333 48.7312 40.5787C48.7312 40.6242 48.7391 40.6666 48.7558 40.706C48.7715 40.7465 48.7941 40.7808 48.8226 40.8101C48.8511 40.8394 48.8855 40.8627 48.9248 40.8798C48.9631 40.897 49.0054 40.9061 49.0496 40.9061ZM49.0496 40.1594C49.1076 40.1594 49.1606 40.1705 49.2117 40.1927C49.2619 40.214 49.3051 40.2443 49.3434 40.2827C49.3808 40.3201 49.4103 40.3645 49.4319 40.416C49.4535 40.4666 49.4643 40.5211 49.4643 40.5787C49.4643 40.6363 49.4535 40.6909 49.4319 40.7414C49.4103 40.7919 49.3808 40.8364 49.3434 40.8748C49.3051 40.9122 49.2619 40.9425 49.2117 40.9647C49.1606 40.9869 49.1076 40.998 49.0496 40.998C48.9906 40.998 48.9366 40.9869 48.8855 40.9647C48.8344 40.9425 48.7902 40.9122 48.7528 40.8748C48.7155 40.8364 48.686 40.7919 48.6644 40.7414C48.6428 40.6909 48.6319 40.6363 48.6319 40.5787C48.6319 40.5211 48.6428 40.4666 48.6644 40.416C48.686 40.3645 48.7155 40.3201 48.7528 40.2827C48.7902 40.2443 48.8344 40.214 48.8855 40.1927C48.9366 40.1705 48.9906 40.1594 49.0496 40.1594ZM10.7623 38.6609C10.7623 37.9193 11.235 37.31 12.0074 37.31C12.7454 37.31 13.2437 37.893 13.2437 38.6609C13.2437 39.4289 12.7454 40.0119 12.0074 40.0119C11.235 40.0119 10.7623 39.4026 10.7623 38.6609ZM14.0849 38.6609V36.5512H13.1926V37.0635C12.9095 36.6836 12.4801 36.4451 11.8964 36.4451C10.7456 36.4451 9.84349 37.3727 9.84349 38.6609C9.84349 39.9502 10.7456 40.8768 11.8964 40.8768C12.4801 40.8768 12.9095 40.6383 13.1926 40.2584V40.7707H14.0849V38.6609ZM44.2383 38.6609C44.2383 37.9193 44.7109 37.31 45.4834 37.31C46.2224 37.31 46.7196 37.893 46.7196 38.6609C46.7196 39.4289 46.2224 40.0119 45.4834 40.0119C44.7109 40.0119 44.2383 39.4026 44.2383 38.6609ZM47.5618 38.6609V34.8567H46.6685V37.0635C46.3855 36.6836 45.956 36.4451 45.3723 36.4451C44.2216 36.4451 43.3194 37.3727 43.3194 38.6609C43.3194 39.9502 44.2216 40.8768 45.3723 40.8768C45.956 40.8768 46.3855 40.6383 46.6685 40.2584V40.7707H47.5618V38.6609ZM25.161 37.2666C25.7358 37.2666 26.1053 37.6374 26.1997 38.2901H24.0701C24.1655 37.6808 24.5251 37.2666 25.161 37.2666ZM25.1786 36.4451C23.9758 36.4451 23.1346 37.3454 23.1346 38.6609C23.1346 40.0028 24.0102 40.8768 25.2386 40.8768C25.8567 40.8768 26.4228 40.7182 26.921 40.2857L26.4837 39.6057C26.1397 39.8876 25.7014 40.0472 25.2897 40.0472C24.7148 40.0472 24.191 39.7734 24.0623 39.0136H27.1097C27.1185 38.8994 27.1274 38.7842 27.1274 38.6609C27.1185 37.3454 26.3284 36.4451 25.1786 36.4451ZM35.9531 38.6609C35.9531 37.9193 36.4257 37.31 37.1981 37.31C37.9362 37.31 38.4344 37.893 38.4344 38.6609C38.4344 39.4289 37.9362 40.0119 37.1981 40.0119C36.4257 40.0119 35.9531 39.4026 35.9531 38.6609ZM39.2756 38.6609V36.5512H38.3833V37.0635C38.0993 36.6836 37.6708 36.4451 37.0871 36.4451C35.9363 36.4451 35.0342 37.3727 35.0342 38.6609C35.0342 39.9502 35.9363 40.8768 37.0871 40.8768C37.6708 40.8768 38.0993 40.6383 38.3833 40.2584V40.7707H39.2756V38.6609ZM30.9137 38.6609C30.9137 39.9411 31.7805 40.8768 33.1032 40.8768C33.7213 40.8768 34.1331 40.7353 34.5792 40.3736L34.1508 39.632C33.8157 39.8795 33.4639 40.0119 33.0767 40.0119C32.3642 40.0028 31.8404 39.4733 31.8404 38.6609C31.8404 37.8486 32.3642 37.3191 33.0767 37.31C33.4639 37.31 33.8157 37.4424 34.1508 37.6899L34.5792 36.9483C34.1331 36.5866 33.7213 36.4451 33.1032 36.4451C31.7805 36.4451 30.9137 37.3807 30.9137 38.6609ZM42.4183 36.4451C41.9033 36.4451 41.5682 36.6926 41.3363 37.0635V36.5512H40.4519V40.7707H41.3452V38.4053C41.3452 37.7071 41.637 37.3191 42.2208 37.3191C42.4016 37.3191 42.5903 37.3454 42.7789 37.4252L43.0541 36.5603C42.8566 36.4805 42.5991 36.4451 42.4183 36.4451ZM18.4982 36.8866C18.0688 36.5956 17.4772 36.4451 16.8246 36.4451C15.7849 36.4451 15.1157 36.9574 15.1157 37.796C15.1157 38.4841 15.6139 38.9085 16.5318 39.0409L16.9534 39.1025C17.4428 39.1732 17.6737 39.3056 17.6737 39.5441C17.6737 39.8704 17.3474 40.0563 16.7382 40.0563C16.12 40.0563 15.6739 39.8532 15.3732 39.6148L14.9526 40.3291C15.442 40.7 16.0601 40.8768 16.7293 40.8768C17.9145 40.8768 18.6014 40.3029 18.6014 39.4996C18.6014 38.7579 18.0609 38.3699 17.1676 38.2376L16.747 38.1749C16.3608 38.1224 16.0513 38.0436 16.0513 37.7607C16.0513 37.4515 16.3431 37.2666 16.8325 37.2666C17.3563 37.2666 17.8634 37.4697 18.112 37.6283L18.4982 36.8866ZM30.0116 36.4451C29.4967 36.4451 29.1616 36.6926 28.9306 37.0635V36.5512H28.0462V40.7707H28.9385V38.4053C28.9385 37.7071 29.2303 37.3191 29.8141 37.3191C29.9949 37.3191 30.1836 37.3454 30.3723 37.4252L30.6474 36.5603C30.4499 36.4805 30.1924 36.4451 30.0116 36.4451ZM22.3966 36.5512H20.9373V35.271H20.0351V36.5512H19.2028V37.3898H20.0351V39.3147C20.0351 40.2938 20.4046 40.8768 21.4601 40.8768C21.8473 40.8768 22.2934 40.7535 22.5764 40.5504L22.319 39.7643C22.0527 39.923 21.7608 40.0028 21.5289 40.0028C21.0827 40.0028 20.9373 39.7199 20.9373 39.2965V37.3898H22.3966V36.5512ZM9.05437 40.7707V38.1224C9.05437 37.1251 8.43625 36.4542 7.43978 36.4451C6.916 36.436 6.37551 36.6037 5.99717 37.1958C5.71415 36.728 5.268 36.4451 4.64103 36.4451C4.20274 36.4451 3.77428 36.5775 3.43918 37.0716V36.5512H2.5459V40.7707H3.44704V38.4316C3.44704 37.699 3.84209 37.31 4.45235 37.31C5.04492 37.31 5.34465 37.7071 5.34465 38.4225V40.7707H6.24678V38.4316C6.24678 37.699 6.65853 37.31 7.2511 37.31C7.86038 37.31 8.15224 37.7071 8.15224 38.4225V40.7707H9.05437Z" fill="#AEAEC0"/>
        <path d="M49.5292 26.7363V26.1132H49.3729L49.192 26.5412L49.0121 26.1132H48.8548V26.7363H48.9659V26.2664L49.1349 26.672H49.25L49.4191 26.2654V26.7363H49.5292ZM48.5372 26.7363V26.2194H48.7378V26.1142H48.2266V26.2194H48.4271V26.7363H48.5372Z" fill="white"/>
        <path d="M31.761 29.3881H18.2373V4.39844H31.761V29.3881Z" fill="#A5A5A5"/>
        <path d="M19.1038 16.8942C19.1038 11.8249 21.4122 7.30936 25.007 4.39935C22.3782 2.2714 19.0606 1.00131 15.455 1.00131C6.91925 1.00131 0 8.11669 0 16.8942C0 25.6717 6.91925 32.7871 15.455 32.7871C19.0606 32.7871 22.3782 31.517 25.007 29.3891C21.4122 26.4791 19.1038 21.9635 19.1038 16.8942Z" fill="#DBDBDB"/>
        <path d="M49.9997 16.8913C49.9997 25.6688 43.0804 32.7842 34.5446 32.7842C30.939 32.7842 27.6214 31.5141 24.9917 29.3861C28.5874 26.4761 30.8958 21.9606 30.8958 16.8913C30.8958 11.822 28.5874 7.30643 24.9917 4.39642C27.6214 2.26847 30.939 0.998379 34.5446 0.998379C43.0804 0.998379 49.9997 8.11376 49.9997 16.8913Z" fill="#CBCBCB"/>
    </g>
</svg>
