<svg width="130" height="40" viewBox="0 0 130 40" fill="none" xmlns="http://www.w3.org/2000/svg">
    <path d="M11.2417 27.216C10.5784 26.7905 9.86312 26.4514 9.11331 26.2071C8.36398 25.9658 7.58107 25.8444 6.79364 25.8472C6.30531 25.8429 5.81796 25.8988 5.3428 26.014C4.9412 26.1087 4.55909 26.2721 4.21346 26.4969C3.91645 26.6904 3.66701 26.9482 3.48365 27.251C3.308 27.5518 3.21794 27.8945 3.22315 28.2425C3.21028 28.5507 3.28883 28.8558 3.44901 29.1197C3.61487 29.3686 3.83928 29.5734 4.10076 29.7163C4.42615 29.8962 4.77398 30.0324 5.1345 30.1199C5.58965 30.2351 6.05065 30.3261 6.51556 30.3922L7.61027 30.541C8.24592 30.6305 8.87378 30.7715 9.48699 30.9621C10.07 31.1386 10.6212 31.4084 11.1203 31.7605C11.5968 32.0995 11.9916 32.54 12.276 33.05C12.5806 33.6312 12.7301 34.2807 12.7101 34.9362C12.7256 35.6871 12.5493 36.4297 12.1979 37.0941C11.8612 37.7166 11.3892 38.2562 10.8164 38.6735C10.2051 39.1157 9.51948 39.4455 8.79183 39.6474C7.99801 39.8729 7.17609 39.9851 6.35067 39.9805C5.79168 39.9777 5.23381 39.9307 4.68227 39.84C4.0938 39.7502 3.51317 39.6153 2.94557 39.4364C2.40635 39.2548 1.88321 39.0289 1.38156 38.761C0.884808 38.5048 0.420928 38.1897 0 37.8225L1.38156 35.7608C1.68012 36.0331 2.0094 36.2685 2.36309 36.4625C3.17536 36.9119 4.05577 37.226 4.9696 37.3927C5.43061 37.4792 5.89894 37.5235 6.36824 37.524C6.85266 37.5303 7.33659 37.4802 7.81028 37.3752C8.22375 37.2839 8.61977 37.1268 8.98306 36.9098C9.29825 36.7223 9.56808 36.4678 9.77335 36.1644C9.97204 35.8657 10.0751 35.5139 10.069 35.1555C10.0758 34.8595 9.99767 34.5678 9.84385 34.3145C9.69002 34.0613 9.46688 33.8571 9.20063 33.7259C8.34709 33.3243 7.42959 33.0748 6.4897 32.9888L5.25597 32.8132C4.66505 32.7304 4.08326 32.5923 3.51828 32.4009C2.97465 32.2198 2.46638 31.9468 2.01574 31.5937C1.56792 31.2412 1.20321 30.7951 0.947375 30.2867C0.653697 29.6984 0.504709 29.0488 0.512716 28.3918C0.499384 27.6513 0.669448 26.9189 1.00786 26.2596C1.33234 25.6417 1.7926 25.1048 2.3543 24.689C2.9533 24.2499 3.6274 23.923 4.34371 23.7243C5.13498 23.4977 5.95358 23.3854 6.77656 23.3912C7.84005 23.3771 8.89865 23.5342 9.91287 23.8561C10.8347 24.1581 11.7114 24.583 12.5189 25.1193L11.2417 27.216ZM19.8862 28.4443C20.6003 28.4378 21.3077 28.5813 21.9625 28.8654C22.5804 29.1358 23.1319 29.537 23.5787 30.0411C24.0421 30.5739 24.399 31.1902 24.63 31.8568C24.8915 32.609 25.0207 33.4021 25.012 34.199V35.0942H16.9499C17.008 35.5411 17.1495 35.9724 17.367 36.3662C17.5539 36.7034 17.8046 37.0013 18.1051 37.2434C18.392 37.4694 18.7193 37.639 19.0696 37.7433C19.4306 37.8502 19.8053 37.9037 20.1819 37.9013C20.7403 37.897 21.2934 37.793 21.8152 37.5945C22.3613 37.3871 22.8691 37.0906 23.3177 36.7173L24.491 38.4279C23.8788 38.9707 23.1597 39.3799 22.3796 39.6294C21.6166 39.861 20.8229 39.9764 20.0253 39.9717C19.2594 39.98 18.4983 39.8405 17.7837 39.5594C17.1296 39.2948 16.538 38.8973 16.0465 38.3924C15.5434 37.8719 15.153 37.2539 14.8996 36.5768C14.6188 35.8188 14.4804 35.0157 14.4912 34.2078C14.4829 33.4094 14.6181 32.6158 14.8913 31.8655C15.1357 31.1894 15.5138 30.569 16.003 30.0411C16.4909 29.5296 17.0833 29.1287 17.7402 28.8654C18.4203 28.5823 19.1498 28.4362 19.8867 28.4355V28.4443H19.8862ZM19.8428 30.576C19.4575 30.5686 19.0743 30.6341 18.7135 30.769C18.3879 30.8898 18.0919 31.0782 17.8451 31.3219C17.5995 31.5769 17.4022 31.8741 17.2626 32.1991C17.1054 32.5451 16.9971 32.9112 16.9407 33.2868H22.5708C22.5044 32.5471 22.1998 31.8486 21.7025 31.2956C21.4583 31.0523 21.1663 30.8619 20.8447 30.7366C20.5232 30.6112 20.179 30.5536 19.834 30.5672L19.8428 30.576ZM32.4315 28.4443C33.2121 28.437 33.9862 28.5861 34.7078 28.8829C35.3837 29.1735 35.9797 29.6217 36.4454 30.1899L34.9248 31.8218C34.5761 31.4659 34.171 31.1695 33.7257 30.9446C33.284 30.745 32.8032 30.646 32.3183 30.6548C31.8823 30.6504 31.4502 30.7372 31.0499 30.9096C30.6669 31.0914 30.3265 31.3515 30.0508 31.673C29.7546 31.9937 29.5244 32.3692 29.3732 32.7782C29.0479 33.7008 29.0479 34.7065 29.3732 35.6291C29.524 36.0424 29.7542 36.4212 30.0513 36.7435C30.3364 37.051 30.6824 37.296 31.0675 37.4632C31.4678 37.6352 31.8999 37.7217 32.3359 37.717C32.8479 37.7179 33.3533 37.6009 33.8126 37.3752C34.2516 37.1676 34.6565 36.8923 35.0117 36.5593L36.4801 38.2524C35.9941 38.8214 35.3811 39.2691 34.6902 39.5594C33.9711 39.8575 33.1998 40.0067 32.4227 39.998C31.6193 40.0095 30.8218 39.8604 30.0772 39.5594C29.3974 39.2833 28.7833 38.8681 28.2745 38.3407C27.7657 37.8133 27.3735 37.1854 27.1233 36.4975C26.5788 35.0194 26.5788 33.3966 27.1233 31.9185C27.3737 31.238 27.7633 30.6168 28.2672 30.0942C28.7712 29.5717 29.3785 29.1592 30.0508 28.8829C30.803 28.5755 31.6099 28.4233 32.4227 28.4355L32.4315 28.4443ZM48.6341 35.0412C48.6544 35.8125 48.5062 36.5791 48.1999 37.2877C47.9408 37.8756 47.5553 38.3997 47.0705 38.8227C46.6004 39.2213 46.0533 39.5199 45.4631 39.6999C44.2513 40.0743 42.9566 40.0743 41.7448 39.6999C41.1521 39.5196 40.6022 39.2212 40.1286 38.8227C39.6407 38.4024 39.2547 37.8774 38.9993 37.2872C38.6987 36.5772 38.5537 35.8115 38.5739 35.0412V28.7249H40.9545V34.8662C40.9423 35.3217 41.0099 35.7758 41.154 36.2082C41.2738 36.5391 41.4667 36.8389 41.7185 37.0854C41.9648 37.3188 42.2629 37.4904 42.5873 37.5857C43.267 37.7915 43.9927 37.7915 44.6723 37.5857C44.9978 37.4903 45.2957 37.3187 45.5412 37.0854C45.7931 36.8389 45.9862 36.5391 46.1061 36.2082C46.2534 35.7764 46.3239 35.3222 46.3144 34.8662V28.7249H48.6951L48.6341 35.0412ZM57.2786 28.4443C57.6074 28.4428 57.9357 28.4691 58.2601 28.5231C58.5573 28.5711 58.8486 28.6505 59.1289 28.7599L58.5645 31.1289C58.2901 30.9899 57.9977 30.8895 57.6957 30.8303C57.3901 30.7637 57.0786 30.7285 56.7659 30.7253C56.409 30.7209 56.0548 30.7865 55.7233 30.9183C55.4111 31.0437 55.1317 31.2386 54.9067 31.4882C54.6695 31.7598 54.4893 32.0761 54.3769 32.4184C54.2434 32.82 54.1787 33.2411 54.1857 33.6642V39.6912H51.7709V28.7249H54.1159V29.9619C54.4488 29.4594 54.9148 29.0586 55.4624 28.8041C56.0309 28.5522 56.6476 28.4265 57.2698 28.4355L57.2786 28.4443ZM65.2279 28.4443C65.942 28.4378 66.6494 28.5813 67.3041 28.8654C67.9221 29.1358 68.4736 29.537 68.9203 30.0411C69.399 30.5704 69.7706 31.1869 70.0146 31.8568C70.2763 32.6098 70.4057 33.4021 70.397 34.199V35.0942H62.2828C62.3409 35.5411 62.4823 35.9724 62.6999 36.3662C62.8868 36.7034 63.1375 37.0013 63.438 37.2434C63.7249 37.4694 64.0521 37.639 64.4025 37.7433C64.7635 37.8502 65.1381 37.9037 65.5147 37.9013C66.0732 37.897 66.6263 37.793 67.148 37.5945C67.6942 37.3871 68.202 37.0906 68.6506 36.7173L69.8321 38.4192C69.2203 38.9621 68.5013 39.3713 67.7212 39.6207C66.9582 39.8523 66.1645 39.9677 65.3669 39.963C64.6005 39.9713 63.84 39.8317 63.1253 39.5506C62.4711 39.2861 61.8793 38.8886 61.3876 38.3837C60.8847 37.8631 60.4945 37.2451 60.2412 36.568C59.9605 35.81 59.822 35.007 59.8329 34.199C59.8246 33.4006 59.9597 32.6066 60.2324 31.8568C60.4718 31.182 60.844 30.5618 61.3271 30.0324C61.815 29.5209 62.4074 29.1199 63.0643 28.8566C63.7475 28.5755 64.48 28.4324 65.2191 28.4355L65.2279 28.4443ZM65.184 30.576C64.7988 30.5687 64.4158 30.6342 64.0551 30.769C63.7294 30.8897 63.4332 31.0782 63.1863 31.3219C62.9409 31.577 62.7437 31.8741 62.6043 32.1991C62.4472 32.5451 62.3388 32.9112 62.2823 33.2868H67.9296C67.8632 32.5471 67.5586 31.8486 67.0612 31.2956C66.8151 31.0501 66.5202 30.8585 66.1956 30.7331C65.8709 30.6077 65.5235 30.5512 65.1757 30.5672L65.1845 30.576H65.184ZM80.5704 23.3382C81.2575 23.336 81.9425 23.4127 82.612 23.5667C83.2477 23.7126 83.8633 23.9363 84.4453 24.2329C85.0014 24.5178 85.5185 24.8748 85.983 25.2949C86.4357 25.7014 86.8255 26.1745 87.1382 26.6987L85.0015 28.137C84.5265 27.4291 83.8851 26.8479 83.133 26.4439C82.3318 26.0193 81.4342 25.8078 80.527 25.8297C79.7593 25.8216 78.9975 25.9648 78.2854 26.2508C77.6307 26.5263 77.0396 26.9324 76.5482 27.4441C76.0374 27.9739 75.6383 28.6004 75.3745 29.2865C74.8073 30.815 74.8073 32.4954 75.3745 34.024C75.6382 34.7099 76.0371 35.3362 76.5477 35.8659C77.0391 36.3775 77.6302 36.7836 78.2849 37.0591C78.9981 37.3455 79.7591 37.4885 80.5265 37.4802C82.291 37.5191 83.955 36.6546 84.9488 35.1817L87.0338 36.726C86.6953 37.2268 86.2921 37.6809 85.8347 38.0768C85.3873 38.4864 84.8914 38.8399 84.358 39.1296C83.7899 39.4174 83.1889 39.6354 82.5681 39.7787C80.7836 40.1774 78.9225 40.0369 77.2165 39.3751C75.2262 38.5889 73.6514 36.9988 72.8728 34.9892C72.0581 32.8529 72.0581 30.493 72.8728 28.3568C73.6514 26.3466 75.2262 24.7566 77.2165 23.9698C78.282 23.5424 79.4214 23.3278 80.5699 23.3382H80.5704ZM94.5577 28.4093C95.3549 28.3996 96.1461 28.5488 96.8862 28.8479C97.5767 29.1265 98.2055 29.5379 98.7365 30.0586C99.2623 30.5797 99.6788 31.1999 99.9615 31.883C100.551 33.353 100.551 34.9925 99.9615 36.4625C99.679 37.1458 99.2627 37.7661 98.737 38.2874C98.2058 38.8082 97.5769 39.2196 96.8862 39.4981C95.3899 40.0858 93.7256 40.0858 92.2293 39.4981C91.5379 39.2212 90.9088 38.8095 90.3789 38.2874C89.8483 37.7784 89.4233 37.1704 89.1281 36.498C88.5388 35.028 88.5388 33.3885 89.1281 31.9185C89.409 31.2364 89.8223 30.6162 90.3442 30.0936C90.8742 29.5715 91.5032 29.1599 92.1946 28.8829C92.9468 28.5755 93.7537 28.4233 94.5665 28.4355L94.5577 28.4093ZM94.5577 30.664C94.0965 30.6592 93.6388 30.7456 93.2113 30.9183C92.8062 31.0818 92.4394 31.3268 92.1337 31.638C91.8259 31.9562 91.5839 32.3315 91.4214 32.7427C91.0738 33.6616 91.0738 34.6752 91.4214 35.5941C91.5843 36.0064 91.8263 36.3818 92.1337 36.6993C92.441 37.0105 92.8074 37.2556 93.2113 37.419C94.0761 37.7612 95.0394 37.7612 95.9042 37.419C96.3119 37.2566 96.6822 37.0135 96.9929 36.7044C97.3036 36.3952 97.5481 36.0264 97.7116 35.6203C98.0591 34.7016 98.0591 33.6882 97.7116 32.7695C97.5479 32.3565 97.3027 31.9805 96.9906 31.6637C96.681 31.353 96.3114 31.1082 95.9042 30.9441C95.4793 30.7727 95.0248 30.6864 94.5665 30.6903L94.5577 30.664ZM107.529 28.4093C108.186 28.3848 108.84 28.5188 109.434 28.7998C110.028 29.0809 110.546 29.5007 110.943 30.0236V23.1807H113.315V39.6824H110.943V38.3662C110.565 38.8536 110.085 39.252 109.535 39.5331C108.912 39.8389 108.223 39.9894 107.529 39.9717C106.81 39.9779 106.098 39.837 105.436 39.5578C104.774 39.2787 104.176 38.8671 103.68 38.3486C103.175 37.8141 102.783 37.1849 102.525 36.4975C101.966 35.0037 101.966 33.3594 102.525 31.8655C102.786 31.1878 103.178 30.5679 103.68 30.0411C104.176 29.5227 104.774 29.1111 105.436 28.8319C106.098 28.5528 106.81 28.4119 107.529 28.418V28.4093ZM107.815 30.664C107.343 30.6566 106.874 30.7523 106.442 30.9446C106.053 31.1216 105.703 31.3783 105.417 31.6987C105.133 32.0254 104.915 32.4039 104.775 32.8132C104.473 33.6948 104.473 34.6512 104.775 35.5328C104.915 35.942 105.133 36.3203 105.417 36.6468C105.703 36.9668 106.052 37.2239 106.442 37.4014C107.31 37.7661 108.286 37.7661 109.153 37.4014C109.546 37.2299 109.898 36.9789 110.187 36.6643C110.47 36.3603 110.694 36.0063 110.847 35.6203C111.164 34.7174 111.164 33.7337 110.847 32.8307C110.699 32.4225 110.472 32.0471 110.179 31.7255C109.889 31.4114 109.537 31.1605 109.145 30.9883C108.728 30.7964 108.275 30.6948 107.815 30.6903V30.664ZM121.195 28.4093C121.908 28.4025 122.615 28.5454 123.271 28.8304C123.889 29.1004 124.44 29.5015 124.887 30.0056C125.35 30.5386 125.707 31.1551 125.938 31.8218C126.2 32.574 126.329 33.3671 126.32 34.164V35.0592H118.301C118.358 35.5065 118.5 35.9378 118.718 36.3312C118.905 36.6686 119.156 36.9665 119.457 37.2084C119.744 37.435 120.072 37.6047 120.421 37.7083C120.782 37.8152 121.157 37.8687 121.534 37.8663C122.092 37.8619 122.645 37.758 123.167 37.5595C123.713 37.3518 124.221 37.0552 124.67 36.6818L125.851 38.3837C125.239 38.9263 124.52 39.3357 123.74 39.5857C122.977 39.8174 122.183 39.9328 121.385 39.928C120.62 39.9362 119.858 39.7967 119.144 39.5156C118.49 39.2511 117.898 38.8536 117.407 38.3486C116.904 37.8281 116.513 37.2101 116.26 36.533C115.979 35.775 115.841 34.972 115.851 34.164C115.843 33.3656 115.978 32.5716 116.251 31.8218C116.496 31.1456 116.874 30.5251 117.363 29.9969C117.851 29.4855 118.444 29.0847 119.101 28.8216C119.768 28.5604 120.478 28.4293 121.195 28.4355V28.4093ZM127.459 39.6562V39.1296H127.676V39.0158H127.111V39.1296H127.354V39.6824L127.459 39.6562ZM128.544 39.6562V38.989H128.371L128.171 39.4456L127.971 38.989H127.797V39.6562H127.919V39.1558L128.102 39.5857H128.223L128.405 39.1558V39.6562H128.544ZM121.151 30.541C120.766 30.5335 120.382 30.599 120.021 30.734C119.696 30.8548 119.4 31.0432 119.153 31.2869C118.907 31.5419 118.71 31.8391 118.571 32.1641C118.414 32.5102 118.306 32.8762 118.249 33.2518H123.879C123.818 32.5027 123.513 31.7941 123.01 31.2339C122.762 31.0028 122.469 30.8245 122.15 30.71C121.83 30.5955 121.49 30.5471 121.151 30.5677V30.541Z" fill="white" fill-opacity="0.5"/>
    <path d="M19.0259 17.0828H16.3672V3.41444L11.5629 15.4422H8.76569L3.97852 3.54621V17.0828H1.30273V0.475557H5.37716L10.1643 12.3448L14.9427 0.475557H19.0171L19.0259 17.0828ZM33.0132 17.0828H30.5545V15.7228C30.1632 16.2284 29.6648 16.6419 29.0949 16.9336C28.4492 17.2475 27.7368 17.401 27.0186 17.3809C26.2723 17.3881 25.5324 17.2422 24.8449 16.9525C24.1575 16.6627 23.5371 16.2352 23.0223 15.6965C22.5017 15.1494 22.0943 14.5056 21.8232 13.8016C21.2434 12.2512 21.2434 10.5445 21.8232 8.99411C22.0945 8.2903 22.5019 7.64647 23.0223 7.09921C23.5371 6.5605 24.1575 6.13301 24.8449 5.84326C25.5324 5.55351 26.2723 5.40769 27.0186 5.41485C27.7377 5.39578 28.4505 5.55237 29.0949 5.87095C29.6646 6.16684 30.1627 6.58302 30.5545 7.09046V5.72167H33.0132V17.0828ZM27.3055 7.75662C26.815 7.74834 26.3286 7.84726 25.8805 8.04642C25.4765 8.23033 25.1154 8.49631 24.8205 8.82733C24.5254 9.1673 24.2983 9.56046 24.1516 9.98557C23.8378 10.9013 23.8378 11.8949 24.1516 12.8107C24.3 13.2367 24.5303 13.6298 24.8297 13.9679C25.1242 14.2993 25.4852 14.5653 25.8893 14.7488C26.3345 14.937 26.8131 15.034 27.2967 15.034C27.7803 15.034 28.2589 14.937 28.7041 14.7488C29.1092 14.5704 29.4729 14.3105 29.7725 13.9854C30.076 13.6504 30.3121 13.2604 30.4677 12.8364C30.7963 11.8992 30.7963 10.8786 30.4677 9.94132C30.3121 9.51741 30.076 9.12732 29.7725 8.79232C29.4726 8.4676 29.109 8.20776 28.7041 8.02891C28.263 7.83897 27.7859 7.74609 27.3055 7.75662ZM44.2813 8.56379C44.0758 8.44462 43.8641 8.33636 43.6471 8.23946C43.3647 8.11539 43.0745 8.00981 42.7783 7.9234C42.4587 7.82604 42.1337 7.74713 41.805 7.68708C41.4613 7.62295 41.1123 7.59056 40.7625 7.59032C40.2126 7.55888 39.6656 7.69015 39.1902 7.96765C39.0196 8.06882 38.8786 8.21268 38.781 8.38498C38.6834 8.55728 38.6328 8.75202 38.6341 8.94986C38.6277 9.1288 38.6799 9.30434 38.7819 9.45021C38.8853 9.59025 39.019 9.70404 39.1727 9.78378C39.36 9.87957 39.558 9.95056 39.7634 9.99433C39.9893 10.0468 40.2327 10.0935 40.4932 10.1344L41.6577 10.3099C42.6924 10.4183 43.6822 10.7927 44.533 11.3976C44.886 11.6637 45.1692 12.0109 45.3583 12.4098C45.5474 12.8086 45.6368 13.2471 45.6189 13.6879C45.6241 14.2081 45.5051 14.7221 45.2716 15.1874C45.0277 15.6362 44.6862 16.0233 44.2725 16.3194C43.7885 16.6705 43.2435 16.9293 42.6651 17.0828C41.9572 17.2734 41.226 17.3649 40.4932 17.3546C40.2039 17.3546 39.8678 17.3371 39.4854 17.3021C39.0725 17.2625 38.6632 17.1921 38.2609 17.0916C37.8094 16.9775 37.3676 16.8279 36.9398 16.6442C36.4861 16.4488 36.0568 16.1983 35.6631 15.8983L36.8008 14.0384C37.0106 14.2023 37.2315 14.3521 37.4613 14.4858C37.7185 14.6334 37.989 14.7568 38.2692 14.8544C38.5946 14.9672 38.9287 15.0523 39.2683 15.1087C39.679 15.1763 40.0947 15.2083 40.5108 15.2054C41.1697 15.2429 41.8273 15.113 42.4222 14.8281C42.6146 14.7376 42.7777 14.595 42.8928 14.4166C43.008 14.2383 43.0705 14.0312 43.0734 13.8191C43.0709 13.6571 43.0264 13.4984 42.9442 13.3585C42.8621 13.2187 42.7451 13.1023 42.6046 13.0207C42.1504 12.7655 41.6468 12.61 41.1274 12.5646L39.9547 12.4066C38.9175 12.3211 37.9275 11.9371 37.1052 11.3014C36.7846 11.0268 36.53 10.6841 36.3601 10.2984C36.1901 9.9127 36.1091 9.49391 36.1232 9.07289C36.116 8.5456 36.2289 8.02356 36.4534 7.54607C36.6677 7.09507 36.9864 6.70125 37.3833 6.39707C37.8209 6.06924 38.3159 5.82523 38.8429 5.67742C39.4728 5.50008 40.1251 5.41458 40.7796 5.4236C41.624 5.41874 42.4651 5.52475 43.2822 5.73967C44.0091 5.92152 44.7043 6.21764 45.3409 6.61637L44.2813 8.56427V8.56379ZM55.9406 7.96765H51.5964V12.9157C51.5958 13.25 51.6515 13.582 51.7613 13.8979C51.8413 14.142 51.9711 14.3667 52.1438 14.5558C52.2999 14.725 52.4931 14.8544 52.7082 14.9331C52.9341 15.0158 53.1722 15.0576 53.4122 15.0561C53.8139 15.0528 54.2115 14.9753 54.5849 14.8276C54.9673 14.6837 55.3341 14.5016 55.6796 14.284L56.6524 16.2669C56.1746 16.5895 55.6617 16.8572 55.1235 17.0648C54.51 17.2948 53.8587 17.4079 53.2034 17.3984C52.6605 17.4297 52.117 17.35 51.6061 17.1644C51.0952 16.9788 50.6278 16.6911 50.2324 16.3189C49.8407 15.8584 49.544 15.3254 49.3591 14.7505C49.1743 14.1755 49.105 13.5699 49.1553 12.9682V7.9764H46.9225V5.72167H49.1553V2.28293H51.6223V5.72167H55.9665L55.9402 7.96765H55.9406ZM63.4987 5.41485C64.2388 5.40513 64.972 5.55148 65.653 5.84469C66.2942 6.12487 66.8664 6.54105 67.3297 7.0642C67.812 7.61757 68.1836 8.25779 68.4244 8.95035C68.6942 9.73078 68.8264 10.5535 68.8157 11.3801V12.3016H60.4492C60.5102 12.7635 60.6575 13.2108 60.8834 13.6173C61.0804 13.9552 61.3398 14.2529 61.6479 14.4945C61.9452 14.7283 62.2842 14.904 62.6469 15.0124C63.0218 15.1246 63.4113 15.1806 63.8026 15.1787C64.3964 15.18 64.9853 15.0729 65.5403 14.8626C66.1036 14.6576 66.629 14.3614 67.0956 13.9859L68.32 15.7403C67.6852 16.3026 66.9397 16.7269 66.1311 16.9861C65.3393 17.2277 64.5163 17.3488 63.6899 17.3459C62.8815 17.3742 62.0755 17.243 61.3181 16.9598C60.6315 16.6882 60.0098 16.2757 59.4936 15.7491C58.9713 15.2083 58.5661 14.5663 58.3032 13.8629C58.0114 13.077 57.867 12.2443 57.8774 11.4064C57.867 10.5787 58.0053 9.75579 58.2857 8.97661C58.5399 8.27431 58.9329 7.62997 59.4414 7.0817C59.9286 6.55846 60.5206 6.143 61.1791 5.8622C61.9138 5.5585 62.7035 5.40918 63.4987 5.4236V5.41485ZM63.4548 7.62533C63.0546 7.61795 62.6566 7.68644 62.2821 7.82712C61.9554 7.95795 61.6597 8.15518 61.4137 8.40624C61.1607 8.66069 60.9548 8.95764 60.8054 9.28343C60.6329 9.64796 60.513 10.0349 60.4492 10.4329H66.2872C66.2101 9.66166 65.8804 8.93715 65.3491 8.37123C65.1004 8.12572 64.8044 7.93303 64.4789 7.80483C64.1534 7.67662 63.8052 7.61555 63.4553 7.62533H63.4548ZM77.3558 5.41485C77.6958 5.41242 78.0358 5.43916 78.3719 5.49362C78.6692 5.54581 78.9603 5.62809 79.2408 5.73918L78.6505 8.1957C78.3758 8.05505 78.0834 7.95185 77.7812 7.88888C77.4641 7.82136 77.1409 7.786 76.8167 7.78336C76.4479 7.7799 76.082 7.84846 75.7396 7.98515C75.4078 8.11304 75.1103 8.31726 74.8712 8.58178C74.6229 8.86301 74.4338 9.19106 74.3151 9.54649C74.1763 9.96227 74.1087 10.3984 74.1151 10.8365V17.0916H71.6564V5.68666H74.0892V6.96744C74.4317 6.45917 74.9059 6.05286 75.4615 5.79169C76.0503 5.53577 76.6877 5.41018 77.3299 5.4236L77.3558 5.41485ZM85.7563 5.41485C86.5662 5.4061 87.3701 5.56121 88.1199 5.87095C88.8358 6.16775 89.468 6.63448 89.9615 7.2305L88.3892 8.9236C88.0254 8.56608 87.6058 8.26982 87.1467 8.04642C86.6886 7.83886 86.1903 7.73412 85.6871 7.73959C85.2362 7.73531 84.7894 7.82491 84.3753 8.00266C83.9735 8.17467 83.6124 8.42878 83.3152 8.74856C83.0106 9.08265 82.7746 9.47301 82.6205 9.89756C82.2817 10.8541 82.2817 11.8974 82.6205 12.8539C82.7747 13.2786 83.0107 13.669 83.3152 14.0034C83.6126 14.3228 83.9737 14.5767 84.3753 14.7488C84.7899 14.9268 85.2368 15.0163 85.6876 15.0124C86.2096 15.0173 86.7262 14.9035 87.1989 14.6788C87.6567 14.4532 88.076 14.1572 88.4414 13.8016L89.9527 15.5122C89.4489 16.1047 88.8121 16.5706 88.0941 16.8723C87.3482 17.1818 86.5471 17.337 85.7393 17.3284C84.906 17.3401 84.0789 17.185 83.3069 16.8723C81.8922 16.3029 80.7799 15.1602 80.2399 13.7224C79.6754 12.1905 79.6754 10.5085 80.2399 8.97661C80.5041 8.26841 80.9133 7.62272 81.4413 7.08054C81.9692 6.53836 82.6046 6.11154 83.3069 5.82719C84.0798 5.53349 84.9038 5.39629 85.7305 5.4236L85.7569 5.41485H85.7563ZM103.02 17.0828H100.561V15.7228C100.169 16.2284 99.6711 16.6419 99.1012 16.9336C98.4555 17.2475 97.7431 17.401 97.0249 17.3809C96.2786 17.3881 95.5387 17.2422 94.8512 16.9525C94.1637 16.6627 93.5433 16.2352 93.0285 15.6965C92.508 15.1494 92.1006 14.5056 91.8295 13.8016C91.2497 12.2512 91.2497 10.5445 91.8295 8.99411C92.1008 8.2903 92.5082 7.64647 93.0285 7.09921C93.5433 6.5605 94.1637 6.13301 94.8512 5.84326C95.5387 5.55351 96.2786 5.40769 97.0249 5.41485C97.744 5.39578 98.4568 5.55237 99.1012 5.87095C99.6709 6.16684 100.169 6.58302 100.561 7.09046V5.72167H103.02V17.0828ZM97.3201 7.75662C96.8297 7.74841 96.3435 7.84733 95.8956 8.04642C95.4915 8.23033 95.1305 8.49631 94.8355 8.82733C94.5404 9.1673 94.3134 9.56046 94.1667 9.98557C93.8529 10.9013 93.8529 11.8949 94.1667 12.8107C94.3133 13.2354 94.5402 13.6282 94.835 13.9679C95.1298 14.2991 95.4909 14.5651 95.8951 14.7488C96.7961 15.1281 97.8094 15.1281 98.7099 14.7488C99.1149 14.5702 99.4786 14.3103 99.7783 13.9854C100.083 13.6513 100.319 13.261 100.474 12.8364C100.804 11.8994 100.804 10.8783 100.474 9.94132C100.32 9.51683 100.083 9.12652 99.7788 8.79232C99.4789 8.4676 99.1152 8.20776 98.7104 8.02891C98.2745 7.8416 97.8035 7.74878 97.3288 7.75662H97.3201ZM112.341 5.4236C112.682 5.42117 113.022 5.44792 113.358 5.50237C113.655 5.5546 113.946 5.63688 114.226 5.74793L113.636 8.20445C113.361 8.06385 113.069 7.96064 112.767 7.89762C112.45 7.83022 112.127 7.79487 111.803 7.79211C111.434 7.78844 111.068 7.85701 110.725 7.99391C110.394 8.12179 110.096 8.32601 109.857 8.59053C109.609 8.8719 109.42 9.20012 109.301 9.55573C109.162 9.97135 109.095 10.4073 109.101 10.8453V17.1003H106.642V5.69542H109.101V6.97619C109.444 6.46319 109.922 6.05357 110.482 5.79169C111.071 5.53602 111.708 5.41045 112.35 5.4236H112.341ZM120.404 5.4236C121.123 5.40453 121.835 5.56112 122.48 5.8797C123.049 6.17583 123.547 6.59196 123.939 7.09921V0.00195312H126.398V17.0828H123.939V15.7228C123.548 16.2284 123.05 16.6419 122.48 16.9336C121.834 17.2475 121.122 17.401 120.404 17.3809C119.657 17.3881 118.917 17.2422 118.23 16.9525C117.542 16.6627 116.922 16.2352 116.407 15.6965C115.878 15.1516 115.461 14.5076 115.182 13.8016C114.603 12.2512 114.603 10.5445 115.182 8.99411C115.453 8.29034 115.861 7.64651 116.381 7.09921C116.896 6.5605 117.516 6.13301 118.204 5.84326C118.891 5.55351 119.631 5.40769 120.377 5.41485L120.404 5.4236ZM129.265 16.0384C129.363 16.0364 129.46 16.0544 129.552 16.0914C129.639 16.1283 129.719 16.1818 129.786 16.2494C129.853 16.3146 129.906 16.3919 129.942 16.4774C130.019 16.6564 130.019 16.8596 129.942 17.0386C129.867 17.2125 129.727 17.3507 129.552 17.4247C129.464 17.4635 129.369 17.4845 129.273 17.4865C129.176 17.4885 129.081 17.4715 128.991 17.4364C128.901 17.4013 128.819 17.3488 128.75 17.2821C128.681 17.2153 128.626 17.1355 128.588 17.0473C128.55 16.9586 128.53 16.8632 128.53 16.7668C128.53 16.6704 128.55 16.575 128.588 16.4862C128.624 16.3994 128.677 16.3206 128.744 16.2543C128.811 16.1881 128.891 16.1357 128.978 16.1001C129.072 16.0593 129.172 16.0384 129.274 16.0389H129.265V16.0384ZM129.265 17.3284C129.338 17.3293 129.411 17.315 129.478 17.2863C129.546 17.2575 129.606 17.2151 129.656 17.1616C129.72 17.0955 129.767 17.0152 129.793 16.9273C129.819 16.8395 129.824 16.7467 129.807 16.6566C129.79 16.5665 129.752 16.4818 129.695 16.4094C129.639 16.3371 129.566 16.2792 129.482 16.2406C129.411 16.2258 129.337 16.2258 129.265 16.2406C129.194 16.2265 129.12 16.2265 129.048 16.2406C128.971 16.2794 128.903 16.3353 128.851 16.404C128.799 16.4726 128.763 16.5523 128.746 16.6369C128.729 16.7215 128.732 16.8088 128.754 16.8922C128.777 16.9755 128.818 17.0527 128.874 17.1178C128.924 17.1694 128.983 17.2112 129.048 17.2404C129.116 17.2832 129.193 17.3099 129.274 17.3196L129.265 17.3284ZM129.265 16.4512C129.337 16.4472 129.408 16.4689 129.465 16.5125C129.488 16.5317 129.506 16.556 129.518 16.5834C129.53 16.6108 129.536 16.6406 129.534 16.6705C129.536 16.6962 129.532 16.7219 129.523 16.746C129.514 16.7701 129.5 16.7921 129.482 16.8105C129.44 16.851 129.385 16.8759 129.326 16.881L129.543 17.1353H129.369L129.169 16.881H129.109V17.1353H128.97V16.4595L129.265 16.4512ZM129.1 16.5737V16.7488H129.265C129.293 16.7575 129.324 16.7575 129.352 16.7488C129.357 16.7379 129.36 16.726 129.36 16.714C129.36 16.702 129.357 16.6901 129.352 16.6792C129.358 16.6685 129.361 16.6564 129.361 16.644C129.361 16.6316 129.358 16.6195 129.352 16.6087C129.324 16.6009 129.294 16.6009 129.265 16.6087L129.1 16.5737ZM120.655 7.80087C120.165 7.79251 119.679 7.89126 119.231 8.09018C118.827 8.2741 118.466 8.54007 118.171 8.87109C117.876 9.21106 117.649 9.60422 117.502 10.0293C117.188 10.9451 117.188 11.9387 117.502 12.8544C117.649 13.2792 117.876 13.672 118.171 14.0117C118.466 14.3431 118.827 14.6092 119.231 14.7931C120.131 15.1724 121.145 15.1724 122.046 14.7931C122.451 14.6145 122.814 14.3546 123.114 14.0297C123.449 13.6802 123.706 13.2648 123.87 12.8102C124.2 11.8731 124.2 10.8522 123.87 9.91506C123.716 9.49057 123.48 9.10026 123.175 8.76607C122.875 8.44134 122.511 8.1815 122.107 8.00266C121.663 7.82202 121.186 7.73829 120.708 7.75711L120.655 7.80087Z" fill="white" fill-opacity="0.5"/>
</svg>
