<svg width="45" height="45" viewBox="0 0 45 45" fill="none" xmlns="http://www.w3.org/2000/svg">
    <g clip-path="url(#clip0)">
        <path d="M12.4372 13.4346L12.4984 13.618L12.5595 13.8014L12.6206 13.9848L12.7429 14.1682L12.804 14.2293L12.8652 14.2904L12.9263 14.3515L12.9874 14.4127L13.0486 14.4738L13.1097 14.5349L13.1708 14.5961L13.232 14.6572L13.2931 14.7795L13.3542 14.8406L13.4154 14.9629L13.5376 15.0851L13.6599 15.2074L13.7821 15.3297L13.9044 15.4519L14.0267 15.5742L14.1489 15.6965L14.2712 15.8187L14.3935 15.941L14.5157 16.0632L14.638 16.1855L14.7603 16.3078L14.9437 16.43L15.1271 16.5523C15.4938 16.7968 15.9218 17.347 15.6161 18.0806C15.3104 18.8753 14.6991 19.9145 15.0659 20.3425C15.4327 20.7704 16.7165 20.9538 17.7557 20.587C17.7557 20.587 18.0003 21.2595 18.367 21.6874C18.367 21.6874 18.1836 22.0542 17.5723 21.8708C17.5723 21.8708 17.8169 22.421 17.5112 22.9712C17.5112 22.9712 16.8387 22.8489 16.5331 22.1764C16.5331 22.1764 16.2886 22.6655 15.6772 22.8489C15.6772 22.8489 15.1882 22.6044 15.3104 21.6874C15.3104 21.6874 14.9437 22.4821 13.9044 22.6655C13.9044 22.6655 13.2931 21.9319 14.0878 20.8927C14.0878 20.8927 13.5376 21.3817 12.4984 21.1372C12.4984 21.1372 12.315 20.6482 13.232 19.9146C13.232 19.9146 12.1927 19.8534 11.8259 18.9976C11.8259 18.9976 12.2539 18.4474 13.3542 18.5697C13.3542 18.5697 12.3761 18.3251 12.1316 17.1636C12.1316 17.1636 12.8652 16.6746 13.9655 17.4693C13.9655 17.4693 13.7821 17.1025 13.2931 16.6746C12.804 16.0632 12.2539 15.024 12.4372 13.4346Z" fill="white"/>
        <path d="M16.6553 25.4783L16.5331 25.356V24.6836C16.7165 26.1508 16.7776 27.1289 17.5723 28.0459C17.5723 28.0459 18.0614 27.4345 17.7557 25.9062C17.6335 25.8451 17.5112 25.784 17.3278 25.7228C17.3278 25.7228 17.5112 26.3342 17.3889 26.9455C17.1444 27.1289 16.8387 26.9455 16.6553 25.4783Z" fill="white"/>
        <path d="M15.2493 25.3553L15.1882 25.233L15.1271 25.1719V25.0496L15.0659 24.9885V24.8662C15.0048 25.7221 14.7603 27.9228 15.555 28.5952C15.555 28.5952 16.044 28.2285 16.2274 24.9885C16.1052 25.1719 15.9218 25.3553 15.8606 25.4775C15.8606 25.4775 15.9829 26.5168 15.6161 27.2504C15.4327 27.1892 15.0659 26.8836 15.2493 25.3553Z" fill="white"/>
        <path d="M13.4765 27.0068L13.5988 26.8845L13.6599 26.7623L13.721 26.64L13.7822 26.5177L13.8433 26.3955L13.9044 26.2732L13.9656 26.1509L14.0267 26.0287L14.0878 25.9064L14.149 25.7842H14.0267L14.0878 25.5396V25.4174L14.149 25.2951V24.2559C14.2101 24.1947 14.3324 24.1336 14.3935 24.0725C14.4546 24.0725 14.4546 24.0113 14.5158 23.9502V24.1947C14.3935 25.5396 14.3324 26.9457 13.9044 27.6181C13.4765 28.2906 12.7429 28.6574 12.7429 28.6574C12.0093 27.3736 12.8652 25.723 13.5988 24.5004C13.721 24.5004 13.7822 24.4393 13.8433 24.3781C13.7822 25.1117 13.2931 26.2121 13.4765 27.0068Z" fill="white"/>
        <path d="M11.7648 23.1553V23.3386C11.1534 23.8888 10.7255 24.5002 9.86966 25.7228C8.95269 26.9454 7.60779 27.0066 7.60779 27.0066C7.73005 26.0284 8.03571 25.2337 8.76929 24.3779C9.50287 23.5221 10.481 22.7273 11.1534 22.2383C11.3368 22.2994 11.5814 22.3606 11.887 22.3606H11.9481C11.8259 22.4828 11.7648 22.6051 11.7648 22.7273C11.2146 23.033 9.68627 23.8277 9.07495 25.0503C9.07495 25.2337 10.0531 24.9281 11.7648 23.1553Z" fill="white"/>
        <path d="M10.6034 21.932L10.6645 21.8098C10.6645 21.8098 10.7257 21.7486 10.7257 21.6875C10.1143 21.932 8.09698 22.6656 7.42453 23.0324C6.75208 23.3992 5.77397 24.1328 5.28491 25.7222C5.28491 25.7222 6.69095 25.8445 7.79132 24.9275C8.95283 24.0105 10.2366 22.6656 10.8479 22.2377L10.7257 22.1154C10.7257 22.1154 9.19735 23.4603 7.54679 24.0717C7.54679 24.0717 7.91359 23.4603 8.5249 22.9713C9.38075 22.4211 9.93094 22.2377 10.6034 21.932Z" fill="white"/>
        <path d="M9.44174 20.9541C8.83042 21.0152 7.11872 21.2598 6.38514 21.4432C5.65156 21.6877 4.24552 22.2379 3.45081 23.7662C3.45081 23.7662 4.67345 24.133 6.87419 23.0937C9.13608 22.0545 9.80853 21.81 10.2365 21.6877C9.86966 21.6877 9.62513 21.5654 9.50287 21.5043C8.58589 21.9322 7.42438 22.3602 6.20174 22.4213C6.20174 22.4213 6.81306 21.9934 7.42438 21.7488C8.15796 21.3821 8.89155 21.1375 9.44174 20.9541Z" fill="white"/>
        <path d="M9.50299 19.8539L9.62525 19.915H10.1754C9.99204 20.0373 9.86978 20.1595 9.74752 20.3429C8.9528 20.5875 7.6079 20.832 5.40715 20.9542C3.2064 21.1376 1.98376 20.7097 1.98376 20.7097C2.77848 20.2207 4.00112 19.7316 4.79583 19.6094C5.65168 19.426 7.85243 19.4871 8.76941 19.3037C8.76941 19.3037 8.89167 19.426 9.07507 19.5482C8.28035 19.6093 6.50753 19.7316 5.65168 20.1595C5.71281 20.2818 7.36337 20.4652 9.50299 19.8539Z" fill="white"/>
        <path d="M9.3196 18.5705C8.28036 18.2037 6.69093 17.5924 4.36792 17.4701C2.65622 17.3479 1.43358 17.4701 0.822266 17.6535C0.822266 17.6535 2.35056 18.7539 4.12339 19.1206C5.89622 19.4874 7.36338 19.2429 8.40262 19.2429C8.46376 19.1207 8.58602 19.0595 8.70828 18.9373C7.48565 18.9373 5.40716 18.6316 4.67358 18.3871C5.04037 18.2648 6.81319 17.8369 9.3196 18.5705Z" fill="white"/>
        <path d="M9.31944 17.2864V17.8366L9.38057 17.8977L9.4417 17.9589L9.50283 18.02L9.56396 18.0812L9.6251 18.1423L9.68623 18.2034L9.74736 18.2646L9.80849 18.3257H9.86962L9.93075 18.3868L9.99189 18.4479H10.053C8.46359 17.7755 5.34586 17.3476 3.6953 16.6751C1.43342 15.7581 1.00549 14.5355 1.00549 14.5355C2.96171 14.4744 4.55115 14.9634 5.77378 15.3302C7.17982 15.7582 9.38057 16.5529 10.1142 16.9196C9.80849 16.9196 9.50283 16.9808 9.2583 17.1642C8.21906 16.7363 7.73001 16.5529 6.75189 16.3083C6.01831 16.1249 5.40699 16.0638 4.97907 16.0027C4.97907 16.0027 5.65152 16.4306 6.75189 16.7974C7.97453 17.0419 8.46359 17.103 9.31944 17.2864Z" fill="white"/>
        <path d="M9.1973 15.5138L9.25843 15.6361V15.6972C6.75202 15.2693 4.00109 13.3742 3.14524 12.2126C2.28939 11.0511 2.53392 9.27832 2.53392 9.27832C3.32864 9.46172 5.16259 10.99 5.59052 11.4791C6.07957 11.9681 7.48561 13.313 8.46372 14.0466L8.76938 14.9025C7.97466 14.23 6.93542 13.4964 6.3241 13.0074C5.83505 12.6406 5.1626 12.1515 4.42901 11.907C4.42901 11.907 5.04033 12.7628 5.59052 13.1296C6.20184 13.6187 6.81316 14.0466 7.30221 14.2911C8.09693 14.9636 8.34145 15.0859 9.1973 15.5138Z" fill="white"/>
        <path d="M16.2886 22.5439C16.472 22.6662 16.8388 23.0941 17.0222 23.5832C17.1445 24.0111 17.3279 24.5613 17.389 24.867C17.4501 25.1726 17.6947 25.8451 17.8169 26.0896C17.8169 26.0896 17.2056 26.1507 16.7777 25.6617C16.3498 25.1726 16.1664 24.6224 16.1052 24.0722C16.1664 23.5221 16.2275 22.9107 16.2886 22.5439Z" fill="white"/>
        <path d="M15.3104 22.6045L15.4938 22.7268H15.5549C15.6161 22.7268 15.6772 22.6656 15.7383 22.6656C15.8606 22.9102 15.8606 23.0324 15.9217 23.2158C15.9217 23.5215 15.9828 23.9494 15.9217 24.3162C15.7995 24.7441 15.5549 24.9886 15.3715 25.172C15.3715 25.172 14.9436 24.7441 14.8825 24.3773C14.7602 24.0105 14.6991 23.5826 14.8825 23.0935C15.0659 22.9713 15.1881 22.7268 15.3104 22.6045Z" fill="white"/>
        <path d="M13.9656 22.666H15.0049C15.066 22.7883 15.1271 22.9717 15.066 23.2773C15.0049 23.583 14.8215 23.8886 14.5158 24.072C14.0879 24.3777 13.5377 24.6833 12.9264 24.6222C12.8652 24.1943 12.743 23.7664 13.9656 22.666Z" fill="white"/>
        <path d="M13.4765 21.8721V22.0555C13.3542 22.2389 12.8041 23.0947 11.7648 22.9725C11.7648 22.9725 11.4592 22.3611 12.1927 21.8721C12.9263 22.0555 13.1708 21.9943 13.4765 21.8721Z" fill="white"/>
        <path d="M13.5988 21.1373L13.4765 21.1984H12.1928L12.1316 21.0762C11.5814 21.5041 10.909 21.6264 10.7256 21.9931C10.7256 21.9931 11.0312 22.4822 11.7037 22.4211C12.4373 22.3599 12.9263 21.9932 13.3543 21.5041C13.4765 21.3818 13.5377 21.2596 13.5988 21.1373Z" fill="white"/>
        <path d="M12.315 20.5278L12.3762 20.4055V20.0999C11.8871 20.0388 11.4592 19.9776 10.909 20.0999C10.2365 20.2221 9.56408 20.4055 9.25842 21.3836C9.25842 21.3836 9.68635 21.7504 10.4811 21.567C11.4592 21.2614 12.0094 20.9557 12.315 20.5278Z" fill="white"/>
        <path d="M12.0705 19.4266L12.0094 19.3044V18.8153L11.9483 18.6931C11.3981 18.4485 10.7868 18.3263 10.2366 18.5708C9.62527 18.8153 9.503 19.0598 9.38074 19.2432C9.38074 19.2432 9.99206 19.7934 10.7868 19.7934C11.0924 19.8546 11.7649 19.6711 12.0705 19.4266Z" fill="white"/>
        <path d="M12.2538 18.2653C12.0704 18.0207 11.8259 17.7151 11.7036 17.1649C11.4591 17.226 10.7866 17.226 10.5421 17.1037C10.2364 16.9815 9.74738 16.9815 9.31946 17.2871C9.31946 17.2871 9.44172 18.0207 10.4198 18.2653C11.5202 18.4486 11.887 18.3875 12.2538 18.2653Z" fill="white"/>
        <path d="M11.8872 16.7978L12.0094 16.7367C12.0094 16.7367 12.254 16.6145 12.6208 16.5533C12.3151 16.3088 11.5815 15.6974 11.0925 15.4529C10.5423 15.1473 9.62529 14.7193 9.13623 14.6582C9.13623 14.6582 9.56415 15.8197 10.1143 16.3088C10.6034 16.7978 10.9702 16.9812 11.8872 16.7978Z" fill="white"/>
        <path d="M12.8651 16.3087L12.804 16.1865L12.7429 16.1254L12.6817 16.0642V16.0031L12.6206 15.942L12.5595 15.8808V15.7585L12.4983 15.6974V15.2695C12.3761 14.8416 12.1315 13.9246 12.0093 13.6189C11.887 13.3744 11.3368 12.5186 10.2976 12.2129C10.2976 12.2129 10.0531 13.3744 10.5421 14.2914C10.7866 14.9027 11.7036 15.7586 12.8651 16.3087Z" fill="white"/>
        <path d="M18.5504 21.6279L18.6727 21.689C18.6727 21.689 18.9783 22.3003 18.6115 23.095C18.1836 23.8286 17.878 24.6233 17.7557 25.0513C17.7557 25.0513 17.5723 25.0513 17.3278 23.8286C17.1444 23.0339 16.961 22.8505 16.7776 22.5449C17.0221 22.6671 17.2055 22.6671 17.2055 22.6671L17.3889 22.7282L17.45 22.5449C17.5723 22.3003 17.6334 21.9947 17.6334 21.8113V21.6279C18.1836 21.8724 18.4281 21.689 18.5504 21.6279C18.4893 21.5667 18.4893 21.5667 18.5504 21.6279Z" fill="white"/>
        <path d="M9.80849 12.5792V13.2517C9.19717 12.4569 8.46358 11.54 7.79113 10.6841C7.30208 10.0728 6.93529 9.76712 6.44623 9.46146C6.81302 10.5618 7.48547 11.4177 7.97453 11.8456C8.46358 12.2735 9.13604 13.0071 9.80849 13.4962L9.86962 13.6796C9.93075 13.863 9.99188 14.1075 10.1141 14.2909C10.2975 14.5966 10.4809 14.8411 10.7255 15.0856C10.5421 14.9633 10.2975 14.9022 10.1141 14.78L9.93075 14.6577C8.09679 13.6796 6.26284 11.6622 5.52925 10.2562C4.79567 8.85014 5.10133 7.1996 5.28472 6.34375C6.14057 7.07733 7.36321 8.48338 7.85226 9.21696C8.46358 10.1339 9.31943 11.4788 9.80849 12.5792Z" fill="white"/>
        <path d="M35.7286 18.5705L35.6063 18.5093H35.2395C36.3399 18.2037 37.9293 17.5924 40.2523 17.4701C41.964 17.3479 43.1867 17.4701 43.798 17.6535C43.798 17.6535 42.2085 18.7539 40.4969 19.1206C38.724 19.4874 37.2569 19.2429 36.2176 19.2429C36.1565 19.1207 36.0954 19.0595 35.9731 18.9373C37.1957 18.9373 39.2742 18.6316 40.0078 18.3871C40.0078 18.2648 38.235 17.8369 35.7286 18.5705Z" fill="white"/>
        <path d="M35.7285 17.287V17.6538L35.6673 17.7149L35.6062 17.7761L35.4228 17.8372L35.3617 17.8983L35.3005 17.9595L35.2394 18.0206L35.1783 18.0817L35.1171 18.1429L35.056 18.204L34.9949 18.2651H34.9337L34.8726 18.3262L34.8115 18.3874H34.7503C36.3398 17.715 39.4575 17.287 41.1081 16.6146C43.3699 15.6976 43.7979 14.4749 43.7979 14.4749C41.8416 14.4138 40.2522 14.9029 39.0296 15.2697C37.6235 15.6976 35.4228 16.4923 34.6892 16.8591C34.9949 16.8591 35.3005 16.9202 35.5451 17.1036C36.5843 16.6757 37.1345 16.4923 38.0515 16.2478C38.8462 16.0644 39.3964 16.0033 39.8243 15.9421C39.8243 15.9421 39.1518 16.37 38.0515 16.7368C37.0734 17.0425 36.5843 17.1036 35.7285 17.287Z" fill="white"/>
        <path d="M35.8508 15.5132L35.7896 15.6355V15.6966H35.7285V15.7577C38.2349 15.3298 40.9859 13.4347 41.8417 12.2732C42.6976 11.1117 42.453 9.33887 42.453 9.33887C41.6583 9.52226 39.8244 11.0506 39.3964 11.5396C38.9074 12.0287 37.5013 13.3736 36.5844 14.1072L36.2787 14.963C37.0734 14.2906 38.1127 13.557 38.724 13.0679C39.213 12.7011 39.8855 12.2121 40.6191 11.9676C40.6191 11.9676 39.9466 12.8234 39.4576 13.1902C38.8462 13.6793 38.2349 14.1072 37.7459 14.3517C36.9512 14.963 36.7678 15.0853 35.8508 15.5132Z" fill="white"/>
        <path d="M35.2395 12.5786V13.3122C35.8508 12.5175 36.5844 11.6005 37.2568 10.7447C37.7459 10.1334 38.1127 9.82771 38.6017 9.52205C38.2349 10.6224 37.5625 11.4782 37.0734 11.9062C36.5844 12.3341 35.9119 13.0677 35.2395 13.5567L35.1784 13.7401C35.1172 13.9235 35.0561 14.168 34.9338 14.3514C34.7504 14.6571 34.567 14.9016 34.3225 15.1462C34.5059 15.0239 34.7504 14.9628 34.995 14.8405L35.1784 14.7183C37.0123 13.7401 38.8463 11.7228 39.5798 10.3168C40.3134 8.91072 40.0078 7.26014 39.8244 6.4043C38.9685 7.13788 37.807 8.54392 37.2568 9.2775C36.5844 10.1333 35.7285 11.4783 35.2395 12.5786Z" fill="white"/>
        <path d="M12.1928 23.7061L12.0705 23.8283L12.0094 23.8895L11.9482 24.0117L11.826 24.134L11.7037 24.2563L11.5814 24.3785L11.4592 24.5008L11.3369 24.623L11.2147 24.7453L11.0924 24.8676L10.9701 24.9898L10.8479 25.1121L10.7256 25.2344L10.6033 25.3566L10.4811 25.4789L10.4199 25.6012L10.3588 25.7234L10.2977 25.8457L10.2365 26.0291L10.1754 26.2125L10.1143 26.3959L10.0531 26.5793L9.99202 26.7626L9.93088 26.9461L9.86975 27.1295V28.2298C9.86975 28.2298 11.3369 27.7408 11.9482 26.7015C12.5596 25.6012 12.9263 24.9287 13.1709 24.6842H12.5596C12.1928 25.3566 11.4592 26.5181 10.7256 26.8849C10.7256 26.8849 10.5422 25.9679 12.5596 24.134C12.5596 24.0729 12.6207 23.9506 12.6818 23.8895C12.6818 23.7061 12.4373 23.7061 12.1928 23.7061Z" fill="white"/>
        <path d="M32.6108 13.4346L32.5497 13.618L32.4885 13.8014L32.4274 13.9848L32.3051 14.1682L32.244 14.2293L32.1829 14.2904L32.1217 14.3515L32.0606 14.4127L31.9995 14.4738L31.9384 14.5349L31.8772 14.5961L31.755 14.7795L31.6938 14.9018L31.6327 14.9629L31.5716 15.0851L31.4493 15.2074L31.327 15.3297L31.2048 15.4519L31.0825 15.5742L30.9602 15.6965L30.838 15.8187L30.7157 15.941L30.5934 16.0632L30.4712 16.1855L30.3489 16.3078L30.2267 16.43L30.0433 16.5523L29.8599 16.6746C29.4931 16.9191 29.0652 17.4693 29.3708 18.2029C29.6765 18.9976 30.2878 20.0368 29.921 20.4647C29.5542 20.8927 28.2704 21.0761 27.2312 20.7093C27.2312 20.7093 26.9867 21.3817 26.6199 21.8096C26.6199 21.8096 26.8033 22.1764 27.4146 21.993C27.4146 21.993 27.1701 22.5432 27.4757 23.0934C27.4757 23.0934 28.1482 22.9711 28.4538 22.2987C28.4538 22.2987 28.6984 22.7878 29.3097 22.9712C29.3097 22.9712 29.7987 22.7266 29.6765 21.8096C29.6765 21.8096 30.0433 22.6043 31.0825 22.7877C31.0825 22.7877 31.6938 22.0542 30.8991 21.0149C30.8991 21.0149 31.4493 21.504 32.4885 21.2594C32.4885 21.2594 32.6719 20.7704 31.755 20.0368C31.755 20.0368 32.7942 19.9757 33.161 19.1198C33.161 19.1198 32.7331 18.5697 31.6327 18.6919C31.6327 18.6919 32.6108 18.4474 32.8553 17.2859C32.8553 17.2859 32.1217 16.7968 31.0214 17.5915C31.0214 17.5915 31.2048 17.2247 31.6938 16.7968C32.244 16.0632 32.7942 15.024 32.6108 13.4346Z" fill="white"/>
        <path d="M28.4538 25.4783L28.5149 25.356L28.5761 25.2949V24.6836C28.3927 26.1508 28.3315 27.1289 27.5368 28.0459C27.5368 28.0459 27.0478 27.4345 27.3534 25.9062C27.4757 25.8451 27.598 25.784 27.7814 25.7228C27.7814 25.7228 27.598 26.3342 27.7202 26.9455C27.9647 27.1289 28.2093 26.9455 28.4538 25.4783Z" fill="white"/>
        <path d="M29.7987 25.3553L29.921 25.2941V25.1719L29.9821 25.1108V24.8662C30.0432 25.7221 30.2878 27.9228 29.5542 28.5952C29.5542 28.5952 29.0651 28.2285 28.8817 24.9885C29.004 25.1719 29.1874 25.3553 29.2485 25.4775C29.2485 25.4775 29.1262 26.5168 29.493 27.2504C29.6153 27.1892 30.0432 26.8836 29.7987 25.3553Z" fill="white"/>
        <path d="M31.5715 27.007L31.4493 26.8847L31.3881 26.7624L31.327 26.6402L31.2659 26.5179L31.2047 26.3957L31.1436 26.2734L31.0825 26.1511L31.0213 26.0289L30.9602 25.9066L30.8991 25.7844L30.8379 25.6621L30.7768 25.4176L30.7157 25.2953V24.1338C30.5934 24.0727 30.5323 24.0115 30.4711 23.9504C30.41 23.9504 30.41 23.8893 30.3489 23.8281V24.0727C30.4711 25.4176 30.5323 26.8236 30.9602 27.496C31.3881 28.1685 32.1217 28.5353 32.1217 28.5353C32.8553 27.2515 31.9994 25.601 31.2659 24.3783C31.1436 24.3783 31.0825 24.3172 31.0213 24.2561C31.2659 25.1119 31.7549 26.2123 31.5715 27.007Z" fill="white"/>
        <path d="M33.3444 23.1553C33.3444 23.2164 33.3444 23.2775 33.2832 23.3386C33.8946 23.8888 34.3225 24.5002 35.1783 25.7228C36.0342 26.9454 37.4402 27.0066 37.4402 27.0066C37.3179 26.0284 37.0123 25.2337 36.2787 24.3779C35.5451 23.5221 34.567 22.7273 33.8946 22.2383C33.7112 22.2994 33.4666 22.3606 33.161 22.3606H33.0999C33.2221 22.4828 33.2832 22.6051 33.2832 22.7273C33.8334 23.033 35.3617 23.8277 35.973 25.0503C35.973 25.2337 34.9949 24.9281 33.3444 23.1553Z" fill="white"/>
        <path d="M34.4447 21.932L34.3836 21.8098C34.3836 21.8098 34.3225 21.7486 34.3225 21.6875C34.8726 21.932 36.9511 22.6656 37.6236 23.0324C38.296 23.3992 39.2741 24.1328 39.7632 25.7222C39.7632 25.7222 38.3572 25.8445 37.2568 24.9275C36.0953 24.0105 34.8115 22.6656 34.2002 22.2377L34.3225 22.1154C34.3225 22.1154 35.8508 23.4603 37.5013 24.0717C37.5013 24.0717 37.1345 23.4603 36.5232 22.9713C35.7285 22.4211 35.1172 22.2377 34.4447 21.932Z" fill="white"/>
        <path d="M35.6062 20.9541C36.2176 21.0152 37.9292 21.2598 38.6628 21.4432C39.3964 21.6877 40.8024 22.2379 41.5972 23.7662C41.5972 23.7662 40.4357 24.133 38.1738 23.0937C35.9119 22.0545 35.2394 21.81 34.8115 21.6877C35.1783 21.6877 35.4228 21.5654 35.5451 21.5043C36.4621 21.9322 37.6236 22.3602 38.8462 22.4213C38.8462 22.4213 38.2349 21.9934 37.6236 21.7488C36.89 21.3821 36.1564 21.1375 35.6062 20.9541Z" fill="white"/>
        <path d="M35.5451 19.8539L35.4228 19.915H34.6892C34.8726 20.0373 34.9949 20.1595 35.1171 20.3429C35.9118 20.5875 37.2567 20.832 39.4575 20.9542C41.6582 21.1376 42.8809 20.7097 42.8809 20.7097C42.0862 20.2207 40.8635 19.7316 40.0077 19.6094C39.1518 19.426 37.0122 19.4871 36.0341 19.3037C36.0341 19.3037 35.9118 19.426 35.7285 19.5482C36.5232 19.6093 38.296 19.7316 39.1518 20.1595C39.3352 20.2818 37.6847 20.4652 35.5451 19.8539Z" fill="white"/>
        <path d="M28.7595 22.5439C28.5761 22.6662 28.2093 23.0941 28.0259 23.5832C27.9037 24.0111 27.7203 24.5613 27.6591 24.867C27.598 25.1726 27.3535 25.8451 27.2312 26.0896C27.2312 26.0896 27.8425 26.1507 28.2704 25.6617C28.6984 25.1726 28.8818 24.6224 28.9429 24.0722C28.8818 23.5221 28.8206 22.9107 28.7595 22.5439Z" fill="white"/>
        <path d="M29.7376 22.6045L29.6154 22.7268H29.4931C29.432 22.7268 29.3708 22.6656 29.3097 22.6656C29.2486 22.9102 29.1875 23.0324 29.1875 23.2158C29.1263 23.5215 29.1263 23.9494 29.1875 24.3162C29.3097 24.7441 29.5542 24.9886 29.7376 25.172C29.7376 25.172 30.1656 24.7441 30.2267 24.3773C30.349 24.0105 30.4101 23.5826 30.2267 23.0935C29.9822 22.9713 29.8599 22.7268 29.7376 22.6045Z" fill="white"/>
        <path d="M31.1436 22.666H30.1044C30.0433 22.7883 29.9821 22.9717 30.0433 23.2773C30.1044 23.583 30.2878 23.8886 30.5935 24.072C31.0214 24.3777 31.5716 24.6833 32.1829 24.6222C32.1829 24.1943 32.3051 23.7664 31.1436 22.666Z" fill="white"/>
        <path d="M31.5715 21.8721V22.0555C31.6938 22.2389 32.244 23.0947 33.2832 22.9725C33.2832 22.9725 33.5889 22.3611 32.8553 21.8721C32.1217 22.0555 31.9383 21.9943 31.5715 21.8721Z" fill="white"/>
        <path d="M31.5104 21.1373L31.6326 21.1984H32.8553L32.9164 21.0762C33.4666 21.5041 34.139 21.6264 34.3224 21.9931C34.3224 21.9931 34.0779 22.4822 33.3443 22.4211C32.6108 22.3599 32.1217 21.9932 31.6938 21.5041C31.5715 21.3818 31.5104 21.2596 31.5104 21.1373Z" fill="white"/>
        <path d="M32.733 20.5278L32.6719 20.4055V20.0999C33.1609 20.0388 33.5889 19.9776 34.139 20.0999C34.8115 20.2221 35.4839 20.4055 35.7896 21.3836C35.7896 21.3836 35.3617 21.7504 34.6281 21.567C33.5889 21.2614 33.0387 20.9557 32.733 20.5278Z" fill="white"/>
        <path d="M32.9777 19.4266L33.0999 19.3655H33.2222L33.2833 19.3044H33.3445V19.2432L33.4056 19.1821V18.8153L33.4667 18.6931C34.0169 18.4485 34.6282 18.3263 35.1784 18.5708C35.7286 18.8153 35.912 19.0598 36.0343 19.2432C36.0343 19.2432 35.3618 19.7934 34.6282 19.7934C33.9558 19.8546 33.2833 19.6711 32.9777 19.4266Z" fill="white"/>
        <path d="M32.8553 18.2653C33.0387 18.0207 33.2833 17.7151 33.4055 17.1649C33.6501 17.226 34.2614 17.226 34.567 17.1037C34.8116 16.9815 35.3618 16.9815 35.7897 17.2871C35.7897 17.2871 35.6674 18.0207 34.6893 18.2653C33.5278 18.4486 33.161 18.3875 32.8553 18.2653Z" fill="white"/>
        <path d="M33.161 16.7978L33.0387 16.7367C33.0387 16.7367 32.7942 16.6145 32.4274 16.5533C32.733 16.3088 33.4666 15.6974 33.9557 15.4529C34.5059 15.1473 35.4228 14.7193 35.9119 14.6582C35.9119 14.6582 35.484 15.8197 34.9338 16.3088C34.4447 16.7978 34.0779 16.9812 33.161 16.7978Z" fill="white"/>
        <path d="M32.1829 16.3087L32.244 16.1865L32.3051 16.1254L32.3663 16.0642L32.4274 16.0031L32.4885 15.942L32.5497 15.8808L32.6108 15.8197L32.6719 15.7585L32.733 15.6974L32.7942 15.6363L32.8553 15.5751V15.514L32.9164 15.4529V15.3306L32.9776 15.2695C33.0998 14.8416 33.3444 13.9246 33.4666 13.6189C33.5889 13.3744 34.1391 12.5186 35.1783 12.2129C35.1783 12.2129 35.4229 13.3744 34.9338 14.2914C34.2614 14.9027 33.3444 15.7586 32.1829 16.3087Z" fill="white"/>
        <path d="M26.4976 21.6279L26.3754 21.689H26.3142C26.3142 21.689 26.0086 22.3003 26.3754 23.095C26.8033 23.8286 27.1089 24.6233 27.2923 25.0513C27.2923 25.0513 27.4757 25.0513 27.7203 23.8286C27.9036 23.0339 28.087 22.8505 28.2704 22.5449C28.0259 22.6671 27.8425 22.6671 27.8425 22.6671L27.6591 22.7282L27.598 22.5449C27.4757 22.3003 27.4146 21.9947 27.4146 21.8113V21.6279C26.8644 21.8724 26.6199 21.689 26.4976 21.6279C26.5587 21.5667 26.5587 21.5667 26.4976 21.6279Z" fill="white"/>
        <path d="M32.8553 23.7061L32.9776 23.8283L33.0387 23.8895L33.0999 24.0117L33.2221 24.134L33.2833 24.2563L33.4055 24.3785L33.5278 24.5008L33.65 24.623L33.7723 24.7453L33.8946 24.8676L34.0168 24.9898L34.1391 25.1121L34.2614 25.2344L34.3836 25.3566L34.4448 25.4789L34.567 25.6012L34.6282 25.7234L34.6893 25.8457L34.7504 26.0291L34.8115 26.2125L34.8727 26.3959L34.9338 26.5793L34.9949 26.7626L35.0561 26.9461L35.1172 27.1295L35.1783 27.3128L35.2395 27.4962V28.2298C35.2395 28.2298 33.7723 27.7408 33.161 26.7015C32.5497 25.6012 32.1829 24.9287 31.9384 24.6842H32.5497C32.9165 25.3566 33.65 26.5181 34.3225 26.8849C34.3225 26.8849 34.5059 25.9679 32.5497 24.134C32.4885 24.0729 32.4885 23.9506 32.4274 23.8895C32.4274 23.7061 32.6108 23.7061 32.8553 23.7061Z" fill="white"/>
        <path d="M21.3625 8.97323L21.4848 8.91211H22.7686C23.441 8.91211 23.9301 9.03435 23.9301 9.15662C23.9301 9.27888 23.441 9.40116 22.7686 9.40116C21.9127 9.21776 21.3625 9.09549 21.3625 8.97323Z" fill="white"/>
        <path d="M17.3889 10.2564L17.5112 10.1953H18.367C18.7949 10.1953 19.1006 10.2565 19.1006 10.3176C19.1006 10.3787 18.7338 10.4399 18.367 10.4399C17.7557 10.4399 17.3889 10.3787 17.3889 10.2564Z" fill="white"/>
        <path d="M22.7686 9.46211C22.6463 9.52324 22.524 9.40099 22.524 9.27872C22.524 9.15646 22.6463 9.03418 22.7686 9.03418C22.6463 9.27871 22.7686 9.33985 22.7686 9.46211Z" fill="white"/>
        <path d="M21.3014 8.72823L21.2403 8.606L21.1791 8.54485L21.118 8.48373L21.0569 8.42257L20.9957 8.36146L20.9346 8.30034L20.8735 8.23919V8.17807L20.8123 8.11691L20.7512 8.0558V7.99468L20.6901 7.93353V7.01655C20.6901 6.89428 20.8735 6.77202 20.9957 6.71089C21.1791 6.64976 21.3014 6.64976 21.3625 6.71089C21.5459 6.89428 21.7293 8.11694 21.7904 8.606C21.607 8.54487 21.4848 8.60597 21.3014 8.72823Z" fill="white"/>
        <path d="M21.9738 8.48357H22.3406C22.2795 7.99451 22.0961 7.13866 21.9738 6.833C21.8516 6.52734 21.7293 6.28281 21.5459 6.22168C21.5459 6.22168 21.7293 6.6496 21.7904 7.13866C21.8516 7.62772 21.9127 8.05565 21.9738 8.48357Z" fill="white"/>
        <path d="M20.7512 10.1345H21.7905C20.9346 9.7066 20.7512 10.1345 20.7512 10.1345Z" fill="white"/>
        <path d="M21.4237 10.1344L21.3014 10.1955H19.9565C20.0788 9.95097 20.2011 9.70644 20.5679 9.46191C20.9347 9.21738 21.546 9.15625 21.7905 9.15625C21.9128 9.58417 21.6682 9.95099 21.4237 10.1344Z" fill="white"/>
        <path d="M21.3014 10.4404C20.8735 10.6238 19.4674 10.6849 18.7338 10.6849H17.1444C17.2055 12.3355 18.3059 12.3966 18.3059 12.3966V12.0298C18.6727 12.3355 19.3452 12.5801 19.3452 12.5801C19.3452 12.3967 19.284 12.2132 19.284 12.2132C19.5897 12.3966 19.7731 12.3966 19.7731 12.3966C19.7119 12.1521 19.5897 11.9076 19.5897 11.9076C19.7731 12.1521 20.0787 12.2132 20.0787 12.2132C20.1399 12.091 20.0176 11.7242 20.0176 11.7242C20.1399 11.8465 20.3233 12.2132 20.9346 12.3355C21.5459 12.4578 21.8516 12.091 21.8516 12.091C21.2402 12.1521 20.6901 11.5408 20.6901 11.5408C20.9957 11.4185 21.118 11.174 21.118 11.174C20.9346 10.9906 20.7512 10.9906 20.7512 10.9906C21.1791 10.6849 21.3014 10.4404 21.3014 10.4404ZM19.1618 11.0518C19.1618 11.1129 18.1837 11.1129 18.1837 11.6019C18.0003 11.4797 17.9391 11.2963 17.9391 11.1129C17.9391 11.0517 18.6116 11.1129 19.1618 11.0518Z" fill="white"/>
        <path d="M17.0833 10.5617V11.5399C17.0833 11.5399 16.6553 11.2342 16.5331 10.9285C16.6553 10.6229 16.6553 10.4395 17.0833 10.5617Z" fill="white"/>
        <path d="M15.7996 10.8672C15.6162 10.8672 15.4328 10.9895 15.3105 11.1117C15.066 11.4174 15.1883 12.0898 15.6162 12.3344C15.6162 12.3344 16.2887 11.723 17.1445 12.3344C17.1445 12.3344 17.3279 12.2121 17.7558 12.151V12.0287H17.5113C17.2668 11.9064 16.7166 11.7231 16.5332 11.234C16.1664 10.8672 15.983 10.8672 15.7996 10.8672ZM16.1664 11.5397C16.2887 11.5397 16.3498 11.6619 16.3498 11.723C16.2275 11.723 16.1664 11.6008 16.1664 11.5397C16.0441 11.6008 16.1053 11.5397 16.1664 11.5397Z" fill="white"/>
        <path d="M17.9391 12.2744L18.0614 12.3966L18.1225 12.4578L18.1836 12.5189C18.1836 12.5189 17.0221 12.5189 16.7776 13.4971C16.7776 13.4971 16.4108 12.8857 16.6553 12.5189C17.2055 12.3967 17.5112 12.3355 17.9391 12.2744Z" fill="white"/>
        <path d="M19.1617 12.5185H19.4063V12.2129C19.5285 12.2129 19.6508 12.274 19.7731 12.274C19.7731 12.274 20.1399 13.0687 20.4455 13.4355C20.4455 13.4355 20.4455 13.6189 20.3233 13.9246C20.3233 13.9246 20.1399 13.4355 19.7731 13.0688C19.7119 12.8854 19.5897 12.8242 19.1617 12.5185Z" fill="white"/>
        <path d="M18.1837 12.335H19.4675C19.8343 12.5795 20.0788 12.8852 20.0177 13.3742C20.0177 13.3742 19.712 12.9463 19.4064 12.7629C18.9173 13.0686 18.4282 12.7018 18.1837 12.335Z" fill="white"/>
        <path d="M18.1837 8.60495C18.2448 8.78834 18.0003 9.21626 17.878 9.39965C17.8169 9.21626 17.5112 8.78834 17.5112 8.60495C17.5112 8.42155 18.0614 8.60495 18.1837 8.60495Z" fill="white"/>
        <path d="M17.9391 9.95096V9.27852C17.7557 9.15626 17.5723 9.15625 17.45 9.15625C17.3278 9.15625 17.2055 9.27853 17.2666 9.40079C17.3278 9.52306 17.7557 10.2566 17.8168 10.3178C17.6945 10.0121 17.6945 10.0121 17.9391 9.95096Z" fill="white"/>
        <path d="M18.3671 9.95096V9.27852C18.5505 9.15626 18.7339 9.15625 18.8561 9.15625C18.9784 9.15625 19.0395 9.27853 19.0395 9.40079C18.9784 9.52306 18.5505 10.2566 18.4893 10.3178C18.6116 10.0121 18.6727 10.0121 18.3671 9.95096Z" fill="white"/>
        <path d="M18.6727 7.75117H18.3059V7.32324H18.0002V7.75117H17.6334V7.99572H18.0002V8.48476H18.3059V7.99572H18.6727V7.75117Z" fill="white"/>
        <path d="M14.2101 10.3793C14.2101 10.1347 14.2713 9.95137 14.2101 9.8291C13.9656 9.95137 13.7822 10.0125 13.4154 10.5627C13.4154 10.3793 14.0267 10.0125 14.2101 10.3793Z" fill="white"/>
        <path d="M14.7602 11.2957V10.7455C14.9436 10.3176 14.8214 9.76737 14.638 9.40058C14.4546 9.03379 14.3935 8.72812 14.3935 8.36133C14.3935 8.36133 14.0267 8.48361 13.8433 8.60587C13.7821 9.03379 14.0267 9.40056 14.1489 9.64508C14.2712 9.95074 14.2712 10.2564 14.2101 10.5009C14.3935 10.5621 14.5157 10.9289 14.7602 11.2957Z" fill="white"/>
        <path d="M14.7603 8.17741C14.7603 8.11628 15.3104 7.56607 15.7384 7.50494C16.044 7.44381 16.2274 7.56608 16.2886 7.62721C16.2886 7.62721 16.1052 7.62721 15.8606 7.8106C15.6161 7.994 15.3104 8.23855 15.0659 8.29969C14.9436 8.23855 14.8825 8.17741 14.7603 8.17741Z" fill="white"/>
        <path d="M16.3497 7.50586L16.4719 7.62813L16.5331 7.68928L16.5942 7.7504L16.6553 7.81152C16.6553 7.99491 16.4108 8.48399 16.2885 8.66738C16.1663 8.85078 15.9829 9.09531 16.044 9.40097C16.044 9.58437 16.1663 9.70664 16.2885 9.8289C16.2885 9.8289 15.6161 9.64549 15.555 9.2787C15.4938 8.91191 15.6161 8.66737 15.7384 8.42284C15.8606 8.23944 16.1663 7.81153 16.2274 7.62813C16.3497 7.75039 16.4108 7.62812 16.3497 7.50586Z" fill="white"/>
        <path d="M20.2621 12.1523L20.3232 12.3357L20.3843 12.3968L20.4455 12.458L20.5066 12.5191L20.5677 12.5803L20.6289 12.6414L20.69 12.7025L20.7511 12.7637L20.8123 12.8248L20.8734 12.8859L20.9345 12.9471L20.9957 13.0082L21.0568 13.0693L21.1179 13.1304L21.1791 13.1916C21.3625 13.4973 21.4847 14.0474 21.4847 14.2308C21.4847 14.2308 21.7904 13.5584 21.607 13.1304C21.1791 12.8859 20.8734 12.3969 20.2621 12.1523Z" fill="white"/>
        <path d="M20.9957 12.2744H21.4848C21.7293 12.4578 22.035 12.8246 22.0961 13.3136C22.0961 13.3136 21.607 13.2525 21.4237 13.008C21.3625 12.9468 21.118 12.6412 20.9957 12.2744Z" fill="white"/>
        <path d="M18.6727 13.1299H18.2448C18.2448 13.1299 18.6115 13.2522 18.7949 13.3744C18.9783 13.4967 19.1006 13.7412 19.1617 14.108C19.284 14.5971 19.5285 15.1473 19.6508 15.3307H19.7119C19.6508 14.9639 19.8953 14.2914 19.8953 14.1691C19.8953 14.1691 19.5897 13.9857 19.4674 13.7412C19.3451 13.6801 19.1617 13.4355 18.6727 13.1299Z" fill="white"/>
        <path d="M20.6901 14.168L20.7512 14.2902V14.3514L20.8123 14.4125L20.8735 14.4736V15.574C20.7512 16.0631 20.4456 16.2464 20.201 16.6744C20.201 16.6744 20.0176 15.9408 20.0788 15.3906C20.201 14.5959 20.3844 14.4125 20.6901 14.168Z" fill="white"/>
        <path d="M21.5459 14.2305L21.6071 14.3527V14.8418L21.6682 14.9029L21.7293 15.0252L21.7905 15.1474V15.6976C21.8516 16.0644 21.7905 16.2478 21.6071 16.4924C21.4237 16.6758 21.1791 16.9203 20.9346 17.3482C20.9346 17.3482 20.6901 16.9814 20.629 16.798C20.5678 16.6146 20.629 16.1256 20.6901 15.9422C21.118 15.4531 21.3625 14.8418 21.5459 14.2305Z" fill="white"/>
        <path d="M21.7904 16.9805L21.6681 17.1027H21.607V17.1639H21.5459L21.4847 17.225L21.4236 17.2861L21.3625 17.3473V17.4084L21.3013 17.4696V17.5307C21.2402 17.7141 21.1179 18.0809 21.3013 18.3254C21.4847 18.5699 21.8515 18.9367 22.1572 19.1201C22.1572 19.1201 21.7904 18.5699 21.8515 18.0809C21.8515 17.7752 22.096 17.5307 22.1572 17.3473C21.9126 17.5918 21.9126 17.2861 21.7904 16.9805Z" fill="white"/>
        <path d="M20.7511 16.6758L20.8123 16.7981V17.1037C20.8123 17.3482 20.8123 17.5928 20.6289 17.9596C20.4455 18.4486 20.1398 18.9988 20.0175 19.2433C20.0175 19.2433 19.773 18.8766 19.6508 18.5709C19.6508 18.5709 20.0175 18.0207 20.2009 17.6539C20.5677 17.4094 20.6289 16.9814 20.7511 16.6758Z" fill="white"/>
        <path d="M20.5678 16.4307V17.1031L20.5067 17.1643V17.2254L20.4455 17.3476L20.3844 17.4088L20.3233 17.531L20.2621 17.6533L20.201 17.7756L20.1399 17.8978L20.0787 18.0201L20.0176 18.1424L19.9565 18.2646L19.8953 18.3869L19.8342 18.5091L19.7731 18.5703L19.7119 18.6926L19.6508 18.8148C19.1618 19.4261 18.7338 19.6706 18.4893 19.6706C18.0614 19.6706 17.6946 19.3038 17.5112 18.9371C17.3889 18.5703 17.3889 17.9589 17.6946 17.7144C17.6946 17.7144 17.9391 18.448 18.4282 18.5091C19.0395 18.3869 19.7731 17.7144 20.5678 16.4307Z" fill="white"/>
        <path d="M19.9565 15.9424V16.8594C19.8954 17.1039 19.7731 17.4095 19.4675 17.5929C19.2229 17.7763 18.6116 17.7763 18.4282 17.2261C18.3671 17.2261 19.4675 17.2873 19.9565 15.9424Z" fill="white"/>
        <path d="M21.7293 20.9541L21.7905 21.0764V21.2598L21.8516 21.3209V21.382L21.9127 21.4432L21.9739 21.5043L22.035 21.5654L22.0961 21.6266L22.1573 21.6877H22.2184V21.9933C22.2184 22.7881 21.8516 23.216 21.7905 23.5216C21.7905 23.5216 21.1791 23.0326 21.0569 22.4824C21.1791 22.2379 21.2403 21.382 21.7293 20.9541Z" fill="white"/>
        <path d="M20.9958 21.5041V21.3818L21.0569 21.3207L21.118 21.2595L21.1792 21.1984L21.2403 21.1373C21.2403 21.1373 21.6071 20.1592 20.5067 19.5479C20.5067 19.5479 20.0788 20.1592 19.9565 20.7094C20.1399 20.6482 20.7513 21.015 20.9958 21.5041Z" fill="white"/>
        <path d="M19.6508 18.999L19.5286 19.1213L19.4674 19.1824L19.4063 19.2435L19.3452 19.3047L19.2841 19.3658L19.2229 19.4269L19.1618 19.4881L19.1007 19.5492C19.1007 19.5492 19.0395 19.9771 19.1007 20.2828C19.1618 20.7107 19.4674 21.1998 19.5897 21.5054C19.5897 21.5054 20.0788 20.8941 20.1399 20.5273C20.201 20.1605 20.201 19.8549 20.201 19.6715C20.0788 19.7326 19.7731 19.3047 19.6508 18.999Z" fill="white"/>
        <path d="M18.3671 21.1373L18.3059 21.015V20.526L18.2448 20.4648V20.4037L18.1837 20.2814L18.1225 20.1592L18.0614 20.0369V19.5479V19.6701V19.609C18.0614 19.609 18.6116 19.9146 19.0395 19.6701C19.0395 19.6701 19.1006 20.4037 18.9784 20.6482C18.6727 20.8316 18.6116 20.9539 18.3671 21.1373Z" fill="white"/>
        <path d="M18.4893 21.2613L18.6115 21.2002H18.7949C18.7949 21.2002 19.1617 21.8727 19.2228 22.0561C19.2228 22.0561 19.0394 22.1172 18.856 21.9338C18.7338 21.5059 18.6727 21.5058 18.4893 21.2613Z" fill="white"/>
        <path d="M20.1399 20.8936L20.0787 21.0158V21.1381L20.0176 21.1992V21.2603L19.9565 21.3215L19.8953 21.3826L19.8342 21.4438L19.7731 21.566L19.7119 21.6271L19.6508 21.6883V21.7494L19.5897 21.8105L19.5285 21.8716V21.9328H19.4674C19.4674 21.9328 19.5285 22.2385 19.7119 22.6664C19.8953 23.0943 20.201 23.3999 20.3844 23.5222C20.3844 23.5222 20.7512 22.9109 20.8734 22.6052C20.9957 22.2996 20.9957 21.9939 20.9346 21.8716C20.7512 21.6271 20.3233 21.2603 20.1399 20.8936Z" fill="white"/>
        <path d="M21.0568 22.9727L21.118 23.0949L21.1791 23.156L21.2402 23.2172L21.3013 23.2783L21.3625 23.3394L21.4236 23.4006L21.4847 23.4617V23.7062C21.5459 23.9507 21.4847 24.1953 21.4236 24.3787C21.3625 24.5621 21.118 24.9289 20.9346 25.1734C20.9346 25.1734 20.3844 24.6843 20.3232 24.3175C20.2621 24.073 20.2621 23.7062 20.3844 23.4006C20.6289 23.5228 20.9346 23.2172 21.0568 22.9727Z" fill="white"/>
        <path d="M19.5286 22.9111L19.6508 23.0334L19.712 23.0945L19.7731 23.1557L19.8342 23.2168L19.8954 23.2779L19.9565 23.3391L20.0176 23.4002L20.0788 23.4613C20.1399 23.767 20.201 23.9504 20.0176 24.3172C19.8954 24.6228 19.712 24.8062 19.6508 24.9896C19.6508 24.9896 19.2229 24.4394 19.1618 24.1949C19.1006 23.9504 19.0395 23.5836 19.1618 23.3391C19.284 23.4613 19.4063 23.1557 19.5286 22.9111Z" fill="white"/>
        <path d="M21.6682 25.0508L21.6071 25.1731L21.5459 25.2342L21.4848 25.2953L21.4237 25.3564L21.3625 25.4176L21.3014 25.4787L21.2403 25.5398L21.1791 25.601L21.118 25.6621L21.0569 25.7233L20.9957 25.7844L20.9346 25.8455L20.8735 25.9066L20.8124 25.9678L20.7512 26.0289V26.4568C20.7512 27.0681 21.1791 27.4349 21.2403 27.8017C21.2403 27.8017 21.6071 27.3738 21.7905 27.0681C21.9739 26.7625 22.0961 26.4568 22.035 26.09C22.0961 25.6621 22.035 25.4176 21.6682 25.0508Z" fill="white"/>
        <path d="M20.2621 24.9277L20.3233 25.05V25.1723L20.3844 25.2334V26.0893C20.2621 26.456 19.8953 26.884 19.8342 27.1285C19.8342 27.1285 19.5285 26.5172 19.4674 26.2726C19.6508 25.9059 19.7119 25.4779 20.2621 24.9277Z" fill="white"/>
        <path d="M27.659 10.2564L27.5368 10.1953H26.7421H26.8643C26.4364 10.1953 26.1307 10.2565 26.1307 10.3176C26.1307 10.3787 26.4975 10.4399 26.8643 10.4399C27.2922 10.4399 27.659 10.3787 27.659 10.2564Z" fill="white"/>
        <path d="M22.5241 7.99569V7.44549L22.5852 7.32322L22.6463 7.20095L22.7075 7.07872L22.7686 6.95644L22.8297 6.83417V6.22285C22.8297 5.97833 22.6463 5.79492 22.4018 5.79492C22.1573 5.79492 21.9739 5.97833 21.9739 6.22285C22.0961 6.95644 22.4629 7.6289 22.5241 7.99569Z" fill="white"/>
        <path d="M23.7466 8.72823L23.8077 8.606L23.8689 8.54485L23.93 8.48373L23.9911 8.42257L24.0523 8.36146L24.1134 8.30034L24.1745 8.23919L24.2356 8.17807L24.2968 8.11691V8.0558L24.3579 7.99468V7.93353L24.419 7.87241V7.01655C24.419 6.89428 24.2356 6.77202 24.1134 6.71089C23.93 6.64976 23.8077 6.64976 23.6855 6.71089C23.5021 6.89428 23.3187 8.11694 23.1964 8.606C23.4409 8.54487 23.5632 8.60597 23.7466 8.72823Z" fill="white"/>
        <path d="M23.0743 8.48357H22.6464C22.7075 7.99451 22.8909 7.13866 22.952 6.833C23.0743 6.52734 23.1965 6.28281 23.3799 6.22168C23.3799 6.22168 23.1966 6.6496 23.1354 7.13866C23.1966 7.62772 23.1354 8.05565 23.0743 8.48357Z" fill="white"/>
        <path d="M23.4409 9.58301L23.5632 9.64413H24.6636C24.2968 10.1332 24.1134 9.70527 23.4409 9.58301Z" fill="white"/>
        <path d="M23.0742 9.40039H24.847C25.2138 9.64492 25.3361 9.88945 25.4584 10.134C25.4584 10.134 24.7859 10.1951 24.1746 9.82832C23.3799 9.95059 23.1354 9.58379 23.0742 9.40039Z" fill="white"/>
        <path d="M23.8078 10.4393C23.8078 10.4393 23.869 10.7449 24.2357 10.8672C24.2357 10.8672 24.0524 10.8672 23.869 11.0506C23.869 11.0506 23.9912 11.2951 24.2969 11.4174C24.2969 11.4174 23.7467 11.9676 23.1354 11.9676C23.1354 11.9676 23.441 12.3344 24.0524 12.2121C24.6637 12.0898 24.8471 11.723 24.9693 11.6008C24.9693 11.6008 24.9082 11.9064 24.9082 12.0898C24.9082 12.0898 25.1527 12.0898 25.3973 11.7842C25.3973 11.7842 25.2139 12.0287 25.2139 12.2732C25.2139 12.2732 25.3973 12.2732 25.7029 12.0898C25.7029 12.0898 25.6418 12.2732 25.6418 12.4566C25.6418 12.4566 26.3754 12.2121 26.7422 11.9064V11.9676C26.7422 11.9676 27.8425 11.8453 27.9037 10.2559C27.9037 10.2559 27.1701 10.5004 26.4365 10.5004C25.5806 10.6838 24.2357 10.6227 23.8078 10.4393ZM25.8863 11.0506C26.4365 11.1117 27.1701 11.1117 27.1701 11.1117V11.3563C26.8644 11.1117 25.8863 11.1117 25.8863 11.0506Z" fill="white"/>
        <path d="M27.9647 10.5617V11.5399C27.9647 11.5399 28.3926 11.2342 28.5149 10.9285C28.3926 10.6229 28.4538 10.4395 27.9647 10.5617Z" fill="white"/>
        <path d="M28.9428 10.8672H28.8205C28.6371 11.3562 28.0869 11.5397 27.8424 11.6619C27.5368 11.7842 27.2922 12.151 27.2922 12.151C27.7202 12.2732 27.9647 12.3344 27.9647 12.3344C28.8205 11.723 29.493 12.3344 29.493 12.3344C29.982 12.0898 30.0432 11.4174 29.7986 11.1117L29.7375 11.0506V10.9895H28.8817L28.9428 10.8672ZM28.8817 11.5397C28.9428 11.6619 28.8205 11.723 28.7594 11.723C28.6371 11.723 28.576 11.6008 28.576 11.5397C28.6983 11.6008 28.7594 11.5397 28.8817 11.5397Z" fill="white"/>
        <path d="M27.1701 12.2744L27.0478 12.3966L26.9867 12.4578L26.9255 12.5189C26.9255 12.5189 28.087 12.5189 28.3316 13.4971C28.3316 13.4971 28.6984 12.8857 28.4538 12.5189C27.8425 12.3967 27.5369 12.3355 27.1701 12.2744Z" fill="white"/>
        <path d="M25.8862 12.5185H25.6417V12.2129C25.5194 12.2129 25.3971 12.274 25.2749 12.274C25.2749 12.274 24.9081 13.0687 24.6024 13.4355C24.6024 13.4355 24.6024 13.6189 24.7247 13.9246C24.7247 13.9246 24.9081 13.4355 25.2749 13.0688C25.336 12.8854 25.4583 12.8242 25.8862 12.5185Z" fill="white"/>
        <path d="M26.8643 12.335H25.5805C25.2138 12.5795 24.9692 12.8852 25.0304 13.3742C25.0304 13.3742 25.336 12.9463 25.6417 12.7629C26.1919 13.0686 26.6198 12.7018 26.8643 12.335Z" fill="white"/>
        <path d="M26.8644 8.60495C26.8033 8.78834 27.0478 9.21626 27.17 9.39965C27.2312 9.21626 27.5368 8.78834 27.5368 8.60495C27.5368 8.42155 27.0478 8.60495 26.8644 8.60495Z" fill="white"/>
        <path d="M27.109 9.95096V9.27852C27.2313 9.15626 27.4758 9.15625 27.5981 9.15625C27.7203 9.15625 27.7815 9.27853 27.7815 9.40079C27.7203 9.52306 27.2924 10.2566 27.2313 10.3178C27.3535 10.0121 27.3535 10.0121 27.109 9.95096Z" fill="white"/>
        <path d="M26.6809 9.95096V9.27852C26.5586 9.15626 26.3141 9.15625 26.1918 9.15625C26.0696 9.15625 26.0084 9.27853 26.0084 9.40079C26.0696 9.52306 26.4975 10.2566 26.5586 10.3178C26.4363 10.0121 26.4363 10.0121 26.6809 9.95096Z" fill="white"/>
        <path d="M26.3754 7.75117H26.7422V7.32324H27.0478V7.75117H27.4146V7.99572H27.0478V8.48476H26.7422V7.99572H26.3754V7.75117Z" fill="white"/>
        <path d="M21.9739 5.36539H22.3407V4.9375H22.6463V5.36539H23.0131V5.60994H22.6463V6.09899H22.3407V5.60994H21.9739V5.36539Z" fill="white"/>
        <path d="M30.838 10.3793C30.7768 10.1347 30.7768 9.95137 30.838 9.8291C31.0825 9.95137 31.2659 10.0125 31.6327 10.5627C31.6327 10.3793 31.0214 10.0125 30.838 10.3793Z" fill="white"/>
        <path d="M30.3489 11.2957V10.7455C30.2266 10.3176 30.2878 9.76737 30.4712 9.40058C30.6545 9.03379 30.7157 8.72812 30.7157 8.36133C30.7157 8.36133 31.0825 8.48361 31.2659 8.60587C31.327 9.03379 31.0825 9.40056 30.9602 9.64508C30.8379 9.95074 30.8379 10.2564 30.8991 10.5009C30.6545 10.5621 30.5934 10.9289 30.3489 11.2957Z" fill="white"/>
        <path d="M30.2878 8.17741C30.2878 8.11628 29.7376 7.56607 29.3097 7.50494C29.0041 7.44381 28.8207 7.56608 28.7595 7.62721C28.7595 7.62721 28.9429 7.62721 29.1874 7.8106C29.432 7.994 29.7376 8.23855 29.9822 8.29969C30.1044 8.23855 30.1656 8.17741 30.2878 8.17741Z" fill="white"/>
        <path d="M28.6984 7.50586L28.5761 7.62813L28.515 7.68928L28.4538 7.7504L28.3927 7.81152C28.3927 7.99491 28.6372 8.48399 28.7595 8.66738C28.8818 8.85078 29.0652 9.09531 29.004 9.40097C29.004 9.58437 28.8818 9.70664 28.7595 9.8289C28.7595 9.8289 29.4319 9.64549 29.4931 9.2787C29.5542 8.91191 29.4319 8.66737 29.3097 8.42284C29.1874 8.23944 28.8818 7.81153 28.8206 7.62813C28.6984 7.75039 28.6372 7.62812 28.6984 7.50586Z" fill="white"/>
        <path d="M24.7858 12.1523L24.6636 12.3357V12.3968L24.6025 12.458L24.5413 12.5191L24.4802 12.5803L24.4191 12.6414L24.3579 12.7025L24.2968 12.7637L24.2357 12.8248L24.1745 12.8859L24.1134 12.9471L24.0523 13.0082L23.9911 13.0693L23.93 13.1304L23.8689 13.1916C23.6855 13.4973 23.5021 14.0474 23.5632 14.2308C23.5632 14.2308 23.2576 13.5584 23.3798 13.1304C23.8689 12.8859 24.2357 12.3969 24.7858 12.1523Z" fill="white"/>
        <path d="M24.0523 12.2744H23.3799C23.1353 12.4578 22.8297 12.8246 22.7686 13.3136C22.7686 13.3136 23.2576 13.2525 23.441 13.008C23.6855 12.9468 23.9301 12.6412 24.0523 12.2744Z" fill="white"/>
        <path d="M26.4365 13.1299H26.8032C26.8032 13.1299 26.4365 13.2522 26.1919 13.3744C26.0085 13.4967 25.8863 13.7412 25.8251 14.108C25.7029 14.5971 25.4583 15.1473 25.3361 15.3307H25.2749C25.3361 14.9639 25.0916 14.2914 25.0916 14.1691C25.0916 14.1691 25.3972 13.9857 25.5195 13.7412C25.7029 13.6801 25.8863 13.4355 26.4365 13.1299Z" fill="white"/>
        <path d="M24.4191 14.168L24.358 14.2902V14.3514L24.2968 14.4125L24.2357 14.4736V15.574C24.358 16.0631 24.7248 16.2464 24.9082 16.6744C24.9082 16.6744 25.0916 15.9408 25.0304 15.3906C24.847 14.5959 24.6636 14.4125 24.4191 14.168Z" fill="white"/>
        <path d="M22.5241 15.514V15.0861L22.5852 15.025L22.6463 14.9638L22.7075 14.9027V14.8416L22.7686 14.7193L22.8297 14.5971L22.8909 14.5359L22.952 14.4748V14.4137L23.0131 14.3525V13.8024C22.952 13.4356 22.5241 13.191 22.3407 13.1299C22.2184 13.191 21.7293 13.4356 21.6682 13.8024C21.6071 14.1691 22.5241 15.2695 22.5241 15.514Z" fill="white"/>
        <path d="M23.5021 14.2305L23.4409 14.3527V14.9029L23.3798 15.0252L23.3187 15.1474V15.6976C23.2575 16.0644 23.3187 16.2478 23.4409 16.4924C23.6243 16.6758 23.8688 16.9203 24.1134 17.3482C24.1134 17.3482 24.419 16.9814 24.419 16.798C24.4802 16.6146 24.419 16.1256 24.3579 15.9422C23.9911 15.4531 23.7466 14.8418 23.5021 14.2305Z" fill="white"/>
        <path d="M22.524 17.5926L22.6463 17.4703L22.7074 17.4092L22.7685 17.348L22.8297 17.2869L22.8908 17.2258L22.9519 17.1647V17.1035L23.0131 17.0424C23.0742 16.859 23.0742 16.6756 22.9519 16.4922C22.7685 16.3088 22.5851 16.0643 22.5851 15.8809C22.5851 16.0643 22.4018 16.3088 22.2184 16.4922C22.0961 16.6756 22.0961 16.9201 22.1572 17.0424C22.1572 17.1646 22.3406 17.4092 22.524 17.5926Z" fill="white"/>
        <path d="M23.3187 16.9805L23.441 17.0416V17.1027H23.5021L23.5633 17.1639L23.6244 17.225L23.6855 17.2861L23.7467 17.3473L23.8078 17.4084V17.4696L23.8689 17.5307C23.9301 17.7141 24.0523 18.0809 23.9301 18.3254C23.7467 18.5699 23.3799 18.9367 23.0742 19.1201C23.0742 19.1201 23.441 18.5699 23.3799 18.0809C23.3799 17.7752 23.1354 17.5307 23.0742 17.3473C23.1354 17.5918 23.1354 17.2861 23.3187 16.9805Z" fill="white"/>
        <path d="M24.2968 16.6758L24.2357 16.7981V17.1037C24.2357 17.3482 24.2968 17.5928 24.4191 17.9596C24.6025 18.4486 24.847 18.9988 25.0304 19.2433C25.0304 19.2433 25.275 18.8766 25.3972 18.5709C25.3972 18.5709 25.0304 18.0207 24.847 17.6539C24.4802 17.4094 24.4191 16.9814 24.2968 16.6758Z" fill="white"/>
        <path d="M24.4802 16.4307V17.1643L24.5414 17.2254L24.6025 17.3476L24.6636 17.4088L24.7248 17.531L24.7859 17.6533L24.847 17.7756L24.9081 17.8978L24.9693 18.0201L25.0304 18.1424L25.0915 18.2646L25.1527 18.3869L25.2138 18.5091L25.2749 18.5703L25.3361 18.6926L25.3972 18.8148C25.8863 19.4261 26.3142 19.6706 26.5587 19.6706C26.9866 19.6706 27.3534 19.3038 27.5368 18.9371C27.6591 18.5703 27.6591 17.9589 27.3534 17.7144C27.3534 17.7144 27.1089 18.448 26.5587 18.5091C26.0085 18.3869 25.2749 17.7144 24.4802 16.4307Z" fill="white"/>
        <path d="M25.0916 15.9424V16.7982C25.1527 17.0427 25.2749 17.3484 25.5806 17.5318C25.8251 17.7152 26.4365 17.7152 26.6199 17.165C26.681 17.2262 25.5806 17.2873 25.0916 15.9424Z" fill="white"/>
        <path d="M22.5239 19.609L22.6462 19.5478C22.7685 19.3644 22.8907 18.9365 22.8296 18.692C22.7073 18.3863 22.5239 18.2029 22.4628 18.0195C22.4017 18.0807 22.3405 18.1418 22.2183 18.2029C22.096 18.1418 22.0349 18.0807 21.9737 18.0195C21.8515 18.2029 21.6681 18.3863 21.607 18.692C21.5458 18.9977 21.6681 19.3644 21.7904 19.5478C22.2183 19.4867 22.4017 19.5478 22.5239 19.609Z" fill="white"/>
        <path d="M22.5241 21.7494L22.5852 21.6271V21.3826L22.6464 21.3215L22.7075 21.2603L22.7686 21.1992L22.8297 21.1381L22.8909 21.0769L22.952 20.9546L23.0131 20.8324L23.0743 20.7101L23.1354 20.649L23.1965 20.5879L23.2577 20.5268V19.9766C23.1354 19.4264 22.8297 19.5486 22.5852 19.3652C22.3407 19.5486 21.9739 19.4875 21.9128 19.9766C21.7905 20.7713 22.463 21.3826 22.5241 21.7494Z" fill="white"/>
        <path d="M23.3799 20.9541V21.382L23.3187 21.4432L23.2576 21.5043L23.1965 21.5654L23.1353 21.6266L23.0742 21.6877L23.0131 21.7488V21.9933C23.0131 22.7881 23.3799 23.216 23.441 23.5216C23.441 23.5216 24.0523 23.0326 24.1746 22.4824C23.93 22.2379 23.8689 21.382 23.3799 20.9541Z" fill="white"/>
        <path d="M24.0522 21.5041V21.3818L23.9911 21.3207L23.9299 21.2595L23.8688 21.1984L23.8077 21.1373H23.7466C23.7466 21.1373 23.3798 20.1592 24.4801 19.5479C24.4801 19.5479 24.9081 20.1592 25.0303 20.7094C24.9081 20.6482 24.3579 21.015 24.0522 21.5041Z" fill="white"/>
        <path d="M25.3973 18.999L25.5195 19.1213L25.5807 19.1824L25.6418 19.2435L25.7029 19.3047L25.764 19.3658L25.8252 19.4269L25.8863 19.4881L25.9474 19.5492C25.9474 19.5492 26.0086 19.9771 26.0086 20.2828C25.9474 20.7107 25.6418 21.1998 25.5195 21.5054C25.5195 21.5054 25.0305 20.8941 24.9693 20.5273C24.9082 20.1605 24.9082 19.8549 24.9082 19.6715C25.0305 19.7326 25.275 19.3047 25.3973 18.999Z" fill="white"/>
        <path d="M26.6811 21.1373L26.7422 21.015V20.7094L26.8033 20.6482V20.4037L26.8645 20.2814L26.9256 20.1592L26.9867 20.0369V19.5479V19.6701V19.609C26.9867 19.609 26.4365 19.9146 26.0086 19.6701C26.0086 19.6701 25.9475 20.4037 26.0086 20.6482C26.3754 20.8316 26.4365 20.9539 26.6811 21.1373Z" fill="white"/>
        <path d="M26.5587 21.2613L26.4364 21.2002H26.3142C26.3142 21.2002 25.9474 21.8727 25.8862 22.0561C25.8862 22.0561 26.0696 22.1172 26.253 21.9338C26.3142 21.5059 26.3753 21.5058 26.5587 21.2613Z" fill="white"/>
        <path d="M24.9081 20.8936L24.9692 21.0158V21.0769L25.0304 21.1381V21.1992L25.0915 21.2603L25.1526 21.3215V21.3826L25.2138 21.4438L25.2749 21.566L25.336 21.6271L25.3972 21.6883L25.4583 21.7494V21.8105L25.5194 21.8716V21.9328H25.5806C25.5806 21.9328 25.5194 22.2385 25.336 22.6664C25.0915 23.0943 24.847 23.3999 24.6636 23.5222C24.6636 23.5222 24.2968 22.9109 24.1745 22.6052C24.0523 22.2996 24.0523 21.9939 24.1134 21.8716C24.2968 21.6271 24.7247 21.2603 24.9081 20.8936Z" fill="white"/>
        <path d="M22.5239 25.6624L22.5851 25.5402L22.6462 25.4791L22.7073 25.4179L22.7685 25.3568L22.8296 25.2957L22.8907 25.2345V25.1123C22.9519 24.8678 22.9519 24.6232 22.8907 24.4398C22.7685 24.2564 22.4017 23.7062 22.4017 23.584C22.3405 23.7062 21.9738 24.2564 21.9126 24.4398C21.7904 24.6232 21.7904 24.8678 21.9126 25.1123C22.1572 25.1734 22.4628 25.4179 22.5239 25.6624Z" fill="white"/>
        <path d="M24.0523 22.9727L23.9912 23.0949L23.8078 23.3394L23.7467 23.4005L23.6855 23.4617L23.6244 23.5228L23.5633 23.584L23.5021 23.6451V23.8896C23.441 24.1342 23.5021 24.3787 23.5633 24.5621C23.6244 24.7455 23.8689 25.1122 24.0523 25.3568C24.0523 25.3568 24.6025 24.8677 24.7248 24.501C24.7859 24.2564 24.7859 23.8896 24.6636 23.584C24.4191 23.5228 24.1746 23.2172 24.0523 22.9727Z" fill="white"/>
        <path d="M25.5195 22.9111L25.3973 23.0334L25.3361 23.0945L25.275 23.1557L25.2139 23.2168L25.1527 23.2779L25.0916 23.3391L25.0305 23.4002L24.9693 23.4613C24.9082 23.767 24.8471 23.9504 25.0305 24.3172C25.1527 24.6228 25.3361 24.8062 25.3973 24.9896C25.3973 24.9896 25.8252 24.4394 25.8863 24.1949C25.9474 23.9504 26.0086 23.5836 25.8863 23.3391C25.764 23.4613 25.6418 23.1557 25.5195 22.9111Z" fill="white"/>
        <path d="M22.524 29.8806V29.2693L22.5852 29.2081V29.147L22.6463 29.0859V29.0247L22.7074 28.9636L22.7686 28.9025V28.7802L22.8297 28.7191V28.0467C22.8297 27.6187 22.4629 26.8852 22.2184 26.6406C21.9739 26.8852 21.6071 27.6187 21.6071 28.0467C21.9739 28.7802 22.524 29.6361 22.524 29.8806Z" fill="white"/>
        <path d="M23.441 25.0508L23.5632 25.1119V25.1731L23.6244 25.2342L23.6855 25.2953L23.7466 25.3564L23.8078 25.4176L23.8689 25.4787L23.93 25.5398L23.9912 25.601L24.0523 25.6621L24.1134 25.7233L24.1746 25.7844L24.2357 25.8455L24.2968 25.9066L24.358 25.9678V26.0289L24.4191 26.09V26.4568C24.4191 27.0681 23.9912 27.4349 23.93 27.8017C23.93 27.8017 23.5632 27.3738 23.3798 27.0681C23.1965 26.7625 23.0742 26.4568 23.1353 26.09C22.9519 25.6621 23.0131 25.4176 23.441 25.0508Z" fill="white"/>
        <path d="M24.7858 24.9277L24.7247 25.05V25.1723L24.6636 25.2334V26.0893C24.7247 26.456 25.0915 26.884 25.2138 27.1285C25.2138 27.1285 25.5194 26.5172 25.5806 26.2726C25.3972 25.9059 25.336 25.4779 24.7858 24.9277Z" fill="white"/>
        <path d="M23.0131 31.2861V30.4302L23.0743 30.308L23.1354 30.2468L23.1965 30.1857L23.2577 30.1246L23.3188 30.0635V29.7578C23.3799 29.3299 23.3799 28.9631 23.0743 28.5352C22.8297 29.391 22.5852 30.0023 22.3407 30.4302C22.1573 30.0023 21.8516 29.391 21.6071 28.5352C21.3014 29.0242 21.2403 29.391 21.3626 29.7578C21.4237 30.1246 21.8516 30.5525 21.8516 31.225C21.9128 31.8974 21.118 32.2031 21.118 32.2031C21.3626 32.3253 21.6682 32.3253 22.1573 31.8974C22.2184 31.8363 22.3407 31.714 22.3407 31.6529C22.4018 31.7751 22.4629 31.8363 22.5241 31.8974C23.0131 32.3253 23.3188 32.3253 23.5633 32.2031C23.7467 32.2642 23.0131 32.0197 23.0131 31.2861Z" fill="white"/>
        <path d="M20.5678 26.7012L20.629 26.8234L20.6901 26.8846L20.7512 26.9457V27.0068L20.8124 27.0679C20.8735 27.3736 20.8124 27.6793 20.3233 28.0461C20.3233 28.0461 20.0176 27.8015 19.8954 27.4959C19.7731 27.1902 19.8342 27.0068 19.9565 26.8846C20.1399 27.2514 20.4456 26.9457 20.5678 26.7012Z" fill="white"/>
        <path d="M21.607 27.7402V28.5961L21.5459 28.7183V29.3297C21.2402 29.8798 20.7512 30.3078 20.3844 30.3078C20.0176 30.3078 19.9565 30.0633 19.7731 30.0021C19.7731 30.0021 19.8953 29.5131 20.2621 29.3908C20.5067 28.9018 21.3014 28.2904 21.607 27.7402Z" fill="white"/>
        <path d="M20.3232 28.7187C20.2621 28.6576 19.8953 28.7798 19.5285 29.0244C19.2228 29.2689 18.856 29.6357 18.7338 29.8191C18.7338 29.8191 19.2228 29.9413 19.5285 29.8191C19.5285 29.8191 19.6507 29.33 20.0175 29.1466C19.8341 28.9021 20.0787 28.841 20.3232 28.7187Z" fill="white"/>
        <path d="M19.8954 28.3516C19.8343 28.2905 19.1618 28.7184 18.9173 28.9018L18.1837 29.6354C18.1837 29.6354 18.6728 29.5131 19.1007 29.3909C19.4064 28.5962 19.712 28.4128 19.8954 28.3516Z" fill="white"/>
        <path d="M18.7338 29.0859H16.8387C16.4719 29.2082 16.2274 29.3916 15.9218 29.6973C15.9218 29.6973 16.4108 29.8195 16.7165 29.9418C16.7165 29.9418 17.1444 29.6361 17.6334 29.4527C18.2448 29.6972 18.367 29.3916 18.7338 29.0859Z" fill="white"/>
        <path d="M17.9391 31.5312C17.9391 31.3478 17.6335 31.1644 17.4501 31.0422C17.1444 30.9199 16.3497 30.6754 16.044 30.6143C16.044 30.6143 15.9218 30.7977 15.8607 30.9199C15.7995 30.9811 15.8607 31.0422 15.9829 31.0422C16.2274 31.1033 16.7776 30.981 16.8999 31.0422C17.0222 31.1644 17.0222 31.2867 17.0222 31.409C17.0222 31.409 17.2667 31.2256 17.4501 31.2867C17.6946 31.0422 17.8169 31.1644 17.9391 31.5312Z" fill="white"/>
        <path d="M17.2054 30.3686H17.8779C17.8779 30.3686 18.0002 30.3074 18.0613 30.1852C18.1224 30.0629 18.4281 29.635 18.6726 29.5738C18.6726 29.5738 18.4281 29.5738 18.3058 29.5127C18.3058 29.5127 18.0613 29.5739 17.8168 29.6961C17.7556 30.0629 17.5111 30.1852 17.2054 30.3686Z" fill="white"/>
        <path d="M19.3452 29.8799C19.2841 29.8799 18.5505 30.3689 18.4893 30.858C18.4282 31.2859 18.6727 31.4693 18.7339 31.5305C18.8561 31.5916 19.3452 31.775 19.712 31.1025C19.712 31.1025 19.1618 31.2859 18.9784 31.0414C18.8561 30.7357 19.1007 30.3689 19.2229 30.2467C19.4063 30.0633 19.7731 30.0021 20.0176 30.0633C19.712 30.1244 19.5286 29.941 19.3452 29.8799Z" fill="white"/>
        <path d="M14.5768 35.6259L14.6379 35.5037L14.6991 35.3814L14.7602 35.2591V34.8924L14.8213 34.8312V34.7701L14.8825 34.7089L14.9436 34.6478C15.2493 33.9754 16.1051 32.0803 17.7557 31.7746C17.9391 31.7135 17.5723 31.3467 17.3889 31.3467C17.2055 31.3467 16.961 31.5301 16.8387 31.6523V31.1633C16.8387 31.1022 16.7776 31.041 16.7164 31.041C16.6553 31.041 16.2274 31.041 16.1051 31.2244C15.7383 31.6524 15.0659 32.875 14.6991 33.7308C14.3323 34.5867 14.0878 34.8924 13.6598 34.7701C13.293 34.6478 13.0485 34.1588 12.3761 34.3422C12.1315 34.4033 11.887 34.5256 11.7036 34.7701C11.7647 34.8924 11.8259 35.0146 12.1315 35.0146C12.4372 35.0146 13.0485 35.1369 13.3542 35.3814C13.721 35.5037 14.0878 35.5648 14.5768 35.6259Z" fill="white"/>
        <path d="M21.3013 29.8799V30.5523L21.3625 30.6135V30.6746L21.4236 30.7357V30.7969L21.4847 30.858C21.4847 30.858 20.9957 33.2421 19.1006 33.4255C19.1006 33.4255 19.1617 32.9365 19.6508 32.5697C20.201 32.2029 20.9957 31.5916 20.9345 30.7357C20.9345 30.7357 20.8123 30.7357 20.5066 31.1025C20.201 31.4693 19.6508 32.3863 18.7949 32.3863C18.7949 32.3863 18.9172 31.9583 19.3451 31.6527C19.7119 31.4082 20.2621 31.0414 20.4455 30.6746C20.8734 30.1244 21.1179 29.941 21.3013 29.8799Z" fill="white"/>
        <path d="M20.4456 38.4988L21.5459 40.0883L22.4018 38.56L22.0961 38.0098C21.8516 38.4377 21.6071 38.8656 21.4848 39.1101L20.7512 38.0098L20.4456 38.4988Z" fill="white"/>
        <path d="M20.1399 37.155L19.9565 36.8493L19.712 36.5437L19.5286 36.238L19.2841 35.9324L19.1007 35.6879L18.8561 35.3822L18.795 35.2599L18.6727 35.0765L18.5505 34.9543L18.4894 34.832L18.3671 34.7097L18.306 34.5875L18.2448 34.4652L18.1226 34.343L18.0614 34.2207L18.0003 34.1596L17.9392 34.0373L17.878 33.9762L17.8169 33.8539L17.7558 33.7928L17.6946 33.7316L17.6335 33.6705V33.6094L17.5724 33.5482V33.4871L18.0003 33.1814L16.6554 32.6924V34.1596L17.0833 33.8539L19.8343 37.6441L20.1399 37.155Z" fill="white"/>
        <path d="M10.8478 28.5347L10.97 28.4736H12.0704L12.1315 28.5347H12.1927L12.2538 28.5959L12.3149 28.657L12.3761 28.7181L12.4372 28.7793L12.1927 28.8404L12.2538 28.9015L12.3149 28.9627L12.3761 29.0238C12.9263 29.5129 13.2931 30.063 12.9874 30.4298C12.6817 30.7355 12.0704 30.491 11.5202 29.9408C10.9089 29.3906 10.5421 28.9015 10.8478 28.5347Z" fill="white"/>
        <path d="M11.7648 34.9544C11.398 34.6488 11.2146 34.2208 11.2146 33.7929C11.2146 32.9371 11.8871 32.2646 12.7429 32.2646C13.5987 32.2646 14.2712 32.9371 14.2712 33.7929V34.0986C14.3323 33.9763 14.5769 33.365 14.638 33.3039C14.3935 32.448 13.6599 31.8367 12.7429 31.8367C11.9482 31.8367 11.2757 32.2646 10.9701 32.9371C11.0923 32.1424 11.4591 31.4699 11.7648 31.2254C12.0704 30.9197 12.6818 30.7975 12.6818 30.7975C12.315 30.8586 11.8259 30.614 11.2757 30.125C10.7867 29.6359 10.481 29.208 10.481 28.9023C10.481 29.3914 10.481 29.6359 10.3588 30.0639C10.1754 30.6141 9.62517 31.5922 9.8697 32.6925C9.99196 33.3039 10.4199 34.2208 11.1535 34.9544C11.3369 35.1378 11.3369 35.3824 11.398 35.5046H12.7429C12.7429 35.5046 12.9874 35.5046 12.9874 35.3212C12.9874 35.1378 12.8652 35.1378 12.7429 35.1378C12.6206 35.1378 12.0704 35.1378 11.7648 34.9544Z" fill="white"/>
        <path d="M17.8779 35.3203L17.7556 35.3815L17.6334 35.4426L17.5111 35.5037L17.3888 35.5649L17.2666 35.626L17.0832 35.5649H16.3496L16.1051 35.626L15.8605 35.6871C15.4326 35.7483 15.0047 35.8094 14.5768 35.7482C14.5768 35.8094 14.5768 35.9317 14.5156 35.9928C14.5156 35.9928 14.5768 36.115 14.5768 36.1762C15.0047 36.1762 15.4326 36.1762 15.8605 36.1151C16.5941 35.9928 17.3888 35.8705 18.1224 35.5649L17.8779 35.3203Z" fill="white"/>
        <path d="M19.0394 35.259L19.2228 35.1367L19.4062 35.0144L19.5896 34.8922L19.773 34.7699L19.9564 34.6476L20.1398 34.5254L20.3232 34.4031L20.5066 34.2197L20.69 34.0363L20.8734 33.8529L21.0568 33.6695L21.2401 33.4861L21.4235 33.3027L21.6069 33.1193L21.7903 32.8748L21.8515 32.7526L21.9126 32.6303L22.0349 32.3857C21.7903 32.508 21.5458 32.3857 21.5458 32.3857C21.5458 32.3857 21.4847 32.4469 21.4847 32.508C20.7511 33.6695 19.8952 34.342 18.9783 34.831L19.0394 35.259Z" fill="white"/>
        <path d="M12.8652 35.626H12.4372C12.1316 35.6871 11.8259 35.7483 11.8259 35.8705C11.8259 35.9928 11.8871 36.1762 12.0093 36.3596C12.1316 36.4818 12.315 36.4207 12.4372 36.3596C12.5595 36.2984 13.1708 35.9928 13.2931 35.8705C12.9874 35.8705 13.0486 35.6871 12.8652 35.626Z" fill="white"/>
        <path d="M13.4765 36.0547C13.232 36.0547 12.6206 36.4215 12.5595 36.6049C12.4984 36.7883 12.6206 36.8494 12.6818 36.9105C12.7429 36.9717 12.8652 36.9717 12.9874 36.9717C13.1708 36.9717 13.2931 36.9105 13.3542 36.7883C13.4154 36.666 13.721 36.3603 13.7822 36.2381C13.5376 36.2381 13.5376 36.1158 13.4765 36.0547Z" fill="white"/>
        <path d="M13.5987 36.4828L13.5376 36.6051V36.6662C13.5376 36.7273 13.5376 36.7885 13.6599 36.7885C13.721 36.7885 14.1489 36.7273 14.4546 36.5439C14.6991 36.3605 14.8825 36.0549 14.6991 35.9326C14.1489 36.116 13.8433 36.1772 13.5987 36.4828Z" fill="white"/>
        <path d="M13.721 35.5039C13.5376 35.6262 13.6599 35.8095 13.9044 35.9318C14.1489 36.0541 14.638 36.1763 14.6991 36.0541C14.3934 35.8707 14.2712 35.6873 13.721 35.5039Z" fill="white"/>
        <path d="M24.4803 26.7012L24.4191 26.8234L24.358 26.8846V26.9457L24.2969 27.0068L24.2357 27.0679C24.1746 27.3736 24.2357 27.6793 24.7248 28.0461C24.7248 28.0461 25.0305 27.8015 25.1527 27.4959C25.275 27.1902 25.2139 27.0068 25.0916 26.8846C24.9082 27.2514 24.6025 26.9457 24.4803 26.7012Z" fill="white"/>
        <path d="M23.4409 27.7402V29.3297C23.7466 29.8798 24.2356 30.3078 24.6024 30.3078C24.9692 30.3078 25.0303 30.0633 25.2137 30.0021C25.2137 30.0021 25.0915 29.5131 24.7247 29.3908C24.5413 28.9018 23.7466 28.2904 23.4409 27.7402Z" fill="white"/>
        <path d="M24.7859 28.7187C24.847 28.6576 25.2749 28.7798 25.5806 29.0244C25.8863 29.2689 26.2531 29.6357 26.3753 29.8191C26.3753 29.8191 25.8863 29.9413 25.5806 29.8191C25.5806 29.8191 25.4583 29.33 25.0915 29.1466C25.2138 28.9021 24.9693 28.841 24.7859 28.7187Z" fill="white"/>
        <path d="M25.1527 28.3516C25.2138 28.2905 25.8863 28.7184 26.1308 28.9018L26.8644 29.6354C26.8644 29.6354 26.3753 29.5131 25.9474 29.3909C25.6418 28.5962 25.3361 28.4128 25.1527 28.3516Z" fill="white"/>
        <path d="M26.3142 29.0859H28.2093C28.5761 29.2082 28.8206 29.3916 29.1263 29.6973C29.1263 29.6973 28.6372 29.8195 28.3316 29.9418C28.3316 29.9418 27.9036 29.6361 27.4146 29.4527C26.8033 29.6972 26.681 29.3916 26.3142 29.0859Z" fill="white"/>
        <path d="M27.109 31.5312C27.109 31.3478 27.4147 31.1644 27.5981 31.0422C27.9037 30.9199 28.6984 30.6754 29.0041 30.6143C29.0041 30.6143 29.1264 30.7977 29.1875 30.9199C29.1875 30.9811 29.1875 31.0422 29.0652 31.0422C28.8207 31.1033 28.2705 30.981 28.1483 31.0422C28.026 31.1644 28.026 31.2867 28.026 31.409C28.026 31.409 27.7815 31.2256 27.5981 31.2867C27.3535 31.0422 27.2313 31.1644 27.109 31.5312Z" fill="white"/>
        <path d="M27.8425 30.3686H27.1089C27.1089 30.3686 26.9867 30.3074 26.9255 30.1852C26.8644 30.0629 26.5587 29.635 26.3142 29.5738C26.3142 29.5738 26.4976 29.5738 26.681 29.5127C26.681 29.5127 26.9255 29.5739 27.1701 29.6961C27.3535 30.0629 27.5369 30.1852 27.8425 30.3686Z" fill="white"/>
        <path d="M25.7028 29.8799C25.764 29.8799 26.4976 30.3689 26.5587 30.858C26.6198 31.2859 26.3753 31.4693 26.3142 31.5305C26.1919 31.5916 25.7028 31.775 25.3361 31.1025C25.3361 31.1025 25.8862 31.2859 26.0696 31.0414C26.253 30.7357 25.9474 30.3689 25.8251 30.2467C25.6417 30.0633 25.2749 30.0021 25.0304 30.0633C25.3361 30.1244 25.5195 29.941 25.7028 29.8799Z" fill="white"/>
        <path d="M30.4712 35.6259L30.4101 35.5037L30.3489 35.3814L30.2878 35.2591V34.9535L30.2267 34.8924V34.8312L30.1655 34.7701L30.1044 34.7089L30.0433 34.6478C29.7376 33.9754 28.9429 32.0803 27.2312 31.7746C27.0478 31.7135 27.4146 31.3467 27.5369 31.3467C27.7203 31.3467 27.9648 31.5301 28.1482 31.6523V31.1633C28.1482 31.1022 28.2093 31.041 28.2704 31.041C28.3316 31.041 28.7595 31.041 28.8818 31.2244C29.2486 31.6524 29.921 32.875 30.2878 33.7308C30.6546 34.6478 30.8991 34.8924 31.327 34.7701C31.6938 34.6478 31.9384 34.1588 32.6108 34.3422C32.8553 34.4033 33.0999 34.5256 33.2833 34.7701C33.2221 34.8924 33.161 35.0146 32.8553 35.0146C32.5497 35.0146 31.9384 35.1369 31.5716 35.3814C31.327 35.5037 30.9602 35.5648 30.4712 35.6259Z" fill="white"/>
        <path d="M23.7466 29.8799V30.43L23.6855 30.4912V30.6135L23.6244 30.6746V30.7357L23.5632 30.858C23.5632 30.858 24.0523 33.2421 25.9474 33.4255C25.9474 33.4255 25.8863 32.9365 25.3361 32.5697C24.7859 32.2029 23.9912 31.5916 24.0523 30.7357C24.0523 30.7357 24.1746 30.7357 24.4802 31.1025C24.7247 31.4082 25.3361 32.3863 26.1919 32.3863C26.1919 32.3863 26.0696 31.9583 25.6417 31.6527C25.2138 31.4082 24.7247 31.0414 24.5413 30.6746C24.1746 30.1244 23.93 29.941 23.7466 29.8799Z" fill="white"/>
        <path d="M22.524 32.1426V32.3871L22.5851 32.4482V32.5094L22.6462 32.5705L22.7074 32.6316L22.7685 32.6927L22.8296 32.7539L22.8908 32.815L22.9519 32.8761L23.013 32.9373L23.0741 33.0596L23.1353 33.1818L23.1964 33.3041L23.2575 33.3652L23.3187 33.4263L23.3798 33.4875L23.4409 33.5486L23.5021 33.6097L23.5632 33.6709L23.6243 33.732L23.6855 33.7931L23.7466 33.8543H23.8077L23.8689 33.9154H23.93C24.2357 34.221 24.9692 34.9546 25.3972 35.3214C25.3972 35.3214 24.2357 35.0158 23.6243 34.4656C23.6243 34.4656 23.1964 34.7101 22.8296 34.7101C22.524 34.7101 22.0349 34.4656 22.0349 34.4656C21.4236 35.0769 20.2621 35.3214 20.2621 35.3214C20.69 34.9546 21.4236 34.221 21.7292 33.9154C21.7292 33.4875 22.4017 32.5094 22.524 32.1426Z" fill="white"/>
        <path d="M22.5239 34.7703H23.1352C23.013 35.076 22.7685 35.5039 22.5239 35.6873C22.2794 35.5039 22.0349 35.076 21.9126 34.7703C22.0349 34.7092 22.2794 34.7703 22.5239 34.7703Z" fill="white"/>
        <path d="M23.5021 40.0894L27.9647 33.8539L28.3926 34.1596L28.4538 32.6924L27.1089 33.1814L27.5368 33.4871C27.3534 33.7927 23.9911 38.4388 23.5632 39.0501L21.5459 35.3822L21.3013 35.749L19.5285 38.4388L19.1006 38.1331V39.5392L20.4455 38.989L19.9564 38.6833C20.201 38.3165 21.1791 36.8493 21.4847 36.3603L23.5021 40.0894Z" fill="white"/>
        <path d="M24.2969 37.583L24.1746 37.3996L24.1135 37.3385L24.0524 37.2773L23.9912 37.2162L23.9301 37.1551L23.869 37.0939L23.8078 37.0328L23.7467 36.9717L23.8078 36.7883V36.7272C23.6856 36.9106 23.4411 37.3385 23.1965 37.8275L22.8909 37.2773L23.7467 35.749L23.9912 36.1158L24.9082 37.4607L24.2969 37.583Z" fill="white"/>
        <path d="M25.2137 38.0098L25.5194 38.4988L25.9473 38.1932V39.5992L24.6024 39.049L25.0303 38.7434C24.9692 38.6822 24.9081 38.56 24.8469 38.4377L25.2137 38.0098Z" fill="white"/>
        <path d="M34.2002 28.5347L34.078 28.4736H32.9164L32.8553 28.5347H32.7942L32.7331 28.5959L32.6719 28.657L32.6108 28.7181L32.5497 28.7793L32.4885 28.8404L32.4274 28.9015L32.3663 28.9627L32.3051 29.0238C31.7549 29.5129 31.3881 30.063 31.6938 30.4298C31.9995 30.7355 32.5497 30.491 33.161 29.9408C34.1391 29.3906 34.5059 28.9015 34.2002 28.5347Z" fill="white"/>
        <path d="M33.2832 34.9544C33.65 34.6488 33.8334 34.2208 33.8334 33.7929C33.8334 32.9371 33.161 32.2646 32.3051 32.2646C31.4493 32.2646 30.7768 32.9371 30.7768 33.7929V34.0986C30.7157 33.9763 30.4712 33.365 30.41 33.3039C30.6546 32.448 31.3881 31.8367 32.3051 31.8367C33.0998 31.8367 33.7723 32.2646 34.078 32.9371C33.9557 32.1424 33.5889 31.4699 33.2832 31.2254C32.9776 30.9197 32.4274 30.7975 32.4274 30.7975C32.7942 30.8586 33.2832 30.614 33.8334 30.125C34.3225 29.6359 34.6281 29.208 34.6281 28.9023C34.567 29.3914 34.6281 29.6359 34.7504 30.0639C34.9338 30.6141 35.4229 31.5922 35.2395 32.6925C35.1172 33.3039 34.6893 34.2208 33.9557 34.9544C33.7723 35.1378 33.7112 35.3824 33.7112 35.5046H32.3663C32.3663 35.5046 32.1217 35.5046 32.1217 35.3212C32.1217 35.1378 32.3051 35.1378 32.3663 35.1378C32.4274 35.1378 32.9776 35.1378 33.2832 34.9544Z" fill="white"/>
        <path d="M26.0085 35.259L25.8251 35.1367L25.6417 35.0144L25.4583 34.8922L25.2749 34.7699L25.0915 34.6476L24.9082 34.5254L24.7248 34.4031L24.5414 34.2197L24.358 34.0363L24.1746 33.8529L23.9912 33.6695L23.8078 33.4861L23.6244 33.3027L23.441 33.1193L23.2576 32.8748L23.1965 32.7526L23.1353 32.6303L23.0131 32.3857C23.2576 32.508 23.5021 32.3857 23.5021 32.3857C23.5021 32.3857 23.5632 32.4469 23.5632 32.508C24.358 33.6695 25.2138 34.342 26.0697 34.831L26.0085 35.259Z" fill="white"/>
        <path d="M27.17 35.3203L27.2923 35.3815L27.4146 35.4426L27.5368 35.5037L27.6591 35.5649L27.7814 35.626L27.9036 35.6871H28.6372L28.8817 35.7482L29.1263 35.8094C29.5542 35.8705 29.9821 35.9316 30.41 35.8705C30.41 35.9316 30.41 36.0539 30.4712 36.115C30.4712 36.115 30.41 36.2373 30.41 36.2984C29.9821 36.2984 29.5542 36.2984 29.1263 36.2373C28.3927 36.115 27.598 35.9928 26.8644 35.6871L27.17 35.3203Z" fill="white"/>
        <path d="M32.1828 35.626H32.9775C33.2221 35.6871 33.5277 35.7483 33.5888 35.8705C33.65 35.9928 33.5277 36.1762 33.4054 36.3596C33.3443 36.4818 33.0998 36.4207 32.9775 36.3596C32.8553 36.2984 32.2439 35.9928 32.1217 35.8705C32.0605 35.8705 31.9994 35.6871 32.1828 35.626Z" fill="white"/>
        <path d="M31.5715 36.0547C31.8161 36.0547 32.4274 36.4215 32.4885 36.6049C32.5496 36.7883 32.4274 36.8494 32.3662 36.9105C32.244 36.9717 32.1217 36.9717 32.0606 36.9717C31.8772 36.9717 31.7549 36.9105 31.6938 36.7883C31.6327 36.666 31.327 36.3603 31.2659 36.2381C31.5104 36.2381 31.5104 36.1158 31.5715 36.0547Z" fill="white"/>
        <path d="M31.5104 36.4822L31.6327 36.6045L31.6938 36.6656L31.755 36.7268C31.755 36.7879 31.755 36.849 31.6327 36.849C31.5716 36.849 31.1436 36.7879 30.8991 36.6045C30.6546 36.4211 30.4712 36.1154 30.6546 35.9932C30.9602 36.1154 31.2048 36.1766 31.5104 36.4822Z" fill="white"/>
        <path d="M31.327 35.5039C31.4492 35.6262 31.3881 35.8095 31.1436 35.9318C30.8991 36.0541 30.41 36.1763 30.3489 36.0541C30.6545 35.8707 30.8379 35.6873 31.327 35.5039Z" fill="white"/>
    </g>
    <defs>
        <clipPath id="clip0">
            <rect width="45" height="45" fill="white"/>
        </clipPath>
    </defs>
</svg>
