<svg width="135" height="45" viewBox="0 0 135 45" fill="none" xmlns="http://www.w3.org/2000/svg">
    <path d="M66.8489 0.79558L57.8296 44.2541H46.9293L55.9486 0.79558H66.8489ZM112.717 28.8895L118.457 12.5801L121.785 28.8895H112.717ZM124.92 44.2541H135L126.174 0.79558H116.865C114.791 0.79558 113.006 2.03867 112.235 3.9779L95.8842 44.2541H107.315L109.582 37.7403H123.569L124.92 44.2541ZM96.463 30.0829C96.5113 18.5967 81.0772 18 81.1736 12.8287C81.2219 11.2873 82.6688 9.59669 85.8039 9.19889C87.3473 9 91.6881 8.8011 96.5595 11.1381L98.4887 1.93923C95.8842 0.944751 92.508 0 88.2637 0C77.4598 0 69.8875 5.91713 69.8392 14.3702C69.791 20.6354 75.2412 24.116 79.3891 26.2044C83.6334 28.3425 85.0804 29.6851 85.0322 31.6243C84.9839 34.558 81.656 35.8508 78.5209 35.9006C73.0225 36 69.8392 34.3591 67.3312 33.1657L65.3537 42.7127C67.91 43.9061 72.5884 44.9503 77.508 45C88.8907 44.9503 96.4148 39.1326 96.463 30.0829ZM51.2701 0.79558L33.5691 44.2541H22.0418L13.3601 9.54696C12.8296 7.40884 12.3955 6.61326 10.7556 5.71823C8.15112 4.22652 3.81029 2.88398 0 2.03867L0.241158 0.79558H18.8103C21.1736 0.79558 23.2958 2.43646 23.8264 5.22099L28.4566 30.3812L39.791 0.79558H51.2701Z" fill="url(#paint0_linear)"/>
    <defs>
        <linearGradient id="paint0_linear" x1="135.002" y1="22.489" x2="-0.000957569" y2="22.489" gradientUnits="userSpaceOnUse">
            <stop stop-color="#024DA0"/>
            <stop offset="1" stop-color="#231F5E"/>
        </linearGradient>
    </defs>
</svg>
