<svg width="45" height="45" viewBox="0 0 45 45" fill="none" xmlns="http://www.w3.org/2000/svg">
    <path d="M22.4182 22.5C22.4182 22.6667 22.2545 22.8333 22.2545 22.8333H19.3091C18.3273 22.8333 17.3455 23.6667 17.3455 24.6667V44.8333C17.1818 44.8333 17.0182 44.6667 16.8545 44.6667C7.2 42.3333 0 33.3333 0 22.8333C0 10.5 9.81818 0.5 21.9273 0.333333H22.4182V22.5ZM18.1636 19C19.6364 19 20.7818 17.6667 20.7818 16.3333C20.7818 15 19.6364 13.6667 18.1636 13.6667C16.6909 13.6667 15.5455 14.8333 15.5455 16.3333C15.3818 17.8333 16.5273 19 18.1636 19ZM25.6909 0.166667C36.6545 1.66667 45 11 45 22.5C45 34.8333 34.8545 45 22.5818 45C21.9273 45 21.2727 44.8333 20.7818 44.8333H20.2909V25.3333C20.2909 25.1667 20.4545 25 20.6182 25H23.5636C24.5455 25 25.5273 24.1667 25.5273 23.1667V0C25.3636 0 25.6909 3.72529e-08 25.6909 0.166667ZM24.7091 34.3333C26.1818 34.3333 27.3273 33 27.3273 31.6667C27.3273 30.3333 26.1818 29 24.7091 29C23.2364 29 22.0909 30.1667 22.0909 31.6667C22.0909 33.1667 23.2364 34.3333 24.7091 34.3333ZM31.2545 34.3333C32.7273 34.3333 33.8727 33 33.8727 31.6667C33.8727 30.3333 32.7273 29 31.2545 29C29.7818 29 28.6364 30.1667 28.6364 31.6667C28.6364 33.1667 29.7818 34.3333 31.2545 34.3333ZM40.5818 31.6667C40.5818 30.3333 39.4364 29 37.9636 29C36.4909 29 35.3455 30.1667 35.3455 31.6667C35.3455 33 36.4909 34.3333 37.9636 34.3333C39.2727 34.3333 40.5818 33.1667 40.5818 31.6667Z" fill="#3AAA35"/>
</svg>
