<svg width="45" height="45" viewBox="0 0 45 45" fill="none" xmlns="http://www.w3.org/2000/svg">
    <path d="M0.908142 28.97C3.69045 38.2403 12.2886 45 22.471 45C34.8948 45 44.9807 34.9185 44.9807 22.5C45 10.0815 34.9142 0 22.4904 0C10.5496 0 0.792212 9.27039 0.0193481 21.0129C1.46847 23.4464 2.04812 24.9721 0.908142 28.97Z" fill="url(#paint0_linear)"/>
    <path d="M21.331 16.8608V16.9767L15.8244 24.9724C14.9356 24.9337 14.0275 25.0882 13.1966 25.4359C12.8295 25.5904 12.4624 25.7835 12.1339 25.996L0.038616 21.0131C0.038616 21.0131 -0.231886 25.6097 0.92741 29.0475L9.46756 32.5818C9.89263 34.4938 11.2065 36.1741 13.158 36.9852C16.3267 38.3179 19.9978 36.7921 21.3117 33.6247C21.6595 32.7942 21.8141 31.9251 21.7947 31.056L29.678 25.4359H29.8712C34.5856 25.4359 38.4306 21.5925 38.4306 16.8801C38.4306 12.1676 34.605 8.32429 29.8712 8.32429C25.1567 8.30498 21.331 12.1483 21.331 16.8608ZM19.9978 33.0646C18.9738 35.5174 16.1528 36.6762 13.699 35.6526C12.559 35.1891 11.7089 34.32 11.2258 33.2964L14.0081 34.4552C15.8244 35.2084 17.8918 34.3586 18.6453 32.5432C19.3989 30.7277 18.5487 28.6612 16.7325 27.908L13.8536 26.7106C14.9549 26.2857 16.2301 26.2663 17.4087 26.7685C18.6067 27.2706 19.5148 28.1977 20.0171 29.3758C20.5195 30.5539 20.5002 31.8865 19.9978 33.0646ZM29.8712 22.5775C26.7217 22.5775 24.1713 20.0088 24.1713 16.8801C24.1713 13.732 26.7217 11.1827 29.8712 11.1827C33.0206 11.1827 35.571 13.7513 35.571 16.8801C35.571 20.0088 33.0206 22.5775 29.8712 22.5775ZM25.6011 16.8608C25.6011 14.4852 27.5139 12.5732 29.8712 12.5732C32.2284 12.5732 34.1412 14.4852 34.1412 16.8608C34.1412 19.2363 32.2284 21.1483 29.8712 21.1483C27.5139 21.1483 25.6011 19.217 25.6011 16.8608Z" fill="white"/>
    <defs>
        <linearGradient id="paint0_linear" x1="22.5155" y1="0.0135193" x2="22.5155" y2="45.0135" gradientUnits="userSpaceOnUse">
            <stop stop-color="#111D2E"/>
            <stop offset="0.212" stop-color="#051839"/>
            <stop offset="0.407" stop-color="#0A1B48"/>
            <stop offset="0.581" stop-color="#132E62"/>
            <stop offset="0.738" stop-color="#144B7E"/>
            <stop offset="0.873" stop-color="#136497"/>
            <stop offset="1" stop-color="#1387B8"/>
        </linearGradient>
    </defs>
</svg>
