<svg width="45" height="60" viewBox="0 0 45 60" fill="none" xmlns="http://www.w3.org/2000/svg">
    <g clip-path="url(#clip0)">
        <path d="M9.6491 17.0805C16.8338 11.457 23.9709 5.76892 31.0285 0C31.0762 8.17668 30.9808 16.3534 31.0762 24.53C31.2033 25.9682 31.1238 27.3903 31.1556 28.8284V38.2009C31.1874 38.5726 31.0444 38.9281 30.7265 39.122C22.4608 44.8586 14.1793 50.579 5.91367 56.3157C16.357 52.9222 26.7685 49.4156 37.2118 46.0059C37.4025 45.8928 37.7046 45.8767 37.7681 45.6343C37.6887 38.6049 37.7681 31.5755 37.7363 24.5462C40.1366 24.5947 42.5209 24.5623 44.9211 24.5623C45.0641 26.5661 44.9529 28.5861 44.9847 30.606V59.9838C31.6643 60.0162 18.3598 59.9838 5.03942 60C4.02211 60 2.92532 59.9515 2.05107 59.3375C1.20862 58.8042 0.588694 57.9639 0.223099 57.0267C-0.0789149 56.2833 0.0164578 55.4754 0.000562352 54.6835V28.5053C0.11183 26.8408 0.731753 25.2087 1.81264 23.9483C3.99032 21.185 6.94687 19.2459 9.6491 17.0805Z" fill="#FECB31"/>
        <path d="M19.1699 24.2066C19.9805 23.1077 21.1409 22.122 22.5238 21.9766C23.1119 21.8958 23.7477 21.9766 24.2246 22.3644C26.2751 23.7703 24.0815 27.6486 22.5397 28.6666C21.7767 29.2645 20.7753 29.4907 19.8216 29.3938C18.9632 29.2645 18.391 28.4565 18.1684 27.6809C17.9777 26.4366 18.4546 25.1923 19.1699 24.2066Z" fill="black"/>
        <path d="M31.0916 24.5293C33.3011 24.5455 35.5105 24.5131 37.7359 24.5455C37.7836 31.5748 37.6882 38.6042 37.7677 45.6335C37.6882 45.8598 37.3862 45.8921 37.2113 46.0052C26.768 49.4149 16.3565 52.9376 5.91321 56.3149C14.1788 50.5783 22.4763 44.8579 30.7578 39.1213C31.0757 38.9274 31.2029 38.5719 31.187 38.2002C31.1711 35.0814 31.187 31.9465 31.187 28.8277C31.1393 27.4057 31.2188 25.9675 31.0916 24.5293Z" fill="#CCA74D"/>
    </g>
    <defs>
        <clipPath id="clip0">
            <rect width="45" height="60" fill="white"/>
        </clipPath>
    </defs>
</svg>
