<svg width="45" height="45" viewBox="0 0 45 45" fill="none" xmlns="http://www.w3.org/2000/svg">
    <g clip-path="url(#clip0)">
        <path d="M31.2532 17.3164C32.0757 16.963 33.2506 16.2562 33.2506 14.3714C33.2506 12.251 31.4882 11.3086 29.1384 11.3086H25.0261V16.374H22.5587C19.2689 16.374 18.564 18.7301 18.564 19.9081C18.564 21.6751 19.6214 22.4997 21.5013 23.4421C22.6762 24.0311 24.0861 24.3845 24.0861 25.6803C24.0861 26.3871 23.4987 27.2117 22.0888 27.2117H19.5039C19.8564 26.5049 20.0914 25.7981 20.0914 25.2091C20.0914 24.3845 19.8564 21.0861 15.2741 21.0861H11.3969V33.6908H13.9817V28.2719L15.0391 29.3322H21.9713C25.2611 29.3322 26.7885 27.6829 26.7885 25.6803C26.7885 24.9735 26.671 24.3845 26.436 23.9133H29.0209C33.0156 23.9133 33.9556 21.9107 33.9556 20.3793C33.8381 18.7301 32.8982 17.552 31.2532 17.3164ZM15.1566 27.2117H13.9817V23.0887H15.1566C16.6841 23.0887 17.2715 24.0311 17.2715 25.0913C17.2715 26.0337 16.6841 27.2117 15.1566 27.2117ZM24.9086 19.3191V22.3819C24.3211 22.0285 23.6162 21.6751 22.9112 21.4395C22.0888 21.0861 21.2663 20.6149 21.2663 19.6725C21.2663 19.2013 21.6188 18.3767 23.1462 18.3767H25.966L24.9086 19.3191ZM27.4935 13.1934H28.6684C30.6658 13.1934 30.6658 14.3714 30.6658 14.7248C30.6658 15.3138 30.4308 16.2562 28.6684 16.2562H27.376C27.4935 16.374 27.4935 13.1934 27.4935 13.1934ZM28.9034 21.9107H27.4935V18.3767H28.9034C30.6658 18.3767 31.1358 19.2013 31.1358 20.1437C31.1358 20.9683 30.5483 21.9107 28.9034 21.9107Z" fill="#3A4A77"/>
        <path d="M44.8825 10.9555C44.8825 4.94764 39.9478 0 33.9556 0H18.564C13.6292 0 9.39948 3.41623 8.10706 8.01047H26.7885C33.9556 8.01047 37.0104 11.3089 37.0104 19.2016V36.9895C41.5927 35.6937 45 31.4529 45 26.5052L44.8825 10.9555Z" fill="#3A4A77"/>
        <path d="M0 34.0448C0 40.0526 4.93473 45.0003 10.9269 45.0003H26.3185C31.2533 45.0003 35.483 41.584 36.7755 36.9898H18.2115C11.0444 36.9898 7.98956 33.6914 7.98956 25.7987V8.01074C3.40731 9.30655 0 13.5474 0 18.495V34.0448Z" fill="#F47B20"/>
    </g>
    <defs>
        <clipPath id="clip0">
            <rect width="45" height="45" fill="white"/>
        </clipPath>
    </defs>
</svg>
