<svg width="45" height="45" viewBox="0 0 45 45" fill="none" xmlns="http://www.w3.org/2000/svg">
    <g clip-path="url(#clip0)">
        <path d="M44.3622 27.9804C41.3388 40.0038 29.1747 47.3866 17.081 44.3632C5.05754 41.3398 -2.32527 29.1757 0.698169 17.082C3.72161 5.05852 15.8857 -2.32429 27.9794 0.699145C40.0732 3.72258 47.3857 15.957 44.3622 27.9804Z" fill="#F7931A"/>
        <path d="M32.4795 19.333C32.9014 16.3096 30.6514 14.7627 27.5576 13.6377L28.542 9.55957L26.0811 8.92676L25.0967 12.8643C24.4639 12.7236 23.7607 12.583 23.1279 12.3721L24.1123 8.36426L21.6514 7.73145L20.667 11.8096C20.1045 11.6689 19.6123 11.5986 19.1201 11.458L15.7451 10.6143L15.1123 13.2861C15.1123 13.2861 16.9404 13.708 16.8701 13.708C17.8545 13.9893 18.0654 14.6221 17.9951 15.1143L16.8701 19.7549C16.9404 19.7549 17.0107 19.8252 17.1514 19.8252C17.0811 19.8252 17.0107 19.7549 16.8701 19.7549L15.2529 26.2236C15.1123 26.5049 14.8311 26.9971 14.1279 26.7861C14.1279 26.8564 12.2998 26.3643 12.2998 26.3643L11.1045 29.1768L14.3389 29.9502C14.9717 30.0908 15.5342 30.2314 16.0967 30.3721L15.042 34.4502L17.5029 35.083L18.4873 31.0049C19.1904 31.2158 19.8232 31.3564 20.4561 31.4971L19.4717 35.5049L21.9326 36.1377L22.9873 32.0596C27.2061 32.833 30.3701 32.5518 31.7061 28.7549C32.7607 25.6611 31.6357 23.9033 29.4561 22.7783C30.9326 22.6377 32.1982 21.583 32.4795 19.333ZM26.8545 27.2783C26.0811 30.3721 20.9482 28.6846 19.2607 28.2627L20.5967 22.8486C22.2842 23.2705 27.6279 24.0439 26.8545 27.2783ZM27.6279 19.333C26.9248 22.1455 22.6357 20.7393 21.2295 20.3877L22.4248 15.4658C23.8311 15.7471 28.3311 16.3799 27.6279 19.333Z" fill="white"/>
    </g>
    <defs>
        <clipPath id="clip0">
            <rect width="45" height="45" fill="white"/>
        </clipPath>
    </defs>
</svg>
