<svg width="121" height="45" viewBox="0 0 121 45" fill="none" xmlns="http://www.w3.org/2000/svg">
    <g clip-path="url(#clip0)">
        <path d="M0 15.8534V22.3611L17.7467 20.4227V13.3957L0 15.8534ZM5.68174 22.7419V44.9996H12.1701V22.0842L5.68174 22.7419ZM20.1667 13.0496V44.9996H27.0058V12.115L20.1667 13.0496ZM28.3035 11.9419V19.2804L38.1939 18.2073V10.5573L28.3035 11.9419ZM28.3035 24.7496V32.2265L34.7919 31.8804V24.1957L28.3035 24.7496ZM28.3035 37.6265V44.9996H38.1939V37.315L28.3035 37.6265ZM63.7617 6.9919V44.9996H72.7403V5.74575L63.7617 6.9919ZM74.4238 5.50344V14.2611L87.5058 12.8419V3.70344L74.4238 5.50344ZM74.4238 20.8381V29.7342L83.0165 29.2842V20.1111L74.4238 20.8381ZM74.4238 36.2419V44.9996H87.5058V35.8611L74.4238 36.2419ZM40.7893 10.1765V44.9996H48.6104V9.10344L40.7893 10.1765ZM50.0835 36.9688V44.9996H61.4119V36.6227L50.0835 36.9688ZM116.861 3.25344C114.021 0.622669 109.847 -0.485024 105.323 0.172669V9.86498C107.181 9.76113 108.654 10.4534 109.321 11.8034C110.373 13.9496 109.286 17.1688 106.726 20.1457C102.762 24.7496 92.2757 34.165 92.2757 34.165L107.357 33.6804C116.581 24.7842 119.878 19.4188 120.474 12.6688C120.79 9.10344 119.457 5.67651 116.861 3.25344ZM121 44.9996V34.8573L90.4168 35.7573L121 44.9996ZM90.4168 35.7573V44.9996H121L90.4168 35.7573ZM103.569 0.414976C94.6956 2.28421 90.3116 8.72267 90.8377 19.2457L100.307 18.415C99.8864 12.4611 101.71 11.0765 103.569 10.2804V0.414976Z" fill="white"/>
    </g>
    <defs>
        <clipPath id="clip0">
            <rect width="121" height="45" fill="white"/>
        </clipPath>
    </defs>
</svg>
