<svg width="45" height="45" viewBox="0 0 45 45" fill="none" xmlns="http://www.w3.org/2000/svg">
    <path d="M45 4.5V40.5C45 42.9429 42.9429 45 40.5 45H4.5C2.05714 45 0 42.9429 0 40.5V4.5C0 2.05714 2.05714 0 4.5 0H40.5C42.9429 0 45 2.05714 45 4.5ZM22.5 39.0857C30.8571 39.0857 34.7143 32.4 34.7143 25.7143C34.7143 16.3286 28.2857 5.78571 22.5 5.78571C16.8429 5.78571 10.2857 16.4571 10.2857 25.8429C10.2857 32.4 14.0143 39.0857 22.5 39.0857Z" fill="#E30613"/>
    <path d="M34.7143 25.7147C34.7143 32.4004 30.8571 39.0861 22.5 39.0861C14.0143 39.0861 10.2857 32.4004 10.2857 25.8433C10.2857 16.4576 16.8428 5.78613 22.5 5.78613C28.2857 5.78613 34.7143 16.329 34.7143 25.7147Z" fill="white"/>
</svg>
