<svg width="60" height="45" viewBox="0 0 60 45" fill="none" xmlns="http://www.w3.org/2000/svg">
    <g clip-path="url(#clip0)">
        <path d="M58.8084 44.3622V44.4759H59.0441C58.9261 44.3622 58.9261 44.3622 58.8081 44.3622H58.8084ZM58.9261 44.2486H59.0441V44.4759H58.9261L59.0441 44.5896H58.8081V44.7032H58.6902V44.2486H58.9261ZM58.9261 44.9305H59.0441C59.0441 44.9305 59.162 44.9305 59.162 44.8169C59.162 44.7032 59.28 44.7032 59.28 44.7032V44.4759C59.28 44.4759 59.28 44.3622 59.162 44.3622C59.0441 44.3622 59.0441 44.2486 59.0441 44.1349H58.8081C58.8081 44.1349 58.6902 44.1349 58.6902 44.2486C58.6902 44.3623 58.5722 44.3622 58.5722 44.3622V44.5896C58.5722 44.5896 58.5722 44.7032 58.6902 44.7032C58.8081 44.7032 58.8081 44.8169 58.8081 44.8169C58.8081 44.9305 58.8081 44.9305 58.9261 44.9305ZM58.9261 44.0213H59.162C59.28 44.0213 59.28 44.1349 59.28 44.1349L59.3979 44.2486V44.7032C59.3979 44.8169 59.28 44.8169 59.28 44.8169L59.162 44.9305H58.6902C58.5722 44.9305 58.5722 44.8169 58.5722 44.8169L58.4543 44.7032V44.2486C58.4543 44.1349 58.5722 44.1349 58.5722 44.1349L58.6902 44.0213H58.9261ZM12.9266 42.3167C12.9266 41.5214 13.5164 40.8392 14.4598 40.8392C15.4034 40.8392 15.9932 41.5211 15.9932 42.3167C15.9932 43.1123 15.4034 43.794 14.4598 43.794C13.5164 43.9076 12.9266 43.226 12.9266 42.3167ZM16.9366 42.3167V39.9302H15.8753V40.6119C15.683 40.3648 15.4337 40.1644 15.147 40.0263C14.8604 39.8883 14.5443 39.8165 14.2238 39.8166C12.8086 39.8166 11.747 40.8392 11.747 42.3167C11.747 43.794 12.8086 44.8169 14.2238 44.8169C14.9316 44.8169 15.4034 44.5896 15.7573 44.1349V44.7032H16.8189V42.3167H16.9366ZM53.1467 42.3167C53.1467 41.5214 53.7365 40.8392 54.6802 40.8392C55.6235 40.8392 56.2133 41.5211 56.2133 42.3167C56.2133 43.1123 55.6235 43.794 54.6802 43.794C53.6185 43.9076 53.1467 43.226 53.1467 42.3167ZM57.0391 42.3167V37.998H55.9774V40.6119C55.6235 40.1575 55.152 39.8166 54.4443 39.8166C53.0287 39.8166 51.9671 40.9531 51.9671 42.3167C51.9671 43.794 53.0287 44.8169 54.4443 44.8169C55.1517 44.8169 55.6238 44.5896 55.9774 44.1349V44.7032H57.0391V42.3167ZM30.1468 40.8392C30.8546 40.8392 31.3264 41.2938 31.4444 41.9757H28.8496C28.9675 41.2938 29.4394 40.8392 30.1468 40.8392ZM30.2648 39.8166C28.8496 39.8166 27.7879 40.8392 27.7879 42.3167C27.7879 43.794 28.8496 44.8169 30.2648 44.8169C30.9725 44.8169 31.6803 44.5896 32.2698 44.1349L31.7982 43.3396C31.3264 43.6803 30.8546 43.794 30.3827 43.794C29.6753 43.794 29.0855 43.4533 28.9675 42.6574H32.6239V42.3167C32.506 40.8392 31.5623 39.8166 30.2648 39.8166ZM43.1211 42.3167C43.1211 41.5214 43.7109 40.8392 44.6546 40.8392C45.5979 40.8392 46.1877 41.5211 46.1877 42.3167C46.1877 43.1123 45.5979 43.794 44.6546 43.794C43.7109 43.9076 43.1211 43.226 43.1211 42.3167ZM47.1314 42.3167V39.9302H46.0698V40.6119C45.7159 40.1575 45.2444 39.8166 44.5366 39.8166C43.1211 39.8166 42.0598 40.8392 42.0598 42.3167C42.0598 43.794 43.1211 44.8169 44.5366 44.8169C45.2444 44.8169 45.7162 44.5896 46.0698 44.1349V44.7032H47.1314V42.3167ZM37.1058 42.3167C37.1058 43.794 38.1674 44.8169 39.7006 44.8169C40.4083 44.8169 40.8802 44.7032 41.47 44.2486L40.9981 43.4533C40.6443 43.6803 40.1727 43.9076 39.7006 43.9076C38.8752 43.9076 38.1674 43.3396 38.1674 42.4304C38.1674 41.5211 38.7572 40.9528 39.7006 40.9528C40.1724 40.9528 40.6443 41.0665 40.9981 41.4075L41.47 40.6122C40.9981 40.0439 40.5263 39.8166 39.7006 39.8166C38.1674 39.8166 37.1058 40.9531 37.1058 42.3167ZM50.9058 39.8166C50.316 39.8166 49.8442 40.0439 49.6082 40.4985V39.9302H48.5469V44.7032H49.6082V42.0894C49.6082 41.2941 49.9624 40.8392 50.6699 40.8392C50.9058 40.8392 51.1417 40.8392 51.3776 40.9528L51.7315 40.0439C51.3773 39.9302 51.1417 39.8166 50.9058 39.8166ZM22.2445 40.3848C21.7726 40.0436 21.0649 39.9302 20.2394 39.9302C18.9419 39.9302 18.2344 40.4985 18.2344 41.4075C18.2344 42.2031 18.8239 42.6577 19.8853 42.7713L20.3571 42.885C20.9469 42.9987 21.1828 43.1123 21.1828 43.3396C21.1828 43.6803 20.8289 43.9076 20.0032 43.9076C19.2958 43.9076 18.706 43.6803 18.3524 43.4533L17.8803 44.2486C18.4701 44.7032 19.1778 44.8169 20.0035 44.8169C21.4187 44.8169 22.2445 44.1349 22.2445 43.226C22.2445 42.4304 21.6547 41.9757 20.4751 41.8621L20.0035 41.7484C19.5317 41.6348 19.1778 41.6348 19.1778 41.2938C19.1778 40.9528 19.5317 40.7255 20.1215 40.7255C20.711 40.7255 21.3011 40.9528 21.6547 41.1801L22.2445 40.3848ZM36.0442 39.8166C35.4547 39.8166 34.9828 40.0439 34.7469 40.4985V39.9302H33.6853V44.7032H34.7469V42.0894C34.7469 41.2941 35.1008 40.8392 35.8085 40.8392C36.0442 40.8392 36.2801 40.8392 36.516 40.9528L36.8702 39.9302C36.516 39.9302 36.2801 39.8166 36.0442 39.8166ZM26.8446 39.9302H25.0752V38.4527H24.0135V39.9302H23.0702V40.9528H24.0135V43.1123C24.0135 44.2489 24.4854 44.8169 25.7829 44.8169C26.2548 44.8169 26.7263 44.7032 27.0802 44.4759L26.7263 43.5669C26.3727 43.794 26.0188 43.794 25.7829 43.794C25.1931 43.794 25.0752 43.4533 25.0752 42.9987V40.9528H26.8443V39.9302H26.8446ZM10.9216 44.7032V41.7484C10.9216 40.6119 10.2138 39.8166 9.03425 39.8166C8.44445 39.8166 7.7367 40.0439 7.26516 40.6119C7.07289 40.3648 6.82355 40.1644 6.53691 40.0263C6.25026 39.8883 5.93419 39.8165 5.61374 39.8166C5.1419 39.8166 4.5524 39.9302 4.19853 40.4985V39.9302H3.1366V44.7032H4.19823V42.0894C4.19823 41.2941 4.66976 40.8392 5.37782 40.8392C6.08527 40.8392 6.43915 41.2938 6.43915 42.0894V44.7032H7.50078V42.0894C7.50078 41.2941 7.97232 40.8392 8.68037 40.8392C9.38782 40.8392 9.7417 41.2938 9.7417 42.0894V44.7032H10.9213H10.9216Z" fill="white"/>
        <path d="M59.4688 28.9339V28.252H59.2329L58.9969 28.7066L58.761 28.252H58.5251V28.9339H58.6431V28.3656L58.9969 28.9339H59.1149L59.3508 28.4793V28.9339H59.4688ZM58.2892 28.9339V28.3656H58.5251V28.252H57.9353V28.3656H58.1712V28.9339H58.2892Z" fill="black"/>
        <path d="M38.1437 31.9613H21.9143V3.86816H38.1437V31.9613Z" fill="#FF5F00"/>
        <path d="M22.9513 17.86C22.9513 12.1778 25.6641 7.06381 30.028 3.76805C26.8434 1.38155 22.8334 -0.0957031 18.5875 -0.0957031C8.32563 -0.0957031 0.069397 7.85912 0.069397 17.7461C0.069397 27.6331 8.32533 35.5891 18.5872 35.5891C22.9513 35.5891 26.8434 34.1115 30.028 31.725C25.6638 28.6566 22.9513 23.5426 22.9513 17.86Z" fill="#EB001B"/>
        <path d="M60.0349 17.8604C60.0349 27.7477 51.7787 35.7028 41.5171 35.7028C37.1529 35.7028 33.2609 34.2256 30.0763 31.8391C34.4405 28.5433 37.1529 23.543 37.1529 17.7468C37.1529 11.9506 34.4402 6.95053 30.0763 3.65477C33.2609 1.26826 37.2709 -0.208984 41.5171 -0.208984C51.6607 0.01804 60.0349 7.97344 60.0349 17.8604Z" fill="#F79E1B"/>
    </g>
    <defs>
        <clipPath id="clip0">
            <rect width="60" height="45" fill="white"/>
        </clipPath>
    </defs>
</svg>
