<svg width="45" height="45" viewBox="0 0 45 45" fill="none" xmlns="http://www.w3.org/2000/svg">
    <path d="M30.9451 40.7722C28.2277 42.1269 25.5102 43.4836 22.7948 44.8404C22.7194 44.878 22.6579 44.9375 22.5885 44.9871H22.412C22.3862 44.9713 22.3763 44.9475 22.3822 44.9177C22.3287 44.6281 22.3604 44.3346 22.3604 44.043C22.3584 39.9649 22.3584 35.8868 22.3604 31.8087C22.3604 31.5607 22.3505 31.3108 22.3783 31.0648C22.3842 31.0153 22.3981 30.9637 22.4159 30.9161C22.767 30.5174 23.2788 30.3964 23.729 30.1663C23.9889 30.0354 24.2626 29.9303 24.5224 29.7974C26.4703 28.8017 28.4637 27.8912 30.4135 26.8995C30.6059 26.8023 30.8499 26.5702 31.0363 26.9372C31.0839 27.1097 31.078 27.2862 31.078 27.4608C31.08 31.6718 31.08 35.8828 31.078 40.0938C31.076 40.3298 31.1038 40.5698 30.9451 40.7722Z" fill="#C7554A"/>
    <path d="M35.7667 6.59482C37.4309 7.43385 39.0931 8.27288 40.7572 9.10794C42.0326 9.74663 43.312 10.3814 44.5894 11.0141C44.7163 11.0776 44.8314 11.1827 44.9901 11.1648V11.2521C44.879 11.4644 44.6648 11.5397 44.4684 11.6329C42.233 12.6941 40.0313 13.8228 37.7978 14.8839C37.3872 15.0783 36.9846 15.2866 36.5859 15.5028C36.5423 15.5167 36.4986 15.5187 36.455 15.5127C35.7469 15.1953 35.0705 14.8145 34.3882 14.4515C32.7458 13.5808 31.1015 12.7199 29.4532 11.8611C29.2191 11.7401 28.9871 11.6171 28.7709 11.4624C28.6023 11.3414 28.6102 11.2343 28.8006 11.145C28.9613 11.0696 29.1358 11.0419 29.3044 10.9943C30.913 10.55 32.4225 9.90333 33.7515 8.86991C34.4576 8.32048 35.007 7.65005 35.4097 6.85268C35.4791 6.71383 35.5089 6.49168 35.7667 6.59482ZM0.0098877 11.1648C0.168569 11.1827 0.283613 11.0756 0.410558 11.0121C3.24698 9.60183 6.08143 8.18758 8.91785 6.77731C9.04678 6.71383 9.18364 6.66425 9.31654 6.60672C9.43555 6.68606 9.47324 6.81698 9.51886 6.93797C10.0782 8.44742 11.2286 9.38364 12.5993 10.0997C13.6049 10.6253 14.68 10.9605 15.7828 11.2124C15.9078 11.2402 16.0724 11.2402 16.1061 11.3929C16.1478 11.5794 15.9752 11.6369 15.8502 11.7024C13.4363 12.9619 11.0541 14.279 8.62033 15.4988C8.57669 15.5087 8.53305 15.5087 8.48941 15.4988C7.3965 15.0069 6.33135 14.4614 5.2543 13.9378C3.66551 13.1642 2.07869 12.3827 0.489898 11.6091C0.307415 11.5199 0.111047 11.4445 0.0098877 11.2481V11.1648Z" fill="#D86961"/>
    <path d="M0.0098877 11.2539C1.89423 12.1822 3.76865 13.1283 5.66687 14.0288C6.62888 14.4851 7.58096 14.9611 8.53305 15.4352C8.55884 15.578 8.58462 15.7208 8.58462 15.8695C8.58264 17.9721 8.58661 20.0726 8.58066 22.1751C8.58066 22.2922 8.5747 22.4092 8.54694 22.5223C8.50528 22.677 8.41007 22.7325 8.25338 22.6829C8.1423 22.6472 8.03519 22.5976 7.93205 22.5441C5.95051 21.5186 3.91543 20.6022 1.92993 19.5867C1.74943 19.4934 1.55306 19.422 1.42413 19.2534C0.971892 18.9817 0.495849 18.7575 0.0118712 18.5493C0.0098877 16.1135 0.0098877 13.6837 0.0098877 11.2539ZM36.5561 15.4748C36.6355 15.2923 36.82 15.2527 36.9727 15.1793C39.6445 13.8702 42.3183 12.563 44.992 11.2559V18.5473C44.5081 18.7556 44.03 18.9757 43.5778 19.2514C43.5024 19.3427 43.4132 19.4141 43.306 19.4676C41.2174 20.509 39.1169 21.5285 37.0064 22.5282C36.8259 22.6135 36.5998 22.7841 36.459 22.4548C36.4114 22.2822 36.4173 22.1057 36.4153 21.9312C36.4133 20.0032 36.4133 18.0732 36.4153 16.1453C36.4193 15.9132 36.3856 15.6712 36.5561 15.4748Z" fill="#D65E53"/>
    <path d="M22.5884 0.0078125C23.5127 0.567164 24.5084 0.987669 25.4645 1.48553C26.1131 1.82273 26.7717 2.14009 27.4242 2.46737C27.4659 2.63994 27.329 2.69746 27.2239 2.7649C25.4248 3.92525 24.1197 5.54579 22.989 7.325C22.5348 8.04105 22.4693 8.04105 22.0151 7.33293C20.8686 5.5438 19.5079 3.95302 17.7207 2.7649C17.6275 2.70143 17.4649 2.65977 17.5264 2.47927C19.0874 1.7057 20.6485 0.93213 22.2055 0.154593C22.2809 0.116906 22.3444 0.0574004 22.4118 0.0078125H22.5884Z" fill="#D86961"/>
    <path d="M8.43211 22.6744C8.43608 20.4271 8.43806 18.1798 8.44798 15.9305C8.44798 15.7638 8.37657 15.5774 8.53327 15.4346C8.53525 15.4504 8.53525 15.4643 8.53128 15.4782C8.65823 15.504 8.78518 15.5199 8.90617 15.5774C10.5822 16.3867 12.2187 17.2753 13.8809 18.1123C14.0137 18.1798 14.1308 18.2631 14.1665 18.4218C14.226 18.7114 14.2042 19.0049 14.2042 19.2945C14.2022 21.3217 14.2141 23.3488 14.2002 25.376C14.1942 25.8877 14.2181 26.3975 14.1923 26.9093C14.224 28.4723 14.2022 30.0353 14.2062 31.6003C14.2101 34.405 14.2081 37.2117 14.2042 40.0164C14.2042 40.2723 14.2617 40.548 14.0574 40.7681C13.6329 40.6472 13.264 40.4071 12.8732 40.2147C11.5244 39.5503 10.1816 38.8739 8.83873 38.1975C8.6979 38.1261 8.53327 38.0904 8.43806 37.9456C8.31508 37.7671 8.3012 37.5648 8.3012 37.3565C8.30318 32.9392 8.29326 28.5199 8.30516 24.1026C8.31706 23.7733 8.29326 23.4421 8.30913 23.1128C8.31706 22.962 8.31111 22.7994 8.43211 22.6744Z" fill="#D2D1D1"/>
    <path d="M14.0593 40.7715C14.0613 36.3185 14.0633 31.8654 14.0672 27.4124C14.0672 27.2379 14.0772 27.0633 14.0811 26.8888C14.2696 26.7698 14.4183 26.9027 14.5651 26.978C16.023 27.7119 17.5186 28.3705 18.9626 29.1321C19.9682 29.6637 21.0234 30.0922 22.031 30.6198C22.1977 30.7071 22.3762 30.7765 22.4992 30.9312C22.4992 35.4338 22.5011 39.9344 22.4972 44.437C22.4972 44.6036 22.5626 44.7941 22.3821 44.921C20.5176 43.9987 18.6511 43.0783 16.7866 42.15C15.8762 41.6978 14.9697 41.2316 14.0593 40.7715ZM8.43009 24.0761C8.43406 25.9783 8.44199 27.8805 8.44397 29.7827C8.44596 32.5041 8.44199 35.2275 8.44001 37.9489C6.1669 36.8203 3.89379 35.6877 1.61672 34.567C1.40448 34.4619 1.41638 34.3131 1.41638 34.1386C1.41836 32.6311 1.41638 31.1216 1.41836 29.6141C1.42233 26.627 1.42828 23.6417 1.43225 20.6546C1.62465 20.5931 1.76945 20.7141 1.92416 20.7875C3.62602 21.5967 5.31795 22.4278 6.99799 23.2807C7.33717 23.4533 7.70016 23.5723 8.03537 23.7528C8.18612 23.8341 8.35868 23.8937 8.43009 24.0761Z" fill="#C7554A"/>
    <path d="M8.43 24.0759C6.09739 22.9354 3.76279 21.7949 1.43018 20.6543C1.42819 20.1862 1.42422 19.7181 1.42224 19.25C1.47778 19.2639 1.53927 19.2698 1.58886 19.2956C3.8699 20.4203 6.15094 21.5469 8.43 22.6735C8.43198 23.1417 8.43 23.6078 8.43 24.0759Z" fill="#C7554A"/>
    <path d="M36.5561 15.4759L36.574 22.5927C36.804 23.0529 36.6513 23.5428 36.687 24.0189C36.7168 25.6711 36.6969 27.3254 36.6989 28.9776C36.7029 31.7129 36.7009 34.4481 36.6989 37.1854C36.6989 37.4472 36.7267 37.715 36.5601 37.949C36.4926 38.0026 36.4331 38.068 36.3577 38.1057C34.6103 38.9824 32.8608 39.8572 31.1093 40.7279C31.0577 40.7537 30.9982 40.7597 30.9427 40.7736C30.9387 36.3047 30.9367 31.8379 30.9328 27.369C30.9328 27.1786 30.9229 26.9902 30.9189 26.7998C30.6809 26.3435 30.8475 25.8536 30.7999 25.3815C30.788 23.1957 30.7959 21.0119 30.7959 18.8261C30.7959 18.6951 30.7979 18.5642 30.8257 18.4353C30.8653 18.227 31.0181 18.1179 31.1906 18.0327C32.8568 17.1996 34.521 16.3645 36.1872 15.5334C36.2804 15.4878 36.3796 15.468 36.4807 15.4541C36.5065 15.4561 36.5323 15.464 36.5561 15.4759Z" fill="#D2D1D1"/>
    <path d="M36.5599 37.947C36.5639 33.2957 36.5679 28.6423 36.5699 23.991C37.1332 23.5328 37.8096 23.273 38.4562 22.9774C39.6284 22.4399 40.769 21.8428 41.9234 21.2736C42.3439 21.0653 42.7842 20.9027 43.2008 20.6865C43.3138 20.6289 43.4368 20.5536 43.5697 20.6527C43.5757 22.4657 43.5836 24.2806 43.5856 26.0935C43.5876 28.7574 43.5856 31.4193 43.5876 34.0831C43.5876 34.2934 43.5895 34.456 43.3456 34.575C41.0784 35.6898 38.8212 36.8204 36.5599 37.947Z" fill="#C7554A"/>
    <path d="M43.5696 20.6503C42.7901 21.0153 42.0047 21.3703 41.2291 21.7452C39.7692 22.4533 38.3133 23.1734 36.8555 23.8854C36.7642 23.9291 36.665 23.9549 36.5698 23.9906C36.5698 23.5244 36.5718 23.0583 36.5718 22.5922C36.9308 22.4375 37.2978 22.2947 37.6489 22.1241C39.5193 21.2097 41.3838 20.2893 43.2523 19.3729C43.3554 19.3234 43.4685 19.2916 43.5756 19.252C43.5756 19.7161 43.5716 20.1842 43.5696 20.6503Z" fill="#C7554A"/>
    <path d="M22.4991 30.9318C21.7215 30.5728 20.9361 30.2257 20.1665 29.8508C18.2286 28.9067 16.2986 27.9486 14.3647 26.9965C14.2735 26.9529 14.1763 26.9251 14.0811 26.8894C14.0811 26.3955 14.083 25.9036 14.083 25.4097C14.2754 25.3363 14.4242 25.4553 14.5749 25.5327C17.0742 26.8061 19.617 27.9883 22.1182 29.2578C22.2967 29.349 22.507 29.4045 22.5883 29.6247C22.63 30.0373 22.7232 30.4558 22.503 30.8505C22.503 30.8783 22.501 30.9041 22.4991 30.9318Z" fill="#C7554A"/>
    <path d="M22.5031 30.8497C22.5011 30.4074 22.5011 29.967 22.4991 29.5247C22.4813 29.3264 22.6499 29.2867 22.7709 29.2311C25.3514 28.0232 27.8823 26.7121 30.4629 25.5061C30.6037 25.4406 30.7445 25.3395 30.9191 25.4029V26.8013C30.8239 26.837 30.7267 26.8648 30.6354 26.9104C28.519 27.9518 26.4066 28.9991 24.2862 30.0365C23.7011 30.3241 23.0981 30.5799 22.5031 30.8497Z" fill="#C7554A"/>
    <path d="M36.4787 15.4554C36.3835 15.5982 36.2189 15.6379 36.08 15.7073C34.3643 16.5682 32.6486 17.425 30.9308 18.2839C30.8198 18.3394 30.7226 18.2819 30.6214 18.2442C28.0389 16.8498 25.4663 15.4395 22.8817 14.0491C22.6021 13.8983 22.3997 13.8983 22.1201 14.0491C19.5355 15.4395 16.9629 16.8518 14.3804 18.2442C14.2812 18.2839 14.184 18.3374 14.071 18.2859C13.5691 18.1212 13.1169 17.8495 12.6488 17.6115C11.2722 16.9093 9.9036 16.1913 8.53101 15.4792C10.5264 14.418 12.5238 13.3568 14.5192 12.2957C15.033 12.0219 15.5467 11.7482 16.0981 11.4547C15.8859 11.292 15.6598 11.3059 15.4634 11.2543C13.6524 10.7803 11.9228 10.1495 10.5661 8.78088C9.95914 8.16797 9.52078 7.45589 9.32044 6.60893C8.91184 5.17683 9.19747 3.89945 10.1952 2.79661C10.7307 2.20553 11.4408 1.8842 12.1946 1.68585C13.821 1.26137 15.388 1.44584 16.8876 2.20751C17.0938 2.31264 17.2902 2.4495 17.5282 2.48322C18.8036 3.3282 19.9144 4.35169 20.8705 5.54378C21.3564 6.14875 21.7987 6.78149 22.2093 7.43804C22.4989 7.9002 22.4989 7.9002 22.7786 7.45192C23.7267 5.93057 24.8216 4.53219 26.2101 3.38373C26.6008 3.06042 27.0193 2.77281 27.424 2.46735C28.1063 2.21743 28.7311 1.84056 29.4452 1.65808C31.2264 1.20187 32.8965 1.32881 34.4218 2.45347C35.5028 3.25084 36.0721 4.74641 35.7686 6.05354C35.727 6.23008 35.6139 6.41256 35.7627 6.59504C35.6655 6.60099 35.61 6.65257 35.5703 6.74381C34.888 8.3088 33.6046 9.25097 32.1567 10.0146C31.0657 10.5898 29.8994 10.9687 28.622 11.288C28.866 11.4209 29.0485 11.5221 29.233 11.6193C31.5239 12.8233 33.8149 14.0253 36.1038 15.2313C36.2367 15.2967 36.3558 15.38 36.4787 15.4554Z" fill="#EFEEEF"/>
    <path d="M14.0712 18.2867C14.1565 18.253 14.2417 18.2173 14.3251 18.1836C14.5234 18.1935 14.6861 18.2947 14.8547 18.38C17.0702 19.5106 19.3453 20.5241 21.5411 21.6924C22.2155 22.0514 22.7847 22.0514 23.4591 21.6924C25.6549 20.5241 27.928 19.5106 30.1456 18.38C30.3142 18.2947 30.4788 18.1935 30.6752 18.1836L30.931 18.2848C30.9271 20.657 30.9231 23.0313 30.9211 25.4035C28.4774 26.5956 26.0357 27.7897 23.592 28.9798C23.2271 29.1583 22.8264 29.2674 22.5011 29.5253C22.392 29.4856 22.279 29.4558 22.1758 29.4043C19.4782 28.0733 16.7806 26.7424 14.0851 25.4095C14.0791 23.0352 14.0751 20.661 14.0712 18.2867Z" fill="#D65E53"/>
    <path d="M30.6751 18.1827C30.5818 18.3295 30.4152 18.3652 30.2744 18.4346C27.9715 19.5731 25.6687 20.7097 23.3638 21.8442C23.1556 21.9474 22.9314 22.0208 22.7251 22.1279C22.5665 22.2112 22.4355 22.2072 22.2749 22.1279C21.7532 21.868 21.2197 21.63 20.696 21.3722C18.7165 20.4022 16.7409 19.4283 14.7633 18.4524C14.6086 18.3771 14.4301 18.3354 14.323 18.1807C15.5627 17.4984 16.7984 16.8121 18.0401 16.1337C19.4246 15.378 20.815 14.6302 22.1995 13.8765C22.3721 13.7833 22.5109 13.7158 22.7192 13.8289C25.3473 15.2649 27.9815 16.6891 30.6136 18.1172C30.6413 18.1331 30.6572 18.1609 30.6751 18.1827ZM26.0257 9.13591C26.7398 7.69588 27.4876 6.36296 28.7868 5.44262C29.3402 5.04988 29.9431 4.84756 30.6453 4.99236C31.5022 5.16889 31.8414 5.77981 31.4685 6.57718C31.0599 7.45191 30.2982 7.93985 29.4592 8.31672C28.394 8.79475 27.2694 9.02682 26.0257 9.13591ZM18.9723 9.13789C17.4906 8.99508 16.13 8.7035 14.8962 7.97952C14.2952 7.62646 13.7815 7.1762 13.5018 6.51173C13.1844 5.75403 13.5296 5.16493 14.3388 4.99236C15.0569 4.83963 15.6638 5.06575 16.2311 5.46444C17.1237 6.09321 17.7445 6.95603 18.294 7.87837C18.5241 8.26713 18.7224 8.67375 18.9723 9.13789Z" fill="#D86961"/>
</svg>
