<svg width="160" height="45" viewBox="0 0 160 45" fill="none" xmlns="http://www.w3.org/2000/svg">
    <g clip-path="url(#clip0)">
        <path d="M43.115 8.56163e-07V0.0196515C43.0952 0.0196515 36.8653 7.49613e-07 35.204 5.91485C33.6811 11.3384 29.3894 26.3122 29.2707 26.7249H28.0841C28.0841 26.7249 23.6934 11.417 22.1508 5.8952C20.4895 -0.01965 14.2398 8.56163e-07 14.2398 8.56163e-07H0V45H14.2398V18.2751H15.4265L23.733 45H33.6218L41.9283 18.2948H43.115V45H57.3548V8.56163e-07H43.115Z" fill="#4DB45E"/>
        <path d="M95.1298 0C95.1298 0 90.9568 0.373362 88.9988 4.71616L78.9123 26.7249H77.7256V0H63.4858V45H76.9345C76.9345 45 81.3054 44.607 83.2633 40.2838L93.1521 18.2751H94.3387V45H108.579V0H95.1298Z" fill="#4DB45E"/>
        <path d="M114.907 20.4365V44.9998H129.147V30.6549H144.573C151.298 30.6549 156.994 26.3907 159.11 20.4365H114.907Z" fill="#4DB45E"/>
        <path d="M144.574 0H112.91C114.492 8.56769 120.959 15.4454 129.325 17.6856C131.224 18.1965 133.221 18.4716 135.278 18.4716H159.684C159.901 17.4498 160 16.4083 160 15.3275C160 6.85808 153.098 0 144.574 0Z" fill="url(#paint0_linear)"/>
    </g>
    <defs>
        <linearGradient id="paint0_linear" x1="112.91" y1="9.23581" x2="160" y2="9.23581" gradientUnits="userSpaceOnUse">
            <stop offset="0.3" stop-color="#00B4E6"/>
            <stop offset="1" stop-color="#088CCB"/>
        </linearGradient>
        <clipPath id="clip0">
            <rect width="160" height="45" fill="white"/>
        </clipPath>
    </defs>
</svg>
