<svg width="45" height="45" viewBox="0 0 45 45" fill="none" xmlns="http://www.w3.org/2000/svg">
    <g clip-path="url(#clip0)">
        <path d="M22.3761 0C25.8913 0 29.2263 0.821918 32.2459 2.2831C32.7191 2.48858 33.1923 2.76256 33.6655 3.0137L31.6149 4.86301L28.5278 1.64384L23.2098 6.36986L20.0776 2.96804L10.2979 11.7808L16.5623 18.6986L14.1287 20.8447L20.3029 27.7626L17.8693 29.9087L26.7025 39.7489L31.9304 34.9315L36.4822 40.0913C35.5809 40.7763 34.5894 41.4612 33.5303 42.0776C30.2629 43.9269 26.4997 45 22.4662 45C10.0726 45 -1.00969e-05 34.9087 -1.00969e-05 22.5114C-0.0901453 10.137 9.98246 0 22.3761 0ZM18.2524 21.0959L23.6154 16.2785L28.4151 21.6438L23.0521 26.4612L18.2524 21.0959ZM22.0831 30.3653L27.4011 25.5023L32.2459 30.8676L26.8828 35.6849L22.0831 30.3653ZM14.4442 11.9406L19.8072 7.12329L24.6069 12.4886L19.2439 17.3059L14.4442 11.9406ZM24.2689 9.36073L28.2574 5.75342L31.8628 9.74886L27.8743 13.4018L24.2689 9.36073ZM31.3896 25.9132L35.3781 22.3059L38.9835 26.347L34.995 29.9543L31.3896 25.9132ZM34.9048 34.0183L38.8933 30.411L42.4987 34.4064L38.5103 38.0594L34.9048 34.0183ZM36.5273 15.4795L39.1863 13.0822L41.5974 15.7534L38.9384 18.1279L36.5273 15.4795ZM33.1021 7.53425L35.7611 5.09132L38.1722 7.78539L35.5133 10.1826L33.1021 7.53425ZM39.9074 23.4247L42.5663 21.0274L45 23.6986L42.2959 26.0959L39.9074 23.4247ZM27.9644 17.4429L31.9529 13.8356L35.5583 17.831L31.5698 21.4384L27.9644 17.4429Z" fill="#036CB5"/>
    </g>
    <defs>
        <clipPath id="clip0">
            <rect width="45" height="45" fill="white"/>
        </clipPath>
    </defs>
</svg>
