<svg width="45" height="45" viewBox="0 0 45 45" fill="none" xmlns="http://www.w3.org/2000/svg">
    <g clip-path="url(#clip0)">
        <path d="M36.954 30.2521C37.0742 31.1248 36.8036 31.5029 36.5029 31.5029C36.2023 31.5029 35.7813 31.1538 35.3303 30.4557C34.8792 29.7576 34.6988 28.9722 34.9394 28.565C35.0897 28.3032 35.3904 28.1868 35.8114 28.3323C36.5631 28.5941 36.8638 29.7285 36.954 30.2521ZM32.6843 32.1719C33.6164 32.9282 33.887 33.83 33.4059 34.4409C33.1353 34.7899 32.6843 34.9644 32.1731 34.9644C31.6619 34.9644 31.1207 34.7899 30.7599 34.4699C29.918 33.7718 29.6774 32.6083 30.2187 31.9683C30.4291 31.7065 30.79 31.5611 31.1808 31.5611C31.692 31.5902 32.2332 31.7938 32.6843 32.1719ZM31.1508 39.4441C35.1198 39.4441 39.4196 40.7531 44.1704 44.8546C44.6514 45.2618 45.2829 44.7673 44.8619 44.2437C40.1713 38.5133 35.8414 37.437 31.5417 36.5061C26.2797 35.3717 23.5435 32.521 21.6492 29.3504C21.2583 28.7104 21.108 28.8268 21.0779 29.6412C21.0478 30.6303 21.108 31.9392 21.3485 33.2191H20.7171C13.1699 33.2191 7.03599 27.2851 7.03599 19.9838C7.03599 12.6826 13.1699 6.74855 20.7171 6.74855C28.2642 6.74855 34.3982 12.6826 34.3982 19.9838C34.3982 20.5074 34.3681 21.031 34.3079 21.5255C33.3157 21.351 31.3312 21.3219 29.948 21.4383C29.4369 21.4674 29.497 21.7292 29.8879 21.7873C34.3982 22.5727 37.5253 25.278 38.2168 30.223C38.2469 30.3394 38.3972 30.3685 38.4574 30.2812C40.3216 27.2851 41.374 23.7654 41.374 20.0129C41.374 8.95928 32.113 0 20.687 0C9.26104 0 0 8.93019 0 19.9838C0 31.0375 9.26104 39.9968 20.687 39.9968C23.7239 40.0259 26.7307 39.4441 31.1508 39.4441Z" fill="#FF8C00"/>
    </g>
    <defs>
        <clipPath id="clip0">
            <rect width="45" height="45" fill="white"/>
        </clipPath>
    </defs>
</svg>
