<svg width="45" height="45" viewBox="0 0 45 45" fill="none" xmlns="http://www.w3.org/2000/svg">
    <path d="M45 21.5357C44.8984 34.5 34.842 45 22.5508 45C10.2596 45 0.20316 34.5 0 21.5357V19.9286L13.6117 28.0714L42.4605 10.7143C44.1874 14.1429 45 17.7857 45 21.5357ZM13.7133 22.1786L1.0158 14.5714C0.711061 15.4286 0.507901 16.2857 0.406321 17.1429L13.7133 25.0714L41.3431 8.57143C40.9368 7.82143 40.4289 7.17857 39.8194 6.53571L13.7133 22.1786ZM38.0926 4.60714C37.4831 3.96429 36.772 3.42857 36.061 2.78571L13.7133 16.2857L2.94582 9.85714C2.5395 10.6071 2.13318 11.3571 1.82844 12.1071L13.7133 19.2857L38.0926 4.60714ZM13.7133 13.5L33.9278 1.39286C33.1151 0.857143 32.2009 0.428571 31.2867 0L13.7133 10.5L5.89165 5.78571C5.28217 6.42857 4.77427 7.17857 4.26637 7.82143L13.7133 13.5Z" fill="#299D37"/>
</svg>
