<svg width="45" height="45" viewBox="0 0 45 45" fill="none" xmlns="http://www.w3.org/2000/svg">
    <path d="M0.7906 19.4939L0.790395 19.4964C0.771217 19.7141 0.751253 19.9279 0.73141 20.1403C0.70114 20.4644 0.671154 20.7854 0.6447 21.113C0.633346 21.268 0.630718 21.4193 0.627824 21.5859C0.626877 21.6404 0.625902 21.6966 0.624584 21.755C0.619678 21.9725 0.609872 22.2116 0.571917 22.4572C0.53947 23.5788 0.641324 24.7007 0.812193 25.8244L0.7906 19.4939ZM0.7906 19.4939C0.870793 18.5282 1.09127 17.585 1.35226 16.6179L0.7906 19.4939ZM16.3436 1.30623L16.3434 1.30629C12.6801 2.3461 9.50831 4.24577 6.83215 6.99265M16.3436 1.30623L1.3523 16.6178C2.35315 12.92 4.18465 9.71036 6.83215 6.99265M16.3436 1.30623C17.4373 0.995264 18.5591 0.79812 19.7056 0.631869L19.7177 0.630126M16.3436 1.30623L19.7177 0.630126M6.83215 6.99265L6.47402 6.64374L6.83215 6.99265ZM19.7177 0.630126L19.7296 0.627802M19.7177 0.630126L19.7296 0.627802M19.7296 0.627802C19.8665 0.601095 20.0089 0.588961 20.1849 0.573951L20.197 0.572921C20.3535 0.559572 20.5375 0.543574 20.7259 0.506836H20.7894C21.004 0.555199 21.2194 0.555199 21.434 0.506836H21.474C21.6573 0.555199 21.8448 0.555199 22.0282 0.506836H22.2224C22.3536 0.541741 22.4704 0.541951 22.5483 0.539632C22.5736 0.538877 22.5979 0.537667 22.6174 0.536672L22.6232 0.536377C22.6414 0.53545 22.6554 0.534735 22.6693 0.53422C22.6996 0.533097 22.7139 0.53366 22.7214 0.53437L22.7666 0.538646M19.7296 0.627802L22.7666 0.538646M22.7666 0.538646L22.8117 0.534731M22.7666 0.538646L22.8117 0.534731M22.8117 0.534731C22.8405 0.532236 22.8594 0.533182 22.8981 0.535113C22.9245 0.536434 22.9602 0.538216 23.0146 0.539674C23.0999 0.541959 23.2231 0.541429 23.3604 0.506836H23.4668C23.6554 0.543619 23.8394 0.559545 23.997 0.572567L24.0261 0.574969C24.1955 0.58892 24.334 0.60033 24.4682 0.625055L24.4682 0.625094M22.8117 0.534731L24.4682 0.625094M24.4682 0.625094L24.4744 0.626153M24.4682 0.625094L24.4744 0.626153M24.4744 0.626153C24.687 0.662551 24.8964 0.696778 25.1034 0.730622C25.7201 0.831424 26.316 0.928828 26.9135 1.07006C30.0621 1.81526 32.8986 3.21377 35.4314 5.26171L35.4317 5.262M24.4744 0.626153L35.4317 5.262M35.4317 5.262C36.8781 6.42934 38.156 7.76333 39.259 9.2682L39.2592 9.26841M35.4317 5.262L39.2592 9.26841M39.2592 9.26841C39.9664 10.2323 40.6119 11.2159 41.1128 12.2783L39.2592 9.26841ZM43.1368 15.9332C43.7396 17.9644 44.0574 20.0403 44.083 22.1683C44.1232 25.0998 43.6373 27.9309 42.5887 30.6653L43.1368 15.9332ZM43.1368 15.9332L42.6574 16.0754C42.6575 16.0756 42.6575 16.0758 42.6576 16.0759L43.1368 15.9332ZM0.31789 25.8997L0.812207 25.8245L0.31789 25.8997ZM4.69111 36.2792L5.08839 35.9756C5.08836 35.9755 5.08834 35.9755 5.08832 35.9755L4.69111 36.2792ZM15.7098 43.5078C15.7096 43.5078 15.7094 43.5077 15.7092 43.5077C15.7091 43.5076 15.709 43.5076 15.7089 43.5075L15.5566 43.9838L15.7098 43.5078ZM35.3073 40.4719L35.0016 40.0762C35.0016 40.0763 35.0015 40.0763 35.0015 40.0763L35.3073 40.4719ZM41.4358 12.9294C41.4391 12.9348 41.4424 12.9401 41.4456 12.9454L41.8727 12.6854L41.4273 12.9127C41.4301 12.9183 41.433 12.9238 41.4358 12.9294Z" fill="black" stroke="black"/>
    <path d="M20.6752 0.00683594C20.3391 0.151925 19.9811 0.107282 19.634 0.133324C19.802 -0.0266462 20.0395 0.137044 20.2112 0.00683594H20.6752Z" fill="#D6D6D6"/>
    <path d="M24.555 0.133324C24.2043 0.111003 23.8499 0.148205 23.5137 0.00683594H23.9778C24.1495 0.144485 24.387 -0.0303665 24.555 0.133324Z" fill="black"/>
    <path d="M23.2798 0.00683594C23.1191 0.140765 22.9364 0.0403181 22.7647 0.0589193C22.7428 0.0477586 22.7355 0.0365978 22.7428 0.0254371C22.7501 0.0142764 22.7538 0.00683594 22.7611 0.00683594H23.2798ZM21.3691 0.00683594C21.1938 0.0924014 21.022 0.125884 20.8467 0.00683594H21.3691Z" fill="black"/>
    <path d="M22.7612 0.00683594C22.7612 0.0254371 22.7649 0.0403181 22.7649 0.0589193C22.6078 0.055199 22.4433 0.111003 22.2972 0.00683594H22.7612Z" fill="black"/>
    <path d="M21.9502 0.00683594C21.815 0.0961217 21.6799 0.107282 21.5447 0.00683594H21.9502Z" fill="black"/>
    <path d="M0.292174 19.4531C0.241025 20.2939 0.19353 21.1347 0.135074 21.9754C0.124114 22.1205 0.237372 22.2879 0.0766185 22.4107C0.0510441 21.4174 0.12046 20.4315 0.292174 19.4531Z" fill="black"/>
    <path d="M41.8689 12.6825C41.7374 12.504 41.5219 12.37 41.5767 12.0947C41.7009 12.277 41.8031 12.4705 41.8689 12.6825Z" fill="black"/>
    <path d="M1.08135 30.0557C1.11057 30.238 1.12153 30.331 1.07769 30.4537C1.03751 30.331 1.04116 30.2342 1.08135 30.0557Z" fill="black"/>
    <path d="M40.371 12.913C41.0176 14.1034 41.478 15.3683 41.847 16.6704C42.5886 19.2783 42.8261 21.9382 42.5448 24.628C41.9822 29.9591 39.7535 34.4643 35.8699 38.0841C32.8557 40.8929 29.3009 42.6377 25.2601 43.2589C20.1599 44.0402 15.3994 43.0469 11.0371 40.2195C7.4092 37.872 4.77138 34.6503 3.09808 30.625C1.86686 27.6674 1.35171 24.5647 1.53073 21.3616C1.77917 16.9234 3.24057 12.9353 5.95511 9.44569C8.4614 6.22768 11.6253 3.93974 15.4432 2.60045C18.6327 1.48438 21.9026 1.18676 25.2273 1.7262C30.3056 2.54837 34.5035 5.00001 37.8354 8.98438C38.6757 9.98885 39.432 11.064 40.0239 12.247C40.0166 12.5372 40.2212 12.7083 40.371 12.913Z" fill="white"/>
    <path d="M40.3712 12.913C40.2397 12.8683 40.1885 12.7307 40.057 12.6674C39.8962 12.5893 40.0168 12.3922 40.0241 12.2471C40.1775 12.448 40.2945 12.6712 40.3712 12.913Z" fill="black"/>
    <path d="M8.51251 22.7717C8.05217 21.4026 7.58818 20.0373 7.27763 18.6199C6.83191 16.5849 6.64558 14.5313 6.83191 12.448C6.84287 12.329 6.85383 12.2211 6.9342 12.1206C7.67951 11.1571 8.46501 10.227 9.33454 9.37511C9.36743 9.34163 9.40761 9.3193 9.49164 9.24862C9.16283 11.6854 9.2359 14.0514 9.79123 16.3915C9.83142 16.4361 9.86795 16.4398 9.90084 16.384C10.1237 14.4867 10.5512 12.6415 11.2051 10.8483C11.7641 9.32674 12.4912 7.89073 13.4155 6.56633C13.4849 6.46961 13.5543 6.38404 13.6712 6.34312L16.3675 5.37214C16.3931 5.3647 16.4223 5.37214 16.499 5.37214C15.6916 6.37288 15.1217 7.46291 14.7929 8.67198C14.8659 8.73151 14.8952 8.67198 14.9244 8.64594C17.4818 6.39148 20.4777 4.96663 23.6635 3.90637C24.7998 3.5269 25.947 3.1958 27.0868 2.83494C27.2841 2.77169 27.3937 2.81262 27.5435 2.97631C27.876 3.33345 27.9016 3.70547 27.7993 4.15562C27.6824 4.67273 27.7043 4.68017 28.1719 4.90339C28.2596 4.94431 28.3509 4.97779 28.4386 5.01127C28.5994 5.11916 28.8113 5.108 28.9538 5.25681C29.2022 5.3833 29.4506 5.51351 29.6991 5.63627C30.0206 5.79624 30.0206 5.79252 30.1229 5.44282C30.2727 5.46886 30.364 5.58791 30.47 5.67348C31.5368 6.51797 32.4209 7.50383 32.8265 8.858C33.0274 9.5202 33.1334 10.1973 33.1078 10.8855C33.0786 11.6668 33.422 12.2174 34.0285 12.6303C34.2513 12.7828 34.4705 12.9391 34.719 13.0433C34.8615 13.1177 35.0222 13.1623 35.1428 13.2851C35.5227 13.5157 35.899 13.7501 36.279 13.977C36.5859 14.1593 36.7065 14.5127 36.5055 14.8029C36.3375 15.0485 36.2461 15.3126 36.2059 15.5879C36.1146 16.2166 35.6214 16.5477 35.1939 16.8379C34.9163 17.0276 34.4303 17.0276 34.0431 16.8342C33.8933 16.7598 33.7471 16.7858 33.6339 16.9272C33.5389 17.0462 33.4768 17.2248 33.2795 17.169C33.1078 17.1244 33.1005 16.9495 33.0749 16.8081C33.0091 16.4733 32.7644 16.5998 32.6292 16.6705C32.3661 16.8156 32.1944 16.7635 32.0446 16.5254C32.0264 16.4956 31.9971 16.4621 31.9679 16.4435C31.4966 16.1831 30.5978 16.5254 30.3969 17.0276C30.3421 17.1653 30.3604 17.2174 30.5138 17.2322C31.1751 17.2955 31.6025 17.6638 31.8583 18.2813C31.9971 18.6162 32.2529 18.6534 32.5378 18.4264C32.6255 18.3557 32.6913 18.2516 32.8813 18.2255C32.6292 18.7315 32.9178 18.9919 33.2722 19.2263C33.3599 19.2858 33.3745 19.3602 33.327 19.4532C33.2795 19.5499 33.243 19.6504 33.1955 19.7471C32.9141 20.2791 32.8703 20.294 32.3077 20.108C30.7221 19.5909 29.1145 19.204 27.4412 19.1444C27.3791 19.1407 27.306 19.1668 27.2366 19.0812C27.3901 18.8915 27.5435 18.698 27.7152 18.4822C27.1343 18.4822 26.59 18.4711 26.0492 18.486C24.7376 18.5157 23.426 18.5641 22.1181 18.6906C20.7627 18.8208 19.4182 19.0217 18.1358 19.5239C17.5366 19.7583 17.259 20.1935 17.3065 20.8483C17.3211 21.0343 17.2955 21.079 17.0946 21.1124C15.1765 21.4063 13.4703 22.1318 12.261 23.7575C11.5961 24.6541 11.4536 25.6846 11.7057 26.7784C11.7385 26.7709 11.7678 26.7709 11.7751 26.7598C12.2646 25.9078 13.1305 25.7069 13.9599 25.4726C15.1217 25.1415 16.3237 25.1266 17.522 25.1749C17.9129 25.1898 18.2454 25.4242 18.5194 25.7181C18.5961 25.7999 18.7204 25.9301 18.6254 26.0157C18.5304 26.1013 18.3294 26.131 18.2235 26.012C17.891 25.64 17.4964 25.4837 17.0069 25.5656C16.5465 25.6437 16.152 25.8483 15.8085 26.1682C15.5674 26.3914 15.2824 26.2873 15.0121 26.2538C14.8403 26.2315 14.5992 26.0789 14.5261 26.3022C14.464 26.5031 14.7052 26.6407 14.8732 26.7449C15.1545 26.9123 15.4651 26.9123 15.7756 26.8528C16.1848 26.7784 16.5867 26.6705 16.9959 26.6072C17.343 26.5514 17.6901 26.5589 17.9495 26.942C17.2736 27.0834 16.6233 27.2211 15.9729 27.3513C15.0267 27.5373 14.0768 27.7121 13.1305 27.8944C13.0574 27.9093 12.9588 27.8981 12.9332 27.9837C12.9077 28.073 13.0026 28.1214 13.0574 28.166C13.5105 28.538 13.9964 28.8133 14.6065 28.7724C16.0204 28.6831 17.4343 28.5752 18.8555 28.6422C19.652 28.6794 20.3388 28.9547 20.9599 29.4309C21.9537 30.1898 22.2533 31.2501 21.8587 32.5261C21.687 33.0767 21.4312 33.5864 21.1061 34.1556C21.6066 33.9398 21.9756 33.6719 22.3081 33.3446C22.4615 33.1958 22.6077 33.0358 22.7319 32.8647C22.805 32.7642 22.8415 32.7084 22.9401 32.8163C22.9986 32.9539 22.9146 33.1065 22.9913 33.2441C23.3384 36.0194 22.2715 38.564 19.1661 39.2709C15.8268 40.0335 12.809 39.189 10.1748 36.9643C9.9666 36.7858 9.75104 36.5998 9.60856 36.3542C9.57933 36.3059 9.50991 36.2724 9.53549 36.2054C9.57202 36.1199 9.6524 36.1645 9.71451 36.1645C11.0261 36.198 12.3377 36.1868 13.6457 36.0715C15.2642 35.9264 16.8498 35.6288 18.3623 35.0001C18.439 34.9666 18.5158 34.9294 18.5888 34.8364C18.4719 34.8364 18.355 34.8327 18.2381 34.8364C14.95 34.8996 11.7458 34.3825 8.62577 33.326C7.91334 33.0841 7.21187 32.8126 6.51405 32.5261C6.37522 32.4703 6.30215 32.3699 6.23273 32.2508C5.34128 30.7441 4.74942 29.1109 4.23062 27.4443C4.18678 27.3066 4.10275 27.1801 4.11737 27.0239C4.2014 26.9755 4.24158 27.0499 4.28908 27.0834C6.56155 28.7092 9.03861 29.9108 11.6764 30.785C11.8116 30.8297 11.9285 30.9339 12.0856 30.9004C12.1952 30.9413 12.3194 30.9041 12.4254 30.9599C12.4364 30.9636 12.451 30.9785 12.4619 30.9785C12.4802 30.9822 12.4802 30.9711 12.4583 30.9636C12.3852 30.9339 12.3194 30.9004 12.2756 30.8334C12.1368 30.7181 12.0016 30.6065 11.8628 30.4911C11.8189 30.4167 11.8701 30.3647 11.9103 30.2865C11.8043 30.2865 11.713 30.3572 11.618 30.3163C10.5913 29.6355 9.64144 28.8542 8.72076 28.0321C6.74422 26.2687 5.02708 24.2821 3.68991 21.9681C3.62414 21.8565 3.56569 21.7523 3.58396 21.611C3.82509 19.9517 4.08814 18.2962 4.59232 16.6928C4.59597 16.6742 4.61424 16.663 4.66173 16.6072C5.44723 18.9807 6.69673 21.038 8.38098 22.8275C8.43579 22.8535 8.45771 22.9577 8.52712 22.9168C8.56731 22.9019 8.56001 22.8163 8.51251 22.7717Z" fill="black"/>
    <path d="M33.1809 36.5585C32.5745 37.0533 32.0484 37.6448 31.3834 38.147C31.4675 37.6188 31.5442 37.1389 31.5698 36.6515C31.694 33.9246 30.7733 31.5697 29.0854 29.5012C27.5071 27.5704 25.5086 26.2088 23.3129 25.1225C23.0462 24.9886 22.7832 24.8397 22.4945 24.7579C22.3009 24.7133 22.1365 24.6017 21.9575 24.5235H21.9611C21.8661 24.4789 21.7529 24.4714 21.6688 24.4008C21.0551 24.1217 20.423 23.8799 19.7727 23.7088C19.3745 23.6009 19.2722 23.4409 19.4256 23.0466C19.5973 22.6113 19.791 22.1872 19.9919 21.7259C19.5827 21.7445 19.221 21.8189 18.9105 22.0421C18.7132 22.1835 18.5086 22.1947 18.3113 22.0942C18.1067 21.99 18.0556 21.7854 18.0629 21.5697C18.0738 21.0414 18.3076 20.6396 18.7424 20.3457C18.9032 20.8442 19.0456 20.9744 19.4841 20.8665C20.054 20.7252 20.6313 20.7326 21.2048 20.6842C21.7309 20.6396 22.2607 20.6098 22.7905 20.5726C22.8343 20.7066 22.7247 20.7363 22.6699 20.7847C21.9282 21.4692 21.1829 22.15 20.4376 22.8345C20.3719 22.8941 20.3061 22.9536 20.2513 23.0206C20.0723 23.2363 20.0978 23.3628 20.3426 23.4744C20.5436 23.5674 20.7591 23.6381 20.982 23.6456C23.9778 23.7348 26.4951 24.9514 28.6506 27.0161C28.7347 27.0979 28.826 27.1686 28.9137 27.243C29.1256 27.4216 29.3156 27.6188 29.4909 27.8308H29.4946C29.564 27.8792 29.6334 27.9313 29.659 28.0206C30.0061 28.4149 30.3532 28.8055 30.7002 29.1999C30.6747 29.3375 30.587 29.2594 30.5212 29.2557C30.0865 29.1813 29.6553 29.1069 29.1475 29.0176C29.4325 29.3561 29.6663 29.65 29.9147 29.9328C30.8756 31.0302 31.8949 32.0756 32.7389 33.2772C33.2284 33.9729 33.6376 34.7133 33.9372 35.5168C34.0212 35.74 33.9884 35.874 33.7984 36.0042C33.6778 36.0823 33.5828 36.1976 33.4732 36.2944C33.3819 36.4022 33.2832 36.4804 33.1809 36.5585ZM30.1887 24.4045C33.0092 25.3569 35.4863 26.9045 37.682 28.9246C38.2483 29.4454 38.1899 29.211 37.9451 29.9439C37.7076 30.6545 37.3678 31.313 36.9623 31.938C36.9148 32.0086 36.8856 32.0979 36.7723 32.1314C36.5056 31.4246 36.2024 30.74 35.8297 30.0853C34.5729 27.8755 32.7937 26.2014 30.671 24.8807C30.4628 24.7505 30.2509 24.6203 30.0426 24.49C30.0353 24.3673 30.112 24.3859 30.1887 24.4045Z" fill="black"/>
    <path d="M24.6208 40.2195C25.4793 39.5833 26.0748 38.7351 26.5388 37.779C27.0028 36.8229 27.2768 35.8036 27.4522 34.7545C27.4632 34.6875 27.4851 34.6205 27.4997 34.5536C27.6056 34.282 27.5691 33.9918 27.6093 33.7128C27.613 33.6384 27.6166 33.564 27.6239 33.4933C27.6678 33.4635 27.6166 33.3519 27.7226 33.378C27.7262 33.4115 27.7335 33.4487 27.7372 33.4822C27.8139 33.7947 27.7956 34.122 27.8541 34.4345C27.9673 35.4576 27.9016 36.4732 27.7701 37.4888C27.6641 38.3073 27.4668 39.1071 27.2147 39.8921C27.1745 40.0186 27.1307 40.119 26.9809 40.1525C26.0164 40.3497 25.0555 40.5543 24.0946 40.7552C24.0289 40.7664 24.0106 40.7366 24.0179 40.6771C24.1385 40.5878 24.2627 40.4948 24.3833 40.4055C24.46 40.3385 24.5258 40.2567 24.6208 40.2195ZM33.707 20.9301C33.6558 20.8929 33.601 20.852 33.4951 20.7739C34.6861 20.8073 35.815 20.7925 36.9147 20.4502C36.5603 20.8817 36.089 21.1124 35.6031 21.317C35.6324 21.4286 35.7274 21.41 35.7968 21.4323C36.9184 21.782 38.0437 22.1355 39.1689 22.474C39.3553 22.5298 39.4356 22.5968 39.421 22.8125C39.3699 23.4933 39.3443 24.1741 39.3078 24.9182C38.8913 24.5536 38.5186 24.2188 38.1387 23.8951C36.8417 22.7939 35.4716 21.7969 33.9444 21.0454C33.8677 20.9971 33.78 20.9785 33.707 20.9301Z" fill="black"/>
    <path d="M11.6216 30.3203C11.6399 30.3129 11.6545 30.3017 11.6728 30.2943C11.7641 30.2608 11.8664 30.1418 11.9541 30.2459C12.0381 30.3426 11.8664 30.4022 11.8664 30.4989C11.7714 30.4617 11.6838 30.4133 11.6216 30.3203Z" fill="black"/>
    <path d="M29.4764 27.831C29.2645 27.6524 29.0672 27.4627 28.8991 27.2432C29.1585 27.3734 29.3521 27.5668 29.4764 27.831Z" fill="black"/>
    <path d="M27.8616 34.4387C27.7629 34.1299 27.7593 33.8063 27.7447 33.4863C27.8799 33.7877 27.8652 34.115 27.8616 34.4387ZM27.6168 33.717C27.6168 34.0034 27.6899 34.2973 27.5072 34.5577C27.5145 34.2713 27.5474 33.9923 27.6168 33.717Z" fill="black"/>
    <path d="M28.954 5.26018C28.7713 5.2081 28.5923 5.13742 28.4388 5.01465C28.6252 5.06673 28.8517 5.02209 28.954 5.26018Z" fill="black"/>
    <path d="M8.51252 22.7715C8.62213 22.8384 8.63309 22.9463 8.6404 23.0951C8.50887 23.0245 8.43215 22.9501 8.38831 22.831C8.44311 22.8422 8.51252 22.8757 8.51252 22.7715Z" fill="black"/>
    <path d="M27.6276 33.207C27.602 33.0731 27.602 32.9429 27.697 32.7979C27.7701 32.9466 27.7518 33.0694 27.7445 33.1922C27.7116 33.2331 27.6714 33.2331 27.6276 33.207Z" fill="black"/>
    <path d="M12.283 30.8367C12.3853 30.8219 12.4438 30.9037 12.5132 30.9558C12.5241 31.019 12.5059 31.0488 12.4401 31.0302C12.3195 31.0041 12.1953 30.9855 12.093 30.9074C12.1515 30.8777 12.2428 30.926 12.283 30.8367Z" fill="black"/>
    <path d="M21.9539 24.5234C22.1476 24.5681 22.3266 24.6425 22.491 24.7578C22.3777 24.7951 22.2864 24.7132 22.1804 24.7058C22.1293 24.6165 21.9941 24.6313 21.9539 24.5234Z" fill="black"/>
    <path d="M30.1888 24.405C30.134 24.4199 30.0756 24.431 30.0427 24.4905C29.966 24.4496 29.8929 24.405 29.8162 24.3641C29.8089 24.2525 29.8673 24.2599 29.9404 24.2971C30.0208 24.338 30.1267 24.3231 30.1888 24.405Z" fill="black"/>
    <path d="M35.143 13.2887C34.9823 13.244 34.8508 13.1473 34.7192 13.0469C34.8946 13.0655 35.0554 13.1138 35.143 13.2887Z" fill="black"/>
    <path d="M29.6445 28.0208L29.4801 27.8311C29.6811 27.7641 29.6994 27.8608 29.6445 28.0208Z" fill="black"/>
    <path d="M33.1808 36.5583C33.2502 36.4467 33.3452 36.3611 33.4584 36.2979C33.4183 36.4429 33.3306 36.5322 33.1808 36.5583Z" fill="black"/>
    <path d="M24.621 40.2198C24.5698 40.3203 24.4785 40.3649 24.3835 40.4021C24.4712 40.3537 24.4018 40.0934 24.621 40.2198Z" fill="black"/>
    <path d="M27.6277 33.2063C27.6679 33.2026 27.7045 33.1951 27.7447 33.1914C27.7374 33.2547 27.7337 33.3179 27.7264 33.3811C27.6935 33.4183 27.6606 33.4593 27.6277 33.4965V33.2063Z" fill="black"/>
    <path d="M29.9402 24.297C29.8927 24.3118 29.8379 24.3044 29.8159 24.3639C29.7465 24.3714 29.699 24.3304 29.6515 24.2932C29.6479 24.1816 29.7136 24.2114 29.7757 24.23L29.9402 24.297Z" fill="black"/>
    <path d="M24.0217 40.6738L24.0984 40.752C24.029 40.8226 23.9267 40.8561 23.8828 40.7706C23.8463 40.7073 23.9522 40.6813 24.0217 40.6738Z" fill="black"/>
    <path d="M22.9915 33.2588C22.8928 33.1249 22.9294 32.9761 22.9403 32.8311C23.0208 32.965 22.9988 33.1138 22.9915 33.2588Z" fill="black"/>
    <path d="M21.6652 24.4043C21.7711 24.4192 21.8771 24.4489 21.9574 24.5271C21.8369 24.5382 21.7309 24.5196 21.6652 24.4043Z" fill="black"/>
    <path d="M30.5065 29.2589C30.565 29.2403 30.6271 29.2217 30.6856 29.2031C30.7331 29.1957 30.7551 29.2329 30.7587 29.2664C30.766 29.3184 30.7149 29.3259 30.6856 29.3184C30.6235 29.3036 30.565 29.2775 30.5065 29.2589Z" fill="black"/>
    <path d="M9.90107 16.3877C9.91568 16.4509 9.94126 16.5402 9.85357 16.5439C9.75857 16.5476 9.78414 16.4584 9.79511 16.3951C9.82799 16.3914 9.86453 16.3914 9.90107 16.3877Z" fill="black"/>
    <path d="M22.1804 24.71C22.1804 24.7435 22.2461 24.803 22.1621 24.8067C22.1292 24.8104 22.0927 24.7583 22.0562 24.736C22.0963 24.7286 22.1402 24.7174 22.1804 24.71Z" fill="black"/>
    <path d="M29.7757 24.2303C29.7356 24.2527 29.6917 24.2713 29.6515 24.2936C29.6113 24.275 29.5712 24.2564 29.531 24.2415C29.52 24.1857 29.5346 24.1559 29.5967 24.1708C29.6552 24.1894 29.7173 24.2117 29.7757 24.2303Z" fill="black"/>
    <path d="M29.5968 24.1709C29.5749 24.1933 29.5529 24.2156 29.531 24.2416C29.4835 24.2156 29.436 24.1895 29.3776 24.156C29.4726 24.0928 29.5347 24.1263 29.5968 24.1709Z" fill="black"/>
    <path d="M33.707 20.9307C33.802 20.9344 33.886 20.9604 33.9408 21.0497C33.8421 21.0571 33.7618 21.0162 33.707 20.9307Z" fill="black"/>
    <path d="M19.579 15.4653C19.4109 15.5955 19.2392 15.7257 19.0419 15.8001C18.9396 15.8374 18.8118 15.9006 18.7204 15.7853C18.6437 15.6848 18.7022 15.5844 18.7497 15.4839C19.126 14.699 19.5388 13.9363 20.0028 13.1997C20.9016 11.7637 21.9318 10.4318 23.1083 9.21533C23.2836 9.03676 23.4225 8.82098 23.6307 8.67589C23.7038 8.63869 23.7586 8.57917 23.8097 8.51964C23.8134 8.50104 23.8243 8.48988 23.8463 8.48988C23.9084 8.47128 23.9303 8.50104 23.923 8.56057C23.0973 9.99658 22.2241 11.4028 21.4496 12.8686C21.3619 12.9207 21.3802 13.0323 21.3181 13.0993C21.2961 13.1551 21.2742 13.2146 21.2559 13.2704C21.0842 13.2369 21.2231 13.129 21.1829 13.0732C21.2158 13.3522 21.0367 13.5903 20.9746 13.8656C20.9783 13.9661 21.0294 13.9698 21.1098 13.94C21.2998 13.8731 21.4934 13.8098 21.6871 13.7466C21.8332 13.6982 21.9903 13.6126 22.1145 13.7652C22.2424 13.9214 22.2935 14.1037 22.2132 14.3121C22.0378 14.7696 21.8843 15.231 21.8003 15.7183C21.7272 16.1461 21.698 16.574 21.8295 16.9981C21.972 17.4668 22.2899 17.7533 22.732 17.9207C22.7794 17.9393 22.8525 17.917 22.8781 18.0137C22.4872 18.1216 22.0853 18.0955 21.6907 18.1476C21.4423 18.1811 21.1938 18.222 20.96 18.315C20.8212 18.3671 20.6824 18.3932 20.5362 18.382C20.1599 18.3522 19.9845 18.1625 20.043 17.783C20.1599 17.0204 20.328 16.2652 20.5106 15.5174C20.5654 15.4728 20.5399 15.4095 20.5472 15.3537C20.5618 15.2347 20.6824 15.0859 20.5545 15.0077C20.4558 14.9482 20.328 15.0635 20.2184 15.1193C19.9955 15.231 19.7653 15.3091 19.579 15.4653Z" fill="black"/>
    <path d="M31.0071 12.7682C30.2581 12.013 29.743 11.0829 29.0196 10.2087C29.6772 10.2682 30.2508 10.112 30.8244 10.3649C31.4565 10.6402 31.8036 10.3649 31.8986 9.60228C31.9095 9.50927 31.7853 9.3121 32.0191 9.31954C32.231 9.32698 32.2712 9.46463 32.2603 9.66552C32.2384 10.0785 32.242 10.4877 32.2237 10.9006C32.2201 11.016 32.1982 11.135 32.1616 11.2466C32.0155 11.6856 31.8255 11.7489 31.4565 11.481C31.3615 11.414 31.2629 11.3508 31.1788 11.2727C31.0692 11.1685 30.9779 11.2132 30.8719 11.2764C30.7441 11.3545 30.7696 11.4438 30.8135 11.5517C30.9669 11.9349 31.0217 12.3404 31.0071 12.7682Z" fill="black"/>
    <path d="M26.5171 4.26789C26.5244 4.37577 26.444 4.43902 26.3929 4.51714C26.1919 4.8408 25.9947 5.16446 25.8302 5.50672C25.717 5.74854 25.5928 5.98291 25.8814 6.19496C25.9179 6.221 25.9325 6.27681 25.9545 6.32145C26.0531 6.50746 26.0933 6.62651 25.7901 6.63023C25.4576 6.63395 25.0886 6.63767 24.7999 6.77532C24.5698 6.88321 24.3579 6.89065 24.1313 6.91669C23.9231 6.94273 23.8318 6.80508 23.9414 6.63395C24.5552 5.68157 25.2968 4.8594 26.3016 4.31253C26.3527 4.28649 26.4075 4.26789 26.4623 4.253C26.4733 4.24556 26.4952 4.26044 26.5171 4.26789Z" fill="black"/>
    <path d="M19.5792 15.4646C19.7618 15.2227 20.0614 15.1744 20.3026 15.0293C20.3903 14.9772 20.4999 14.9586 20.551 14.7949C20.6679 15.0814 20.6131 15.3009 20.4962 15.5166C20.4962 15.4794 20.4999 15.4385 20.4999 15.4013C20.4999 15.286 20.6204 15.1446 20.5364 15.0702C20.4341 14.9847 20.3135 15.1186 20.2039 15.1669C19.992 15.2525 19.7874 15.3604 19.5792 15.4646Z" fill="black"/>
    <path d="M20.9673 13.8656C20.8979 13.7689 20.9564 13.6982 20.9929 13.6052C21.0696 13.4229 21.1464 13.2406 21.1464 13.0137C21.2267 13.1067 21.161 13.2183 21.2487 13.2741C21.1756 13.4787 21.1025 13.687 20.9673 13.8656Z" fill="black"/>
    <path d="M23.9193 8.55662C23.8937 8.5343 23.8681 8.50826 23.8425 8.48594C23.8864 8.43014 23.9339 8.37434 23.9777 8.32227C24.0764 8.32227 24.0727 8.37062 24.0362 8.4413C23.9924 8.47478 24.0033 8.56777 23.9193 8.55662Z" fill="black"/>
    <path d="M24.0327 8.43801C24.029 8.38964 24.0327 8.34128 23.9742 8.31896C24.0107 8.27431 24.0473 8.23339 24.0838 8.18875C24.1423 8.1813 24.1679 8.20735 24.1606 8.26315C24.1204 8.3264 24.0765 8.3822 24.0327 8.43801Z" fill="black"/>
    <path d="M24.1641 8.26587C24.1386 8.23983 24.113 8.21379 24.0874 8.19147C24.1276 8.14683 24.1605 8.05383 24.2299 8.11707C24.2921 8.18031 24.208 8.22495 24.1641 8.26587Z" fill="black"/>
    <path d="M21.3107 13.0988C21.3071 12.9947 21.318 12.8979 21.4422 12.8682C21.4313 12.9612 21.413 13.0542 21.3107 13.0988Z" fill="black"/>
    <path d="M12.4401 31.0305L12.5132 30.9561C12.5753 30.9672 12.6703 30.9933 12.6301 31.0602C12.5899 31.1272 12.4986 31.0863 12.4401 31.0305Z" fill="black"/>
    <path d="M23.8062 8.51562C23.7952 8.62723 23.7367 8.67931 23.6271 8.67187C23.6856 8.61979 23.744 8.56771 23.8062 8.51562Z" fill="black"/>
</svg>
