<svg width="30" height="45" viewBox="0 0 30 45" fill="none" xmlns="http://www.w3.org/2000/svg">
    <g clip-path="url(#clip0)">
        <path d="M14.9743 -0.000179291C18.1069 -0.000179291 19.2256 2.15144 19.8969 4.30307C20.3444 5.16372 28.6233 27.1103 28.847 27.7558C28.847 27.9709 28.847 28.1861 28.6233 28.4012C28.3995 28.4012 23.9245 30.1225 23.7007 30.1225C23.4769 30.1225 23.2532 30.1225 23.0294 29.9074C23.0294 29.6922 21.2394 24.9587 21.0157 24.3132H8.70919C8.48544 24.7435 6.6954 29.6922 6.6954 29.9074C6.6954 30.1225 6.2479 30.3377 6.02414 30.1225C5.80039 30.1225 1.54906 28.4012 1.10156 28.4012C0.877803 28.4012 0.654049 27.9709 0.877803 27.7558C1.10156 26.8951 9.38045 5.59404 9.82796 4.30307C10.723 2.15144 11.8417 -0.000179291 14.9743 -0.000179291ZM0.430295 38.9442C0.206542 38.9442 -0.0172119 39.1594 -0.0172119 39.3745V44.5384C-0.0172119 44.7536 0.206542 44.9688 0.430295 44.9688H29.5183C29.7421 44.9688 29.9658 44.7536 29.9658 44.5384V39.3745C29.9658 39.1594 29.7421 38.9442 29.5183 38.9442H0.430295ZM14.9743 7.10017L10.723 19.1493H19.0019L14.9743 7.10017Z" fill="#EE2A23"/>
    </g>
    <defs>
        <clipPath id="clip0">
            <rect width="30" height="45" fill="white"/>
        </clipPath>
    </defs>
</svg>
