<svg width="54" height="45" viewBox="0 0 54 45" fill="none" xmlns="http://www.w3.org/2000/svg">
    <path d="M40.7048 22.4677H7.30922C7.30922 22.4677 8.31739 25.7604 9.45158 27.439H39.1295C39.1295 27.439 44.8005 31.9584 47.5099 39.9641H16.3827C10.9638 35.5093 6.93116 29.4405 4.85181 22.4677C5.10385 21.6284 5.4189 20.7891 5.73396 19.9498H40.7048C43.4142 18.0129 46.1237 14.9785 46.1237 14.9785H8.19137C8.69545 14.1392 9.19953 13.2999 9.82964 12.4605H48.14C49.1482 11.2339 51.1645 7.48924 51.1645 7.48924H13.9883C14.8705 6.58537 15.8156 5.74606 16.8238 4.97131H52.2987C53.3069 2.5825 54 0 54 0H15.4376C8.06534 5.35868 2.52042 13.2353 0 22.4677C2.45741 31.6356 8.00233 39.5768 15.4376 45H53.874C53.874 45 53.1809 32.9914 40.7048 22.4677Z" fill="#3C5186"/>
</svg>
