<svg width="156" height="40" viewBox="0 0 156 40" fill="none" xmlns="http://www.w3.org/2000/svg">
    <g opacity="0.5">
        <path d="M120.591 10.4346H112.172C111.676 10.4346 111.181 10.9315 110.933 11.4284L107.467 33.2917C107.467 33.7886 107.714 34.0371 108.21 34.0371H112.667C113.162 34.0371 113.41 33.7886 113.41 33.2917L114.4 27.0805C114.4 26.5836 114.895 26.0868 115.638 26.0868H118.362C124.057 26.0868 127.276 23.3538 128.019 17.888C128.514 15.652 128.019 13.6644 127.029 12.4222C125.543 11.1799 123.314 10.4346 120.591 10.4346ZM121.581 18.6333C121.086 21.6147 118.857 21.6147 116.629 21.6147H115.143L116.133 15.9004C116.133 15.652 116.381 15.4035 116.876 15.4035H117.372C118.857 15.4035 120.343 15.4035 121.086 16.3973C121.581 16.6458 121.581 17.3911 121.581 18.6333Z" fill="#CBCBCB"/>
        <path d="M59.9236 10.4346H51.5046C51.0093 10.4346 50.5141 10.9315 50.2665 11.4284L46.7998 33.2917C46.7998 33.7886 47.0474 34.0371 47.5427 34.0371H51.5046C51.9998 34.0371 52.495 33.5402 52.7427 33.0433L53.7331 27.0805C53.7331 26.5836 54.2284 26.0868 54.9712 26.0868H57.695C63.3903 26.0868 66.6093 23.3538 67.3522 17.888C67.8474 15.652 67.3522 13.6644 66.3617 12.4222C64.876 11.1799 62.895 10.4346 59.9236 10.4346ZM60.9141 18.6333C60.4189 21.6147 58.1903 21.6147 55.9617 21.6147H54.7236L55.7141 15.9004C55.7141 15.652 55.9617 15.4035 56.4569 15.4035H56.9522C58.4379 15.4035 59.9236 15.4035 60.6665 16.3973C60.9141 16.6458 61.1617 17.3911 60.9141 18.6333Z" fill="#DBDBDB"/>
        <path d="M85.4283 18.3846H81.4664C81.2188 18.3846 80.7236 18.633 80.7236 18.8815L80.476 20.1237L80.2283 19.6268C79.2379 18.3846 77.5045 17.8877 75.5236 17.8877C71.0664 17.8877 67.1045 21.366 66.3617 26.0865C65.8664 28.5709 66.6093 30.807 67.8474 32.2976C69.0855 33.7883 70.8188 34.2852 73.0474 34.2852C76.7617 34.2852 78.7426 32.0492 78.7426 32.0492L78.495 33.2914C78.495 33.7883 78.7426 34.0368 79.2379 34.0368H82.9521C83.4474 34.0368 83.9426 33.5399 84.1902 33.043L86.4188 19.1299C86.1712 18.8815 85.676 18.3846 85.4283 18.3846ZM79.7331 26.3349C79.2379 28.5709 77.5045 30.3101 75.0283 30.3101C73.7902 30.3101 72.7998 29.8132 72.3045 29.3163C71.8093 28.5709 71.5617 27.5771 71.5617 26.3349C71.8093 24.0989 73.7902 22.3597 76.0188 22.3597C77.2569 22.3597 77.9998 22.8566 78.7426 23.3535C79.4855 24.0989 79.7331 25.3411 79.7331 26.3349Z" fill="#DBDBDB"/>
        <path d="M145.848 18.3856H141.886C141.638 18.3856 141.143 18.634 141.143 18.8825L140.895 20.1247L140.648 19.6278C139.657 18.3856 137.924 17.8887 135.943 17.8887C131.486 17.8887 127.524 21.3669 126.781 26.0874C126.286 28.5719 127.029 30.8079 128.267 32.2986C129.505 33.7893 131.238 34.2862 133.467 34.2862C137.181 34.2862 139.162 32.0502 139.162 32.0502L138.914 33.2924C138.914 33.7893 139.162 34.0378 139.657 34.0378H143.372C143.867 34.0378 144.362 33.5409 144.61 33.044L146.838 19.1309C146.591 18.8825 146.343 18.3856 145.848 18.3856ZM140.153 26.3359C139.657 28.5719 137.924 30.311 135.448 30.311C134.21 30.311 133.219 29.8141 132.724 29.3172C132.229 28.5719 131.981 27.5781 131.981 26.3359C132.229 24.0999 134.21 22.3607 136.438 22.3607C137.676 22.3607 138.419 22.8576 139.162 23.3545C140.153 24.0999 140.4 25.3421 140.153 26.3359Z" fill="#CBCBCB"/>
        <path d="M106.971 18.3848H102.762C102.267 18.3848 102.019 18.6332 101.771 18.8817L96.3238 27.3289L93.8476 19.3786C93.6 18.8817 93.3524 18.6332 92.6096 18.6332H88.6476C88.1524 18.6332 87.9048 19.1301 87.9048 19.627L92.3619 32.7947L88.1524 38.7574C87.9048 39.2543 88.1524 39.9997 88.6476 39.9997H92.6096C93.1048 39.9997 93.3524 39.7512 93.6 39.5028L107.219 19.8755C107.962 19.1301 107.467 18.3848 106.971 18.3848Z" fill="#DBDBDB"/>
        <path d="M150.552 11.1803L147.085 33.5406C147.085 34.0375 147.333 34.2859 147.828 34.2859H151.295C151.79 34.2859 152.285 33.789 152.533 33.2921L156 11.4287C156 10.9318 155.752 10.6834 155.257 10.6834H151.295C151.047 10.435 150.8 10.6834 150.552 11.1803Z" fill="#CBCBCB"/>
        <path d="M28.4762 2.98136C26.7429 0.993786 23.5238 0 19.0667 0H6.68572C5.94286 0 5.2 0.745338 4.95238 1.49068L0 34.0373C0 34.7826 0.495238 35.2795 0.990476 35.2795H8.66667L10.6476 23.1056V23.6025C10.8952 22.8572 11.6381 22.1118 12.381 22.1118H16.0952C23.2762 22.1118 28.7238 19.1304 30.4571 10.9317C30.4571 10.6832 30.4571 10.4348 30.4571 10.1863C30.2095 10.1863 30.2095 10.1863 30.4571 10.1863C30.7048 6.95652 30.2095 4.96894 28.4762 2.98136Z" fill="#DBDBDB"/>
        <path d="M30.2095 10.1865C30.2095 10.435 30.2095 10.6834 30.2095 10.9319C28.4762 19.3791 23.0286 22.112 15.8476 22.112H12.1334C11.3905 22.112 10.6476 22.8573 10.4 23.6027L7.92383 38.758C7.92383 39.2549 8.17145 39.7518 8.9143 39.7518H15.3524C16.0953 39.7518 16.8381 39.2549 16.8381 38.5095V38.2611L18.0762 30.5592V30.0623C18.0762 29.317 18.8191 28.8201 19.5619 28.8201H20.5524C26.7429 28.8201 31.6953 26.3356 32.9334 18.8822C33.4286 15.9008 33.181 13.1679 31.6953 11.4288C31.4476 10.9319 30.9524 10.435 30.2095 10.1865Z" fill="#CBCBCB"/>
        <path d="M28.476 9.44065C28.2284 9.44065 27.9808 9.1922 27.7332 9.1922C27.4856 9.1922 27.2379 9.1922 26.9903 8.94376C25.9998 8.69531 25.0094 8.69531 23.7713 8.69531H14.1141C13.8665 8.69531 13.6189 8.69531 13.3713 8.94376C12.876 9.1922 12.6284 9.6891 12.6284 10.186L10.6475 23.1053V23.6022C10.8951 22.8568 11.6379 22.1115 12.3808 22.1115H16.0951C23.276 22.1115 28.7237 19.1301 30.457 10.9313C30.457 10.6829 30.457 10.4344 30.7046 10.186C30.2094 9.93755 29.9617 9.6891 29.4665 9.6891C28.7237 9.44065 28.7237 9.44065 28.476 9.44065Z" fill="#A5A5A5"/>
    </g>
</svg>
