<svg width="40" height="40" viewBox="0 0 40 40" fill="none" xmlns="http://www.w3.org/2000/svg">
    <path d="M20 40C8.95375 40 0 31.0462 0 20C0 8.95375 8.95375 0 20 0C31.0462 0 40 8.95375 40 20C40 31.0462 31.0462 40 20 40ZM28.2375 24.3062C28.2062 24.0312 28.0475 23.4012 27.635 23.24C27.4287 23.1587 27.2537 23.2237 27.175 23.3687C27.0475 23.595 27.1425 24.0312 27.3813 24.4188C27.6188 24.8075 27.8412 25.0012 28 25.0012C28.1587 25.0012 28.3013 24.8075 28.2375 24.3062ZM26.0163 25.4062C25.7625 25.1788 25.4762 25.0662 25.2225 25.0662C25.1259 25.0608 25.0295 25.0784 24.941 25.1175C24.8526 25.1566 24.7747 25.2162 24.7137 25.2913C24.4287 25.6475 24.5562 26.2938 25.0012 26.6825C25.1912 26.86 25.4762 26.9575 25.7463 26.9575C25.8694 26.9603 25.9917 26.9356 26.1041 26.8853C26.2166 26.8349 26.3164 26.7601 26.3963 26.6663C26.6513 26.31 26.5087 25.8263 26.0163 25.405V25.4062ZM8.75 18.6175C8.75 24.7575 13.6375 29.735 19.6675 29.735C21.2712 29.735 22.8575 29.4287 25.1912 29.4112C27.27 29.4112 29.555 30.155 32.0625 32.4175C32.3162 32.6437 32.65 32.3525 32.4275 32.0788C29.9675 28.895 27.6825 28.2975 25.3975 27.7787C22.6038 27.15 21.1763 25.5662 20.1763 23.8037C19.985 23.4487 19.89 23.5138 19.8738 23.9663C19.856 24.6319 19.9042 25.2976 20.0175 25.9538H19.6838C15.7012 25.9538 12.4637 22.6575 12.4637 18.6C12.4625 14.545 15.7 11.25 19.6838 11.25C23.6675 11.25 26.905 14.5463 26.905 18.6025C26.905 18.8937 26.8888 19.185 26.8575 19.46C26.3175 19.3625 25.2863 19.3475 24.5563 19.4113C24.2863 19.4438 24.3188 19.5725 24.525 19.605C26.905 20.0575 28.54 21.56 28.92 24.2925C28.9362 24.3563 29.015 24.3725 29.0475 24.3237C30.0554 22.5914 30.5864 20.623 30.5863 18.6188C30.5875 12.4775 25.7 7.5 19.6675 7.5C13.6375 7.5 8.75 12.4775 8.75 18.6175Z" fill="white" fill-opacity="0.5"/>
</svg>
