<svg xmlns="http://www.w3.org/2000/svg" display="none">
    <symbol id="category" viewBox="0 0 20 20">
        <path d="M6.90594 0H2.31281C1.03754 0 0 1.03754 0 2.31281V6.90594C0 8.18121 1.03754 9.21875 2.31281 9.21875H6.90594C8.18121 9.21875 9.21875 8.18121 9.21875 6.90594V2.31281C9.21875 1.03754 8.18121 0 6.90594 0ZM7.65625 6.90594C7.65625 7.31965 7.31965 7.65625 6.90594 7.65625H2.31281C1.8991 7.65625 1.5625 7.31965 1.5625 6.90594V2.31281C1.5625 1.8991 1.8991 1.5625 2.31281 1.5625H6.90594C7.31965 1.5625 7.65625 1.8991 7.65625 2.31281V6.90594Z"/>
        <path d="M17.6562 0H13.125C11.8327 0 10.7812 1.05141 10.7812 2.34375V6.875C10.7812 8.16734 11.8327 9.21875 13.125 9.21875H17.6562C18.9486 9.21875 20 8.16734 20 6.875V2.34375C20 1.05141 18.9486 0 17.6562 0ZM18.4375 6.875C18.4375 7.30578 18.087 7.65625 17.6562 7.65625H13.125C12.6942 7.65625 12.3438 7.30578 12.3438 6.875V2.34375C12.3438 1.91297 12.6942 1.5625 13.125 1.5625H17.6562C18.087 1.5625 18.4375 1.91297 18.4375 2.34375V6.875Z"/>
        <path d="M6.90594 10.7812H2.31281C1.03754 10.7812 0 11.8188 0 13.0941V17.6872C0 18.9625 1.03754 20 2.31281 20H6.90594C8.18121 20 9.21875 18.9625 9.21875 17.6872V13.0941C9.21875 11.8188 8.18121 10.7812 6.90594 10.7812ZM7.65625 17.6872C7.65625 18.1009 7.31965 18.4375 6.90594 18.4375H2.31281C1.8991 18.4375 1.5625 18.1009 1.5625 17.6872V13.0941C1.5625 12.6804 1.8991 12.3438 2.31281 12.3438H6.90594C7.31965 12.3438 7.65625 12.6804 7.65625 13.0941V17.6872Z"/>
        <path d="M17.6562 10.7812H13.125C11.8327 10.7812 10.7812 11.8327 10.7812 13.125V17.6562C10.7812 18.9486 11.8327 20 13.125 20H17.6562C18.9486 20 20 18.9486 20 17.6562V13.125C20 11.8327 18.9486 10.7812 17.6562 10.7812ZM18.4375 17.6562C18.4375 18.087 18.087 18.4375 17.6562 18.4375H13.125C12.6942 18.4375 12.3438 18.087 12.3438 17.6562V13.125C12.3438 12.6942 12.6942 12.3438 13.125 12.3438H17.6562C18.087 12.3438 18.4375 12.6942 18.4375 13.125V17.6562Z"/>
    </symbol>

    <symbol id="search" viewBox="0 0 20 20">
        <path d="M17.8625 15.714C17.3711 15.2433 16.8928 14.7591 16.4281 14.2619C16.0378 13.8653 15.8027 13.5767 15.8027 13.5767L12.8646 12.174C14.0409 10.84 14.6901 9.12285 14.6905 7.34445C14.6905 3.29556 11.3956 0 7.34523 0C3.29486 0 0 3.29556 0 7.34445C0 11.3933 3.29486 14.6889 7.34523 14.6889C9.19517 14.6889 10.8814 13.9964 12.1752 12.8643L13.5782 15.8021C13.5782 15.8021 13.8667 16.0371 14.2634 16.4274C14.6695 16.8083 15.2036 17.3235 15.7156 17.8617L17.1406 19.3222L17.7744 20L20 17.7746L19.3221 17.1409C18.9244 16.7506 18.3935 16.2323 17.8625 15.714ZM7.34523 12.5905C4.45226 12.5905 2.09864 10.2371 2.09864 7.34445C2.09864 4.45179 4.45226 2.09842 7.34523 2.09842C10.2382 2.09842 12.5918 4.45179 12.5918 7.34445C12.5918 10.2371 10.2382 12.5905 7.34523 12.5905Z"/>
    </symbol>

    <symbol id="user" viewBox="0 0 30 30">
        <path d="M7.5 7.10526C7.5 11.0226 10.865 14.2105 15 14.2105C19.135 14.2105 22.5 11.0226 22.5 7.10526C22.5 3.18789 19.135 0 15 0C10.865 0 7.5 3.18789 7.5 7.10526ZM28.3333 30H30V28.4211C30 22.3279 24.765 17.3684 18.3333 17.3684H11.6667C5.23333 17.3684 0 22.3279 0 28.4211V30H28.3333Z"/>
    </symbol>

    <symbol id="basket" viewBox="0 0 30 30">
        <path fill-rule="evenodd" clip-rule="evenodd"
              d="M28.5395 8.63525H24.661L22.579 0.768118C22.5086 0.606026 22.4086 0.460882 22.2848 0.341392C22.161 0.221903 22.016 0.13053 21.8586 0.0727563C21.7012 0.0149825 21.5345 -0.008002 21.3686 0.00518142C21.2027 0.0183648 21.041 0.0674446 20.8932 0.149476L20.7504 0.227347C20.4481 0.397615 20.2187 0.687004 20.1104 1.03495C20.002 1.38289 20.023 1.76241 20.169 2.09409L21.6596 8.63308H8.27399L9.81895 2.10274C9.96686 1.77259 9.99064 1.39382 9.88534 1.04529C9.78005 0.696756 9.55379 0.405326 9.25367 0.231674L9.11285 0.153803C8.96565 0.0703449 8.80432 0.0196236 8.63849 0.00466441C8.47266 -0.0102947 8.30572 0.0108149 8.14764 0.0667337C7.98957 0.122653 7.84358 0.212235 7.7184 0.330137C7.59322 0.448039 7.4914 0.591845 7.41903 0.752976L5.26051 8.63308H1.45846C0.653792 8.63308 0 9.28633 0 10.0867C0 10.0867 0.65178 12.7256 1.45846 12.7256H2.73788L3.64112 27.1685C3.64112 27.1685 3.74572 30 7.89177 30H22.0157C26.3307 30 26.2704 27.1101 26.2704 27.1101L27.0006 12.7278H28.5415C29.3462 12.7278 30 10.0888 30 10.0888C29.998 9.2885 29.3442 8.63525 28.5395 8.63525ZM5.9827 12.8468H3.84631V10.5496H5.9827V12.8468ZM10.0684 25.2001C10.0684 25.9572 9.56347 26.5694 8.94387 26.5694H8.89761C8.27198 26.5694 7.76906 25.9572 7.76906 25.2001V15.8361C7.76906 15.0791 8.27198 14.4691 8.89761 14.4691H8.94387C9.56347 14.4691 10.0684 15.0791 10.0684 15.8361V25.2001ZM16.0994 24.7783C16.0994 25.5008 15.6226 26.087 15.0352 26.087H14.993C14.4035 26.087 13.9288 25.5008 13.9288 24.7783V15.9119C13.9288 15.1894 14.4035 14.6053 14.993 14.6053H15.0352C15.6226 14.6053 16.0994 15.1915 16.0994 15.9119V24.7783ZM22.07 24.9773C22.07 25.7084 21.5771 26.299 20.9716 26.299H20.9274C20.3199 26.299 19.831 25.7084 19.831 24.9773V15.9876C19.831 15.2564 20.3199 14.6659 20.9274 14.6659H20.9716C21.5771 14.6659 22.07 15.2564 22.07 15.9876V24.9773ZM26.0994 12.9138H23.8986V10.5474H26.0994V12.9138Z"/>
    </symbol>

    <symbol id="arrow-bottom" viewBox="0 0 18 10">
        <path d="M0.352268 0.343312C0.240604 0.451414 0.152011 0.579835 0.0915625 0.721218C0.0311146 0.862601 -3.92783e-07 1.01417 -3.86092e-07 1.16724C-3.79401e-07 1.32032 0.0311146 1.47188 0.0915626 1.61327C0.152011 1.75465 0.240604 1.88307 0.352268 1.99117L8.3236 9.72774C8.41235 9.81404 8.51776 9.88251 8.6338 9.92923C8.74984 9.97595 8.87424 10 8.99987 10C9.1255 10 9.2499 9.97595 9.36594 9.92923C9.48199 9.88251 9.5874 9.81404 9.67614 9.72774L17.6475 1.99117C18.1175 1.53498 18.1175 0.799499 17.6475 0.343311C17.1774 -0.112876 16.4196 -0.112876 15.9496 0.343312L8.99508 7.08371L2.04054 0.334004C1.5801 -0.112873 0.812706 -0.112875 0.352268 0.343312Z"/>
    </symbol>

    <symbol id="tab-icon1" viewBox="0 0 105 105">
        <path d="M100.04 44.94C98.5359 43.8331 97.3101 42.3909 96.46 40.7278C96.3425 38.7857 96.6862 36.8434 97.4628 35.0595C98.4427 31.99 99.456 28.819 97.9703 26.25C96.4635 23.6513 93.1787 22.9373 90.0025 22.2513C88.0996 22.0375 86.2739 21.378 84.6737 20.3263C83.6262 18.7261 82.9703 16.9017 82.7592 15.001C82.0732 11.823 81.3645 8.5365 78.7588 7.02975C76.1915 5.544 73.0205 6.55725 69.9492 7.53725C68.1645 8.31316 66.2217 8.65659 64.2793 8.54C62.617 7.6895 61.1754 6.46362 60.0688 4.9595C57.862 2.52 55.58 0 52.5 0C49.42 0 47.138 2.52 44.94 4.9595C43.8331 6.46406 42.3909 7.68994 40.7278 8.54C38.7857 8.65616 36.8438 8.31272 35.0595 7.53725C31.9935 6.559 28.8207 5.54225 26.25 7.02975C23.6513 8.5365 22.9373 11.8212 22.2513 14.9975C22.0375 16.9004 21.378 18.7261 20.3263 20.3263C18.7261 21.3738 16.9017 22.0297 15.001 22.2407C11.823 22.9268 8.5365 23.6355 7.02975 26.2412C5.544 28.8085 6.55725 31.9812 7.53725 35.0508C8.31425 36.8351 8.65791 38.778 8.54 40.7207C7.6895 42.383 6.46362 43.8246 4.9595 44.9312C2.52 47.138 0 49.42 0 52.5C0 55.58 2.52 57.862 4.9595 60.0688C6.46406 61.1756 7.68994 62.6178 8.54 64.281C8.65747 66.2231 8.31381 68.1653 7.53725 69.9492C6.55725 73.0188 5.544 76.1898 7.02975 78.7588C8.5365 81.3575 11.8212 82.0715 14.9975 82.7575C16.8997 82.9686 18.7252 83.6251 20.3263 84.6737C21.3738 86.2739 22.0297 88.0983 22.2407 89.999C22.9268 93.177 23.6355 96.4635 26.2412 97.9703C28.8085 99.456 31.9795 98.4427 35.0508 97.4628C36.8355 96.6868 38.7782 96.3434 40.7207 96.46C42.383 97.3105 43.8246 98.5364 44.9312 100.04C47.138 102.48 49.42 105 52.5 105C55.58 105 57.862 102.48 60.0688 100.04C61.1756 98.5359 62.6178 97.3101 64.281 96.46C66.2231 96.3438 68.1649 96.6873 69.9492 97.4628C73.017 98.4427 76.1862 99.4578 78.7588 97.9703C81.3575 96.4635 82.0715 93.1787 82.7575 90.0025C82.9686 88.1003 83.6251 86.2748 84.6737 84.6737C86.2739 83.6262 88.0983 82.9703 89.999 82.7592C93.177 82.0732 96.4635 81.3645 97.9703 78.7588C99.456 76.1915 98.4427 73.0188 97.4628 69.9492C96.6858 68.1649 96.3421 66.222 96.46 64.2793C97.3105 62.617 98.5364 61.1754 100.04 60.0688C102.48 57.862 105 55.58 105 52.5C105 49.42 102.48 47.138 100.04 44.94ZM97.692 57.4752C95.6406 58.9802 94.0443 61.0223 93.079 63.3763C92.7192 65.97 93.0825 68.6129 94.129 71.0132C94.878 73.3565 95.6427 75.7803 94.9427 77.0052C94.2095 78.2705 91.693 78.813 89.2605 79.338C86.625 79.9067 83.9003 80.4948 82.1992 82.1992C80.612 84.2452 79.6211 86.6902 79.3363 89.264C78.8112 91.6947 78.2688 94.2113 77.007 94.941C75.7768 95.6497 73.3547 94.8762 71.0132 94.129C68.6129 93.0845 65.9713 92.7213 63.378 93.079C61.0229 94.0435 58.9802 95.6399 57.4752 97.692C55.7795 99.5645 54.0278 101.5 52.5 101.5C50.9722 101.5 49.2205 99.5645 47.5247 97.692C46.0197 95.6406 43.9777 94.0443 41.6237 93.079C41.0443 92.9289 40.4478 92.8548 39.8493 92.8585C37.8431 92.9856 35.8671 93.4115 33.9867 94.122C31.6382 94.871 29.2197 95.6357 27.9947 94.9358C26.7295 94.2025 26.187 91.686 25.662 89.2535C25.0932 86.618 24.5053 83.8932 22.8008 82.1922C20.7548 80.605 18.3098 79.6141 15.736 79.3293C13.3052 78.8043 10.7888 78.2617 10.059 77C9.35025 75.775 10.122 73.3565 10.871 71.0132C11.9173 68.6133 12.2806 65.9713 11.921 63.378C10.9565 61.0229 9.36009 58.9802 7.308 57.4752C5.4355 55.7795 3.5 54.0278 3.5 52.5C3.5 50.9722 5.4355 49.2205 7.315 47.5247C9.36644 46.0197 10.9627 43.9777 11.928 41.6237C12.2878 39.03 11.9245 36.3871 10.878 33.9867C10.129 31.6435 9.36425 29.2197 10.0642 27.9947C10.7975 26.7295 13.314 26.187 15.7465 25.662C18.382 25.0932 21.1068 24.5053 22.8078 22.8008C24.395 20.7548 25.3859 18.3098 25.6707 15.736C26.1957 13.3052 26.7383 10.7888 28 10.059C29.225 9.345 31.6435 10.122 33.9867 10.871C36.5785 11.7005 39.263 12.5545 41.622 11.921C43.9771 10.9565 46.0197 9.36009 47.5247 7.308C49.2205 5.4355 50.9722 3.5 52.5 3.5C54.0278 3.5 55.7795 5.4355 57.4752 7.308C58.9802 9.35944 61.0223 10.9557 63.3763 11.921C65.97 12.2797 68.6125 11.9164 71.0132 10.871C73.36 10.122 75.7803 9.35725 77.0052 10.0573C78.2705 10.7905 78.813 13.307 79.338 15.7395C79.9067 18.375 80.4948 21.0998 82.1992 22.8008C84.2452 24.388 86.6902 25.3789 89.264 25.6637C91.6947 26.1887 94.2113 26.7313 94.941 27.993C95.6497 29.2198 94.878 31.6435 94.129 33.9867C93.0827 36.3867 92.7194 39.0287 93.079 41.622C94.0435 43.9771 95.6399 46.0197 97.692 47.5247C99.5645 49.2205 101.5 50.9722 101.5 52.5C101.5 54.0278 99.5645 55.7795 97.692 57.4752Z"
              fill="#FFC608"/>
        <path d="M52.5 21C53.4664 21 54.25 20.2164 54.25 19.25V15.75C54.25 14.7836 53.4664 14 52.5 14C51.5336 14 50.75 14.7836 50.75 15.75V19.25C50.75 20.2164 51.5336 21 52.5 21Z"
              fill="#FFC608"/>
        <path d="M42.203 20.8355C42.408 21.5998 43.1003 22.1316 43.8917 22.1323C44.046 22.1332 44.1997 22.1132 44.3485 22.0728C45.2812 21.8225 45.8351 20.864 45.5857 19.9308L44.6792 16.5498C44.6718 16.5192 44.6637 16.4887 44.6547 16.4586C44.3791 15.5322 43.4048 15.0045 42.4784 15.2802C41.552 15.5558 41.0244 16.5301 41.3 17.4565L42.203 20.8355Z"
              fill="#FFC608"/>
        <path d="M35.6387 19.7978C35.635 19.791 35.6311 19.7844 35.6272 19.7776C35.1385 18.9438 34.0662 18.6642 33.2325 19.1529C32.3986 19.6416 32.1191 20.7139 32.6077 21.5475L34.3577 24.5803C34.6706 25.1223 35.2492 25.4559 35.875 25.4553C36.1817 25.4551 36.4827 25.3741 36.7482 25.2208C37.5852 24.7376 37.872 23.6672 37.3887 22.8303L35.6387 19.7978Z"
              fill="#FFC608"/>
        <path d="M27.7515 30.226C28.0796 30.5541 28.5246 30.7387 28.9888 30.7387C29.4527 30.7387 29.8974 30.5543 30.2256 30.2264C30.9092 29.543 30.9092 28.4351 30.226 27.7515L27.7498 25.2752C27.7358 25.2606 27.7213 25.2464 27.7067 25.2321C27.0115 24.5608 25.9035 24.58 25.2322 25.2752C24.5608 25.9704 24.5801 27.0784 25.2753 27.7497L27.7515 30.226Z"
              fill="#FFC608"/>
        <path d="M27.7515 74.7741L25.2753 77.2503C24.9473 77.5784 24.7629 78.0234 24.7629 78.4871C24.7627 79.4536 25.5461 80.2373 26.5125 80.2376C26.9767 80.2376 27.4216 80.0529 27.7498 79.7248L30.226 77.2486C30.8809 76.5704 30.8809 75.4953 30.226 74.8169C29.5547 74.1218 28.4467 74.1025 27.7515 74.7741Z"
              fill="#FFC608"/>
        <path d="M36.7559 79.7947C35.922 79.306 34.8499 79.5856 34.3612 80.4195L32.6112 83.4522C32.4579 83.7178 32.3772 84.0188 32.3767 84.3255C32.3756 85.2919 33.1583 86.0763 34.125 86.0772C34.7508 86.0779 35.3294 85.7443 35.6422 85.2022L37.3922 82.1695C37.8656 81.3371 37.5819 80.279 36.7559 79.7947Z"
              fill="#FFC608"/>
        <path d="M44.3518 82.9366C43.4193 82.6822 42.4572 83.2322 42.203 84.1645L41.2983 87.5437C41.2587 87.6916 41.2386 87.8441 41.2386 87.9972C41.2388 88.9637 42.0223 89.7472 42.9888 89.747C43.7802 89.7463 44.4726 89.2146 44.6775 88.4502L45.584 85.0692C45.8277 84.1406 45.278 83.1893 44.3518 82.9366Z"
              fill="#FFC608"/>
        <path d="M52.5 84C51.5336 84 50.75 84.7836 50.75 85.75V89.25C50.75 90.2164 51.5336 91 52.5 91C53.4664 91 54.25 90.2164 54.25 89.25V85.75C54.25 84.7836 53.4664 84 52.5 84Z"
              fill="#FFC608"/>
        <path d="M62.797 84.1645C62.5443 83.2383 61.593 82.6886 60.6644 82.9323C59.7297 83.1777 59.1706 84.1343 59.416 85.0692L60.3225 88.4502C60.5275 89.2145 61.2198 89.7463 62.0112 89.747C62.1644 89.747 62.3168 89.7269 62.4647 89.6873C63.3983 89.437 63.952 88.4774 63.7017 87.5437L62.797 84.1645Z"
              fill="#FFC608"/>
        <path d="M70.6388 80.4195C70.6348 80.4127 70.6309 80.406 70.6269 80.3992C70.138 79.5655 69.0659 79.286 68.2321 79.7749C67.3982 80.2638 67.1188 81.3359 67.6077 82.1697L69.3577 85.2025C69.6706 85.7445 70.2492 86.0781 70.875 86.0775C71.1815 86.0772 71.4827 85.9963 71.7483 85.843C72.5852 85.3597 72.872 84.2894 72.3888 83.4525L70.6388 80.4195Z"
              fill="#FFC608"/>
        <path d="M77.2485 74.774C76.5704 74.1188 75.495 74.1188 74.8169 74.774C74.1217 75.4455 74.1025 76.5533 74.774 77.2485L77.2503 79.7247C77.5784 80.0528 78.0233 80.2375 78.4875 80.2375C78.9515 80.2375 79.3964 80.0531 79.7243 79.7251C80.4079 79.0418 80.4079 77.9338 79.7248 77.2502L77.2485 74.774Z"
              fill="#FFC608"/>
        <path d="M76.0112 30.7387C76.4754 30.7387 76.9204 30.5541 77.2485 30.226L79.7247 27.7497C79.7394 27.7357 79.7536 27.7213 79.7676 27.7069C80.4392 27.0117 80.4199 25.9039 79.7247 25.2324C79.0295 24.561 77.9216 24.5801 77.2502 25.2752L74.774 27.7515C74.4461 28.0796 74.2617 28.5246 74.2617 28.9883C74.2615 29.955 75.0448 30.7385 76.0112 30.7387Z"
              fill="#FFC608"/>
        <path d="M69.125 25.4555C69.7508 25.4562 70.3294 25.1226 70.6422 24.5805L72.3922 21.5478C72.3962 21.541 72.4001 21.5342 72.4041 21.5274C72.8816 20.6872 72.5878 19.6189 71.7474 19.1413C70.9072 18.6638 69.8388 18.9578 69.3612 19.798L67.6112 22.8308C67.4579 23.0963 67.3772 23.3973 67.3767 23.704C67.3759 24.6702 68.1586 25.4544 69.125 25.4555Z"
              fill="#FFC608"/>
        <path d="M60.6532 22.0728C60.8016 22.1131 60.9547 22.1332 61.1082 22.1323C61.8997 22.1316 62.592 21.5999 62.797 20.8356L63.7018 17.4563C63.7107 17.4261 63.7188 17.3957 63.7263 17.3651C63.9513 16.4251 63.3719 15.4808 62.4319 15.2557C61.4919 15.0306 60.5476 15.6101 60.3225 16.55L59.416 19.931C59.1666 20.864 59.7205 21.8226 60.6532 22.0728Z"
              fill="#FFC608"/>
        <path d="M57.75 63H45.5V54.25H54.25C55.2164 54.25 56 53.4664 56 52.5C56 51.5336 55.2164 50.75 54.25 50.75H45.5V42H57.75C58.7164 42 59.5 41.2164 59.5 40.25C59.5 39.2836 58.7164 38.5 57.75 38.5H43.75C42.7836 38.5 42 39.2836 42 40.25V64.75C42 65.7164 42.7836 66.5 43.75 66.5H57.75C58.7164 66.5 59.5 65.7164 59.5 64.75C59.5 63.7836 58.7164 63 57.75 63Z"
              fill="#FFC608"/>
        <path d="M33.6683 65.842C33.7897 65.9881 33.9345 66.1128 34.097 66.2112C34.153 66.2526 34.2114 66.2904 34.272 66.325C34.4988 66.4363 34.7473 66.4961 35 66.5C35.2087 66.4958 35.415 66.4543 35.609 66.3775C35.6748 66.3488 35.7392 66.3169 35.8015 66.2812C35.875 66.25 35.9463 66.2137 36.015 66.1727C36.0535 66.1465 36.0728 66.1045 36.1077 66.073C36.2007 65.9938 36.2847 65.9048 36.358 65.807C36.4993 65.6421 36.5993 65.4458 36.6503 65.2348C36.685 65.1208 36.7087 65.0035 36.7203 64.8848C36.7203 64.8357 36.7483 64.7938 36.7483 64.7448V40.25C36.7483 39.2842 35.9658 38.5009 35 38.5C34.0336 38.5 33.25 39.2836 33.25 40.25V59.29L18.9228 39.2333C18.8965 39.1948 18.8545 39.1755 18.823 39.1405C18.744 39.0475 18.6548 38.9635 18.557 38.8902C18.4743 38.824 18.3859 38.7656 18.2928 38.7152C18.1948 38.6682 18.093 38.6302 17.9883 38.6015C17.8745 38.5652 17.7573 38.5418 17.6383 38.5315C17.591 38.5315 17.5508 38.5035 17.5018 38.5035C17.4427 38.5123 17.3843 38.5245 17.3268 38.5403C17.208 38.5503 17.0905 38.5731 16.9768 38.6085C16.863 38.6463 16.7534 38.6956 16.6495 38.7555C16.5935 38.7778 16.5386 38.8027 16.485 38.8307C16.4465 38.857 16.4273 38.899 16.3923 38.9305C16.2993 39.0095 16.2153 39.0987 16.142 39.1965C16.0757 39.2785 16.0171 39.3663 15.967 39.459C15.9184 39.5581 15.8797 39.662 15.8515 39.7688C15.8165 39.8827 15.7931 40 15.7815 40.1187C15.7815 40.1677 15.7535 40.2097 15.7535 40.2587V64.75C15.7535 65.7164 16.5371 66.5 17.5035 66.5C18.4699 66.5 19.2535 65.7164 19.2535 64.75V45.71L33.5808 65.7668C33.6035 65.8 33.642 65.8123 33.6683 65.842Z"
              fill="#FFC608"/>
        <path d="M87.8725 38.5396C87.8708 38.5392 87.869 38.5389 87.8675 38.5385C86.9225 38.3353 85.9919 38.9366 85.7887 39.8814C85.7887 39.8818 85.7885 39.8821 85.7885 39.8825L81.8825 58.114L76.909 43.197C76.6071 42.2789 75.6182 41.7791 74.7001 42.0809C74.1718 42.2546 73.7577 42.6687 73.584 43.197L68.6175 58.114L64.7115 39.8825C64.5085 38.9373 63.5777 38.3355 62.6325 38.5385C61.6873 38.7415 61.0855 39.6723 61.2885 40.6175L66.5385 65.1175C66.7043 65.8882 67.3649 66.4528 68.152 66.4965C68.9358 66.5322 69.6491 66.0459 69.902 65.303L75.25 49.2835L80.591 65.303C80.829 66.0175 81.4971 66.4994 82.25 66.5H82.348C83.1351 66.4563 83.7957 65.8917 83.9615 65.121L89.2115 40.621C89.4165 39.6764 88.8171 38.7446 87.8725 38.5396Z"
              fill="#FFC608"/>
    </symbol>

    <symbol id="tab-icon2" viewBox="0 0 105 105">
        <g clip-path="url(#clip0)">
            <path d="M80.4577 46.3622C80.4577 43.0381 77.7536 40.3341 74.4295 40.3341H63.3507C66.0424 37.3086 67.8015 33.8635 68.1414 30.7727C68.3489 28.885 67.7657 27.0112 66.5407 25.6316C65.4212 24.3706 63.8903 23.6678 62.23 23.6524C62.2107 23.6522 62.1914 23.6522 62.1724 23.6522C60.5664 23.6522 59.0591 24.2707 57.9215 25.3978C56.7837 26.5252 56.1541 28.0269 56.1468 29.6296C56.0883 29.9805 55.471 31.1903 53.9606 32.6266C52.724 33.803 50.5879 35.42 47.434 36.444C46.1974 36.8455 45.0672 37.5848 44.075 38.6414C43.5543 39.1955 42.7746 39.9609 41.8093 40.7291C41.3356 40.4781 40.7969 40.3345 40.2245 40.3345H29.7025C27.829 40.3345 26.3048 41.8587 26.3048 43.7322V71.7906C26.3048 73.6642 27.829 75.1884 29.7025 75.1884H40.2245C41.5017 75.1884 42.6155 74.4792 43.1959 73.4347H70.0453C72.8858 73.4347 75.1967 71.1239 75.1967 68.2834C75.1967 67.3283 74.9356 66.4334 74.4807 65.6656C75.9608 64.7595 76.9503 63.1275 76.9503 61.2687C76.9503 60.3136 76.6892 59.4187 76.2344 58.6509C77.7144 57.7448 78.7039 56.1128 78.7039 54.254C78.7039 53.179 78.3729 52.1798 77.8075 51.353C79.4057 50.2675 80.4577 48.4353 80.4577 46.3622ZM74.4295 49.1022H73.5526C72.6447 49.1022 71.9084 49.8382 71.9084 50.7463C71.9084 51.6542 72.6445 52.3904 73.5526 52.3904C74.58 52.3904 75.4159 53.2263 75.4159 54.2538C75.4159 55.2812 74.58 56.1171 73.5526 56.1171H71.7989C70.8911 56.1171 70.1548 56.8531 70.1548 57.7612C70.1548 58.6691 70.8909 59.4053 71.7989 59.4053C72.8264 59.4053 73.6623 60.2412 73.6623 61.2687C73.6623 62.2961 72.8264 63.132 71.7989 63.132H70.0453C69.1374 63.132 68.4012 63.8681 68.4012 64.7761C68.4012 65.684 69.1372 66.4202 70.0453 66.4202C71.0728 66.4202 71.9087 67.2561 71.9087 68.2836C71.9087 69.311 71.0728 70.1469 70.0453 70.1469H43.6222V54.2544C43.6222 53.3465 42.8862 52.6103 41.9781 52.6103C41.07 52.6103 40.334 53.3463 40.334 54.2544V71.7908C40.334 71.8513 40.285 71.9004 40.2245 71.9004H29.7025C29.642 71.9004 29.593 71.8513 29.593 71.7908V43.7316C29.593 43.6711 29.642 43.6221 29.7025 43.6221H40.2245C40.285 43.6221 40.334 43.6711 40.334 43.7316V47.2391C40.334 48.147 41.07 48.8832 41.9781 48.8832C42.8862 48.8832 43.6222 48.1472 43.6222 47.2391V43.7316C43.6222 43.6519 43.6157 43.5737 43.6101 43.4954C44.8428 42.5412 45.8287 41.5765 46.4718 40.8919C47.0802 40.2437 47.7455 39.7995 48.4491 39.5712C52.319 38.3149 54.9233 36.292 56.4263 34.8163C58.3101 32.9667 59.4346 31.0385 59.4346 29.6581C59.4346 28.9289 59.719 28.2454 60.2356 27.7335C60.7586 27.2152 61.4511 26.9415 62.1994 26.9404C63.1211 26.9491 63.7314 27.4205 64.0814 27.8147C64.6815 28.4904 64.9768 29.4621 64.8724 30.4134C64.5133 33.6801 61.9008 37.7181 58.2168 40.7004C57.6756 41.1386 57.4691 41.8703 57.7015 42.5268C57.9338 43.1833 58.5548 43.6221 59.2512 43.6221H74.4291C75.9401 43.6221 77.1691 44.8512 77.1691 46.3622C77.1691 47.8732 75.9403 49.1022 74.4295 49.1022Z"
                  fill="#FFC608"/>
            <path d="M34.9636 64.8674C34.0557 64.8674 33.3109 65.6123 33.3109 66.5202C33.3109 67.428 34.0557 68.1729 34.9636 68.1729C35.8715 68.1729 36.6163 67.428 36.6163 66.5202C36.6165 65.6125 35.8717 64.8674 34.9636 64.8674Z"
                  fill="#FFC608"/>
            <path d="M102.069 52.5003L104.894 45.0266C105.099 44.483 105.002 43.8712 104.639 43.4174L99.6431 37.1822L100.02 29.2016C100.047 28.6212 99.7657 28.0689 99.2801 27.75L92.6024 23.3636L90.4946 15.6572C90.3412 15.0965 89.9031 14.6585 89.3427 14.5053L81.6362 12.3975L77.2498 5.71992C76.9307 5.23409 76.3786 4.95395 75.7983 4.98041L67.8177 5.35693L61.5825 0.361432C61.1288 -0.00196635 60.5171 -0.0989683 59.9732 0.10652L52.4995 2.93086L45.0263 0.106725C44.4822 -0.0989683 43.8707 -0.00196637 43.4171 0.361637L37.1819 5.35714L29.2012 4.98061C28.618 4.95313 28.0686 5.2345 27.7497 5.72012L23.3635 12.3979L15.6571 14.5057C15.0964 14.6591 14.6583 15.0971 14.5051 15.6576L12.3973 23.364L5.71959 27.7502C5.23376 28.0693 4.9526 28.6214 4.98008 29.2018L5.3566 37.1824L0.361105 43.4176C-0.0022933 43.8712 -0.0992952 44.483 0.106193 45.0268L2.93032 52.5003L0.105988 59.9737C-0.0997054 60.5174 -0.00270345 61.1292 0.3609 61.583L5.3564 67.8182L4.97987 75.7988C4.95239 76.3792 5.23376 76.9315 5.71939 77.2504L12.3971 81.6368L14.5049 89.3432C14.6583 89.9039 15.0964 90.3419 15.6569 90.4951L23.3633 92.6029L27.7495 99.2807C28.0686 99.7665 28.6217 100.046 29.201 100.02L37.1817 99.6437L43.4168 104.639C43.8705 105.003 44.4824 105.1 45.0261 104.894L52.4998 102.07L59.9734 104.894C60.1621 104.965 60.3588 105 60.5544 105C60.9227 105 61.2863 104.876 61.5825 104.639L67.8177 99.6437L75.7983 100.02C76.3805 100.046 76.9307 99.7663 77.2498 99.2807L81.6362 92.6029L89.3427 90.4951C89.9033 90.3417 90.3414 89.9037 90.4946 89.3432L92.6024 81.6368L99.2801 77.2504C99.766 76.9313 100.047 76.3792 100.02 75.7988L99.6431 67.8182L104.639 61.583C105.002 61.1294 105.099 60.5176 104.894 59.9737L102.069 52.5003ZM98.7738 53.0815L101.486 60.259L96.6886 66.2471C96.4382 66.5594 96.3104 66.9526 96.3293 67.3525L96.691 75.0168L90.278 79.2294C89.9435 79.449 89.7003 79.7835 89.5947 80.1698L87.5704 87.5709L80.1693 89.5952C79.7831 89.7008 79.4489 89.9439 79.2288 90.2785L75.0163 96.6916L67.3519 96.3298C66.9518 96.3113 66.5589 96.4387 66.2466 96.6891L60.2585 101.487L53.081 98.7743C52.8937 98.7036 52.6966 98.6683 52.4998 98.6683C52.3029 98.6683 52.1058 98.7038 51.9186 98.7743L44.741 101.487L38.753 96.6891C38.4406 96.4387 38.0469 96.3113 37.6476 96.3298L29.9832 96.6916L25.7707 90.2785C25.5511 89.9441 25.2166 89.7008 24.8302 89.5952L17.4291 87.5709L15.4048 80.1698C15.2992 79.7837 15.0562 79.4494 14.7215 79.2294L8.3085 75.0168L8.67026 67.3525C8.68912 66.9524 8.56136 66.5594 8.31096 66.2471L3.51336 60.259L6.22593 53.0815C6.36743 52.707 6.36743 52.2936 6.22593 51.9191L3.51336 44.7416L8.31096 38.7535C8.56136 38.4412 8.68912 38.048 8.67026 37.6481L8.3085 29.9837L14.7215 25.7712C15.056 25.5516 15.2992 25.2171 15.4048 24.8307L17.4291 17.4297L24.8302 15.4053C25.2164 15.2997 25.5506 15.0567 25.7707 14.722L29.9832 8.30903L37.6476 8.67079C38.0471 8.68945 38.4406 8.56189 38.753 8.31149L44.741 3.51389L51.9186 6.22646C52.2932 6.36797 52.7065 6.36797 53.081 6.22646L60.2585 3.51389L66.2466 8.31149C66.5589 8.5621 66.9522 8.68965 67.3519 8.67079L75.0163 8.30903L79.2288 14.722C79.4485 15.0565 79.7829 15.2997 80.1693 15.4053L87.5704 17.4297L89.5947 24.8307C89.7003 25.2169 89.9433 25.5512 90.278 25.7712L96.691 29.9837L96.3293 37.6481C96.3104 38.0482 96.4382 38.4412 96.6886 38.7535L101.486 44.7416L98.7736 51.9191C98.6323 52.2938 98.6323 52.707 98.7738 53.0815Z"
                  fill="#FFC608"/>
            <path d="M83.3917 24.1119C82.9826 23.6665 82.5583 23.2235 82.1299 22.7953C81.7015 22.3671 81.2587 21.9426 80.8133 21.5335C80.1445 20.9194 79.1046 20.9637 78.4904 21.6327C77.8764 22.3015 77.9207 23.3416 78.5896 23.9556C79.0004 24.333 79.4093 24.7247 79.8047 25.1201C80.1999 25.5153 80.5918 25.9244 80.9693 26.3354C81.2936 26.6885 81.7365 26.8675 82.1809 26.8675C82.5782 26.8675 82.9766 26.7244 83.2923 26.4346C83.9612 25.8208 84.0057 24.7807 83.3917 24.1119Z"
                  fill="#FFC608"/>
            <path d="M74.9749 17.0472C67.0466 11.9961 57.501 9.7513 48.0976 10.7248C38.5563 11.7133 29.5595 15.9998 22.7641 22.7951C15.2855 30.2737 10.9313 40.2085 10.5035 50.7694C10.0783 61.2682 13.5556 71.4614 20.2951 79.4709C20.6202 79.8573 21.0853 80.0564 21.5541 80.0564C21.9278 80.0564 22.3035 79.9296 22.6117 79.6704C23.3063 79.0858 23.3957 78.0487 22.8112 77.3541C16.6013 69.9735 13.3971 60.5797 13.7888 50.9027C14.183 41.1693 18.1959 32.0129 25.0888 25.1203C31.3519 18.857 39.6436 14.9061 48.4361 13.9954C57.1058 13.0972 65.9029 15.1662 73.2079 19.8202C73.9739 20.3081 74.9899 20.0829 75.4778 19.3172C75.9658 18.5512 75.7405 17.535 74.9749 17.0472Z"
                  fill="#FFC608"/>
            <path d="M87.8782 29.9502C87.3903 29.1842 86.3736 28.9591 85.6082 29.4469C84.8422 29.9348 84.6173 30.9512 85.1052 31.7167C89.7592 39.022 91.8278 47.8195 90.93 56.4885C90.0192 65.2811 86.0684 73.5726 79.8053 79.8361C72.9124 86.7287 63.7561 90.7419 54.0229 91.1361C44.3475 91.5294 34.9519 88.3238 27.5715 82.1141C26.8769 81.5294 25.8398 81.6188 25.2552 82.3136C24.6705 83.0082 24.7599 84.0453 25.4547 84.63C33.0264 91.0007 42.5482 94.4567 52.436 94.4565C53.008 94.4565 53.5822 94.4448 54.1564 94.4216C64.7173 93.994 74.6519 89.6398 82.1307 82.1612C88.9262 75.3658 93.2129 66.3688 94.201 56.8275C95.1747 47.4235 92.9293 37.8783 87.8782 29.9502Z"
                  fill="#FFC608"/>
        </g>
        <defs>
            <clipPath id="clip0">
                <rect width="105" height="105" fill="white"/>
            </clipPath>
        </defs>
    </symbol>

    <symbol id="tab-icon3" viewBox="0 0 105 105">
        <g clip-path="url(#clip0)">
            <path d="M97.3443 54.1893L97.3443 54.1894L101.26 62.2007C103.263 66.2979 101.678 71.176 97.6498 73.3132L98.0013 73.9758L97.6498 73.3133L89.7728 77.4927L89.7727 77.4928C88.7188 78.0522 87.9933 79.0509 87.787 80.226L87.787 80.2261L86.2463 89.009C85.4583 93.5009 81.3102 96.5159 76.7936 95.8769L67.9644 94.628L67.9636 94.6279C66.7829 94.4622 65.6094 94.8423 64.7513 95.6721L64.7512 95.6722L58.3422 101.872L58.3421 101.872C56.702 103.459 54.6001 104.25 52.5 104.25C50.3996 104.25 48.2991 103.46 46.658 101.872L40.2492 95.6722L40.2491 95.6721C39.3916 94.8429 38.2175 94.4603 37.0357 94.6281L28.2068 95.8769C27.801 95.9344 27.3976 95.9622 27.0006 95.9622C22.9742 95.9626 19.4713 93.0989 18.7539 89.0092L17.2134 80.2259L17.2133 80.2258C17.0071 79.0509 16.2817 78.052 15.2274 77.4927C15.2274 77.4927 15.2273 77.4927 15.2273 77.4927L7.35039 73.3133C3.32196 71.1758 1.73698 66.2981 3.7397 62.2009L7.65585 54.1898C8.17992 53.1177 8.17988 51.8833 7.65588 50.8111L7.65586 50.8111L3.73991 42.8C1.73718 38.7028 3.32219 33.8246 7.35057 31.6874L7.3506 31.6874L15.2276 27.5079L15.2277 27.5079C16.2816 26.9485 17.0071 25.9498 17.2134 24.7746L17.2134 24.7745L18.7539 15.9917C19.5419 11.4998 23.6906 8.48459 28.2066 9.1237L28.2066 9.12371L37.0358 10.3726L37.0363 10.3727C38.2176 10.539 39.391 10.1584 40.249 9.32846L40.249 9.32844L46.6581 3.12794L46.1366 2.58891L46.6581 3.12792C49.9356 -0.043203 55.0645 -0.0430628 58.3424 3.12795L58.8638 2.58891L58.3424 3.12795L64.7512 9.32784L65.2727 8.7888L64.7512 9.32785C65.6088 10.1574 66.7822 10.5389 67.9642 10.372L67.9644 10.372L76.7936 9.12309L76.6887 8.38156L76.7936 9.12309C81.3081 8.48435 85.4584 11.4993 86.2463 15.9911L87.7868 24.7743L87.7868 24.7744C87.9931 25.9493 88.7185 26.9483 89.7729 27.5076L97.6498 31.687C101.678 33.8244 103.263 38.7022 101.26 42.7994L97.3444 50.8107C96.8203 51.8827 96.8203 53.1171 97.3443 54.1893ZM77.4317 91.3657L77.4319 91.3657C79.4959 91.657 81.399 90.2748 81.7591 88.2216L83.2996 79.4386C83.7508 76.866 85.3303 74.6923 87.6374 73.4679C87.6374 73.4679 87.6374 73.4679 87.6374 73.4679L95.5144 69.2885C97.3558 68.3115 98.0827 66.0737 97.1672 64.2008L93.2511 56.1897C92.1041 53.8432 92.1041 51.1562 93.2511 48.8098L97.1672 40.7987C98.0825 38.926 97.3555 36.6885 95.5142 35.7116L87.6372 31.5321L87.2886 32.189L87.6371 31.5321C85.33 30.3081 83.7506 28.1343 83.2992 25.5617L81.7587 16.7784C81.3986 14.7253 79.4943 13.3424 77.4313 13.6343L68.6021 14.8832L68.602 14.8833C66.0161 15.2493 63.4605 14.4188 61.5831 12.6027L55.1743 6.40283L55.1742 6.40273C53.676 4.95393 51.3232 4.9538 49.8253 6.40282L43.4163 12.6027C43.4163 12.6027 43.4163 12.6027 43.4163 12.6027C41.5389 14.4187 38.9829 15.2493 36.3974 14.8833L36.3973 14.8832L27.5681 13.6343L27.568 13.6343C25.5037 13.3427 23.601 14.7254 23.2407 16.7783L23.2407 16.7784L21.7002 25.5615L22.4389 25.691L21.7002 25.5615C21.249 28.1341 19.6695 30.3078 17.3623 31.5322L9.48542 35.7116C7.64412 36.6885 6.91706 38.926 7.83237 40.7986L8.50618 40.4693L7.83238 40.7987L11.7485 48.81C12.8954 51.1566 12.8954 53.8433 11.7485 56.1899L7.83238 64.2012L8.50618 64.5305L7.83237 64.2012C6.91706 66.0738 7.64412 68.3114 9.4854 69.2883L17.3624 73.4677L17.7139 72.8052L17.3625 73.4677C19.6696 74.6917 21.249 76.8655 21.7004 79.4382L23.2411 88.2214L23.2411 88.2215C23.6015 90.2746 25.5057 91.6571 27.5685 91.3655L27.4635 90.6229L27.5685 91.3655L36.3977 90.1166L36.3978 90.1166C36.7989 90.0598 37.1992 90.0319 37.5959 90.0319C39.7582 90.0319 41.8292 90.8615 43.4167 92.3971L49.8255 98.597L49.8256 98.5971C51.3238 100.046 53.6766 100.046 55.1744 98.597L61.5835 92.3974C63.461 90.5813 66.0159 89.7504 68.6023 90.1168L68.6025 90.1168L77.4317 91.3657Z"
                  fill="#FFC608" stroke="#2D2F34" stroke-width="1.5"/>
            <path d="M74.271 30.7287L74.271 30.7287C75.2585 31.7161 75.2585 33.3166 74.2709 34.304L74.2708 34.304L34.3036 74.2712L34.3035 74.2714C33.8101 74.7651 33.1638 75.0117 32.5161 75.0117C31.8686 75.0117 31.2224 74.765 30.7287 74.2712C29.7415 73.284 29.7415 71.6833 30.7287 70.6961L70.6959 30.7287C71.6832 29.7415 73.284 29.7415 74.271 30.7287Z"
                  fill="#FFC608" stroke="#2D2F34"/>
            <path d="M45.9348 36.3508V36.3507C45.9348 33.2919 43.4469 30.8042 40.3881 30.8042C37.3292 30.8042 34.8415 33.2919 34.8415 36.3507C34.8415 39.4098 37.3292 41.8975 40.3881 41.8975C43.4469 41.8975 45.9346 39.4098 45.9348 36.3508ZM29.7854 36.351C29.7854 30.5051 34.5422 25.7483 40.3881 25.7483C46.2339 25.7483 50.9907 30.5051 50.9907 36.351C50.9907 42.1968 46.2339 46.9536 40.3881 46.9536C34.5422 46.9536 29.7854 42.1968 29.7854 36.351Z"
                  fill="#FFC608" stroke="#2D2F34"/>
            <path d="M54.009 68.6493C54.009 62.8035 58.7659 58.0466 64.6117 58.0466C70.4575 58.0466 75.2144 62.8035 75.2144 68.6493C75.2144 74.4951 70.4575 79.252 64.6117 79.252C58.7659 79.252 54.009 74.4951 54.009 68.6493ZM59.065 68.6493C59.065 71.7082 61.5529 74.1958 64.6117 74.1958C67.6705 74.1958 70.1582 71.7081 70.1582 68.6493C70.1582 65.5905 67.6705 63.1028 64.6117 63.1028C61.5527 63.1028 59.065 65.5905 59.065 68.6493Z"
                  fill="#FFC608" stroke="#2D2F34"/>
        </g>
        <defs>
            <clipPath id="clip0">
                <rect width="105" height="105" fill="white"/>
            </clipPath>
        </defs>
    </symbol>

    <symbol id="tab-icon4" viewBox="0 0 105 105">
        <g clip-path="url(#clip0)">
            <path d="M65.9033 13.0832C54.3537 7.2471 40.441 9.47856 31.284 18.6357C20.6415 29.2781 19.5763 46.2475 28.8065 58.108C29.1327 58.5272 29.6204 58.7466 30.1134 58.7466C30.4686 58.7466 30.8265 58.6328 31.1286 58.3976C31.8498 57.8363 31.9794 56.7967 31.4183 56.0755C23.2113 45.5299 24.1598 30.4403 33.6244 20.9757C41.768 12.8316 54.14 10.8468 64.4112 16.0368C65.2266 16.4494 66.222 16.1217 66.6342 15.3061C67.0462 14.4905 66.7193 13.4952 65.9033 13.0832Z"
                  fill="#FFC608"/>
            <path d="M79.1166 26.299C78.7044 25.4834 77.7096 25.1561 76.8934 25.5679C76.0778 25.9799 75.7502 26.975 76.1623 27.791C81.3485 38.0605 79.3627 50.4308 71.2209 58.5725C61.7561 68.0368 46.6666 68.9851 36.1211 60.7785C35.3996 60.2174 34.3603 60.347 33.799 61.0681C33.2377 61.7893 33.3675 62.8289 34.0887 63.3902C39.4913 67.5947 45.9536 69.6627 52.3953 69.6627C60.0954 69.6627 67.7663 66.7073 73.5612 60.9124C82.7161 51.7577 84.9486 37.8476 79.1166 26.299Z"
                  fill="#FFC608"/>
            <path d="M74.8413 19.9969C74.4314 19.533 74.0007 19.0748 73.5612 18.6355C73.1217 18.1961 72.6638 17.7654 72.1999 17.3554C71.5151 16.7501 70.4692 16.8149 69.8645 17.4996C69.2589 18.1842 69.3233 19.2299 70.008 19.835C70.4213 20.2001 70.8294 20.584 71.2211 20.9755C71.6123 21.3672 71.9963 21.7751 72.3615 22.1883C72.6884 22.5583 73.1441 22.7472 73.602 22.7472C73.9915 22.7472 74.3823 22.6104 74.6971 22.3323C75.3821 21.7273 75.4465 20.6816 74.8413 19.9969Z"
                  fill="#FFC608"/>
            <path d="M91.4786 42.7404C92.5819 40.9302 92.5819 38.6817 91.4781 36.8719L89.3012 33.3021C89.0145 32.8317 88.9036 32.273 88.9893 31.7292L89.6382 27.6065C89.969 25.5054 89.1058 23.4233 87.386 22.1721L84.0123 19.7181C83.5662 19.3935 83.2492 18.92 83.1193 18.3839L82.1368 14.3235C81.6381 12.2611 80.0469 10.6701 77.9846 10.1709L73.924 9.18816C73.388 9.05834 72.914 8.74129 72.5898 8.29525L70.1354 4.92068C68.8844 3.20089 66.8021 2.33731 64.7017 2.6683L60.5775 3.31717C60.0337 3.40269 59.4748 3.29195 59.0048 3.00525L55.4344 0.827723C53.6243 -0.27601 51.3759 -0.275805 49.5658 0.827723L45.9958 3.00463C45.5258 3.29154 44.9674 3.40187 44.4229 3.31656L40.3 2.66769C38.1996 2.3371 36.117 3.20028 34.866 4.92006L32.412 8.29381C32.0874 8.73986 31.6137 9.05691 31.0774 9.18672L27.017 10.1693C24.955 10.668 23.3636 12.2592 22.8644 14.3215L21.8817 18.382C21.7519 18.9181 21.435 19.392 20.9888 19.7163L17.6142 22.1707C15.8944 23.4214 15.0314 25.5034 15.3618 27.6044L16.0107 31.7288C16.0962 32.2728 15.9855 32.8315 15.6988 33.3015L13.5214 36.8721C12.4181 38.6821 12.4181 40.9306 13.5216 42.7404L15.6986 46.3105C15.9853 46.7809 16.0962 47.3395 16.0105 47.8834L15.3616 52.0063C15.0308 54.1071 15.894 56.1895 17.6138 57.4405L20.9875 59.8944C21.4336 60.2187 21.7506 60.6926 21.8804 61.2287L22.863 65.289C23.3617 67.3515 24.9529 68.9425 27.0152 69.4417L28.7108 69.852L17.2358 95.4487C16.992 95.9928 17.0595 96.6257 17.4128 97.1059C17.7659 97.5862 18.3498 97.8395 18.9421 97.7686L28.1751 96.6646L33.494 104.292C33.8053 104.738 34.3133 105 34.8508 105C34.9023 105 34.9544 104.997 35.0061 104.993C35.5996 104.937 36.1174 104.566 36.3612 104.022L48.0805 77.879L49.5654 78.7844C50.4704 79.3363 51.485 79.6121 52.4997 79.6121C53.5144 79.6121 54.5289 79.3361 55.434 78.7844L56.9725 77.8464L68.7064 104.022C68.9503 104.566 69.4679 104.937 70.0616 104.993C70.1135 104.998 70.1654 105 70.2168 105C70.7543 105 71.2625 104.738 71.5736 104.292L76.8925 96.6648L86.1256 97.7688C86.7175 97.8391 87.3017 97.5864 87.6549 97.1061C88.008 96.6259 88.0759 95.993 87.8318 95.4489L76.3509 69.8381L77.9827 69.4433C80.0448 68.9446 81.6362 67.3534 82.1354 65.2911L83.1181 61.2305C83.2479 60.6945 83.565 60.2205 84.011 59.8963L87.3856 57.4419C89.1054 56.1911 89.9684 54.1092 89.638 52.0081L88.9891 47.8838C88.9036 47.3397 89.0143 46.7811 89.301 46.3111L91.4786 42.7404ZM34.5369 100.002L30.3217 93.9574C29.9722 93.4562 29.3746 93.1879 28.768 93.2609L21.451 94.1358L31.9057 70.8136C32.0968 70.9541 32.2683 71.1225 32.4096 71.3171L34.864 74.6917C35.0971 75.0122 35.3592 75.3028 35.6449 75.5616L30.142 87.837C29.7684 88.6711 30.1412 89.6499 30.9751 90.0238C31.1949 90.1224 31.4248 90.169 31.6508 90.169C32.2828 90.169 32.8866 89.8047 33.1616 89.1907L38.645 76.959C39.1846 77.0331 39.7401 77.0318 40.2977 76.9441L44.4219 76.2952C44.6688 76.2564 44.9183 76.2599 45.1614 76.3001L34.5369 100.002ZM83.6171 94.1354L76.2999 93.2609C75.6926 93.1881 75.0957 93.4562 74.7462 93.9574L70.531 100.002L59.902 76.2909C60.1249 76.2605 60.3524 76.2605 60.5773 76.2958L64.7 76.9447C65.2802 77.0359 65.8583 77.0331 66.4184 76.9496L71.9059 89.1911C72.1813 89.8054 72.7846 90.1694 73.4167 90.1694C73.6429 90.1694 73.8728 90.1228 74.0924 90.0242C74.9263 89.6505 75.2993 88.6713 74.9254 87.8374L69.4016 75.5153C69.668 75.268 69.9143 74.9942 70.134 74.6923L72.588 71.3186C72.7426 71.1059 72.9321 70.9236 73.1449 70.7761L83.6171 94.1354ZM88.6528 41.0174L86.4755 44.588C85.7813 45.727 85.5126 47.0801 85.7199 48.3979L86.3688 52.5221C86.5052 53.3894 86.1488 54.2488 85.439 54.7652L82.0642 57.2198C80.9841 58.0057 80.2158 59.1535 79.9017 60.4518L78.9189 64.5124C78.7128 65.3637 78.0562 66.0206 77.2047 66.2267L73.1441 67.2092C71.8456 67.5234 70.6975 68.2916 69.9117 69.3719L67.4577 72.7457C66.9413 73.4559 66.082 73.8119 65.2144 73.6753L61.0915 73.0264C59.7734 72.8191 58.4201 73.0873 57.2809 73.782L53.7111 75.9589C52.964 76.4141 52.0354 76.4141 51.2887 75.9589L47.7181 73.7817C46.8301 73.2401 45.8121 72.9579 44.782 72.9579C44.4908 72.9579 44.1981 72.9805 43.9079 73.0262L39.7836 73.6751C38.9161 73.8117 38.0568 73.4551 37.5404 72.7453L35.0859 69.3707C34.3 68.2906 33.1522 67.5223 31.8538 67.2082L27.7933 66.2254C26.942 66.0193 26.2851 65.3627 26.079 64.5112L25.0965 60.4508C24.7823 59.1523 24.0143 58.004 22.9337 57.2182L19.5602 54.764C18.8502 54.2476 18.494 53.3879 18.6306 52.5206L19.2794 48.3977C19.4868 47.0797 19.2185 45.7266 18.5239 44.5874L16.347 41.0172C15.8915 40.2701 15.8915 39.3417 16.347 38.5948L18.5243 35.0242C19.2187 33.8852 19.4872 32.532 19.2798 31.2142L18.631 27.0901C18.4946 26.2228 18.851 25.3633 19.5608 24.8469L22.9356 22.3923C24.0157 21.6065 24.7839 20.4587 25.0981 19.1603L26.0809 15.0998C26.287 14.2485 26.9436 13.5916 27.7951 13.3855L31.8557 12.403C33.1542 12.0888 34.3022 11.3206 35.0879 10.2402L37.5419 6.86647C38.0583 6.15648 38.9175 5.79985 39.7852 5.93664L43.9081 6.58551C45.2264 6.79325 46.5797 6.5246 47.7187 5.83L51.2885 3.65309C52.0356 3.19782 52.9642 3.19782 53.7109 3.65309L57.2815 5.8302C58.4205 6.52501 59.774 6.79346 61.0917 6.58592L65.216 5.93705C66.0831 5.80108 66.9428 6.1571 67.4591 6.86688L69.9137 10.2414C70.6996 11.3216 71.8474 12.0898 73.1458 12.404L77.2063 13.3867C78.0576 13.5928 78.7145 14.2495 78.9206 15.101L79.9031 19.1613C80.2173 20.4599 80.9853 21.6081 82.0659 22.394L85.4396 24.848C86.1496 25.3643 86.5058 26.224 86.3692 27.0913L85.7204 31.2142C85.513 32.5322 85.7813 33.8854 86.4759 35.0246L88.6528 38.5948C89.1085 39.3419 89.1085 40.2703 88.6528 41.0174Z"
                  fill="#FFC608"/>
            <path d="M71.8628 34.6577C71.4982 33.5351 70.5436 32.7512 69.3713 32.6122L59.4146 31.4316L55.215 22.3271C54.7205 21.2554 53.6801 20.5895 52.4997 20.5895C51.3195 20.5895 50.2789 21.2554 49.7845 22.3271L45.5849 31.4318L35.6281 32.6124C34.4559 32.7515 33.501 33.5353 33.1366 34.6579C32.772 35.7798 33.0837 36.9753 33.9499 37.7765L41.3112 44.5841L39.3573 54.4184C39.1274 55.5763 39.5777 56.7264 40.5328 57.4199C41.0596 57.8026 41.671 57.9964 42.2862 57.9964C42.7864 57.9964 43.2888 57.8684 43.7504 57.61L52.4995 52.713L61.2486 57.61C62.2787 58.1867 63.5114 58.1139 64.4665 57.4201C65.4215 56.7264 65.8719 55.5761 65.6418 54.4184L63.6878 44.5843L71.0491 37.7767C71.9157 36.9755 72.2275 35.7803 71.8628 34.6577ZM60.7611 42.7835C60.3386 43.1742 60.1496 43.7564 60.2615 44.3208L62.2611 54.3842L53.3077 49.3727C53.0567 49.2322 52.7782 49.1618 52.4995 49.1618C52.2208 49.1618 51.9425 49.232 51.6913 49.3727L42.738 54.3842L44.7375 44.3208C44.8499 43.7562 44.6606 43.1742 44.2379 42.7835L36.705 35.817L46.8945 34.6088C47.4659 34.5412 47.9611 34.1813 48.2023 33.6589L52.4997 24.342L56.7971 33.6589C57.0383 34.1813 57.5334 34.5412 58.1049 34.6088L68.2941 35.817L60.7611 42.7835Z"
                  fill="#FFC608"/>
        </g>
        <defs>
            <clipPath id="clip0">
                <rect width="105" height="105" fill="white"/>
            </clipPath>
        </defs>
    </symbol>

    <symbol id="close" viewBox="0 0 30 30">
        <path d="M18.7422 15L29.217 4.52527C29.7141 4.02901 29.9937 3.3556 29.9944 2.65318C29.995 1.95075 29.7165 1.27685 29.2203 0.779721C28.724 0.282592 28.0506 0.00295977 27.3482 0.00233943C26.6458 0.0017191 25.9719 0.280162 25.4747 0.776413L15 11.2511L4.52527 0.776413C4.02814 0.279284 3.35389 0 2.65084 0C1.94779 0 1.27354 0.279284 0.776413 0.776413C0.279284 1.27354 0 1.94779 0 2.65084C0 3.35389 0.279284 4.02814 0.776413 4.52527L11.2511 15L0.776413 25.4747C0.279284 25.9719 0 26.6461 0 27.3492C0 28.0522 0.279284 28.7265 0.776413 29.2236C1.27354 29.7207 1.94779 30 2.65084 30C3.35389 30 4.02814 29.7207 4.52527 29.2236L15 18.7489L25.4747 29.2236C25.9719 29.7207 26.6461 30 27.3492 30C28.0522 30 28.7265 29.7207 29.2236 29.2236C29.7207 28.7265 30 28.0522 30 27.3492C30 26.6461 29.7207 25.9719 29.2236 25.4747L18.7422 15Z"/>
    </symbol>

    <symbol id="burger" viewBox="0 0 19 17">
        <path d="M0 1.64286C0 1.33975 0.125111 1.04906 0.347811 0.834735C0.57051 0.620408 0.872555 0.5 1.1875 0.5H17.8125C18.1274 0.5 18.4295 0.620408 18.6522 0.834735C18.8749 1.04906 19 1.33975 19 1.64286C19 1.94596 18.8749 2.23665 18.6522 2.45098C18.4295 2.66531 18.1274 2.78571 17.8125 2.78571H1.1875C0.872555 2.78571 0.57051 2.66531 0.347811 2.45098C0.125111 2.23665 0 1.94596 0 1.64286Z"/>
        <path d="M0 15.3571C0 15.054 0.125111 14.7633 0.347811 14.549C0.57051 14.3347 0.872555 14.2143 1.1875 14.2143H17.8125C18.1274 14.2143 18.4295 14.3347 18.6522 14.549C18.8749 14.7633 19 15.054 19 15.3571C19 15.6602 18.8749 15.9509 18.6522 16.1653C18.4295 16.3796 18.1274 16.5 17.8125 16.5H1.1875C0.872555 16.5 0.57051 16.3796 0.347811 16.1653C0.125111 15.9509 0 15.6602 0 15.3571Z"/>
        <path d="M1.1875 7.35714C0.872555 7.35714 0.57051 7.47755 0.347811 7.69188C0.125111 7.90621 0 8.1969 0 8.5C0 8.80311 0.125111 9.0938 0.347811 9.30812C0.57051 9.52245 0.872555 9.64286 1.1875 9.64286H10.6875C11.0024 9.64286 11.3045 9.52245 11.5272 9.30812C11.7499 9.0938 11.875 8.80311 11.875 8.5C11.875 8.1969 11.7499 7.90621 11.5272 7.69188C11.3045 7.47755 11.0024 7.35714 10.6875 7.35714H1.1875Z"/>
    </symbol>


    <symbol id="arrow-left" viewBox="0 0 13 19">
        <path d="M12.5537 0.371839C12.4132 0.253971 12.2462 0.160456 12.0624 0.0966498C11.8786 0.0328436 11.6816 0 11.4826 0C11.2836 0 11.0865 0.0328436 10.9028 0.0966498C10.719 0.160456 10.552 0.253971 10.4115 0.371839L0.353943 8.78603C0.241745 8.8797 0.152731 8.99097 0.0919963 9.11346C0.0312621 9.23595 0 9.36726 0 9.49987C0 9.63248 0.0312621 9.76378 0.0919963 9.88627C0.152731 10.0088 0.241745 10.12 0.353943 10.2137L10.4115 18.6279C11.0045 19.124 11.9606 19.124 12.5537 18.6279C13.1467 18.1318 13.1467 17.3318 12.5537 16.8357L3.79117 9.4948L12.5658 2.1539C13.1467 1.66789 13.1467 0.857857 12.5537 0.371839Z"/>
    </symbol>


    <symbol id="exit" viewBox="0 0 30 30">
        <path d="M13.4875 20.3625C13.975 20.85 14.7625 20.85 15.25 20.3625L19.7375 15.875C19.8534 15.7594 19.9453 15.622 20.008 15.4708C20.0708 15.3196 20.1031 15.1575 20.1031 14.9937C20.1031 14.83 20.0708 14.6679 20.008 14.5167C19.9453 14.3655 19.8534 14.2281 19.7375 14.1125L15.25 9.625C15.0163 9.39128 14.6993 9.25997 14.3687 9.25997C14.0382 9.25997 13.7212 9.39128 13.4875 9.625C13.2538 9.85872 13.1225 10.1757 13.1225 10.5062C13.1225 10.8368 13.2538 11.1538 13.4875 11.3875L15.8375 13.75H5C4.3125 13.75 3.75 14.3125 3.75 15C3.75 15.6875 4.3125 16.25 5 16.25H15.8375L13.4875 18.6C13 19.0875 13.0125 19.8875 13.4875 20.3625ZM23.75 3.75H6.25C5.58696 3.75 4.95107 4.01339 4.48223 4.48223C4.01339 4.95107 3.75 5.58696 3.75 6.25V10C3.75 10.6875 4.3125 11.25 5 11.25C5.6875 11.25 6.25 10.6875 6.25 10V7.5C6.25 6.8125 6.8125 6.25 7.5 6.25H22.5C23.1875 6.25 23.75 6.8125 23.75 7.5V22.5C23.75 23.1875 23.1875 23.75 22.5 23.75H7.5C6.8125 23.75 6.25 23.1875 6.25 22.5V20C6.25 19.3125 5.6875 18.75 5 18.75C4.3125 18.75 3.75 19.3125 3.75 20V23.75C3.75 25.125 4.875 26.25 6.25 26.25H23.75C25.125 26.25 26.25 25.125 26.25 23.75V6.25C26.25 4.875 25.125 3.75 23.75 3.75Z"/>
    </symbol>

    <symbol id="heart" viewBox="0 0 20 20">
        <path d="M9.23048 3.26696L9.99818 4.18669L10.7659 3.26696C11.1799 2.77091 11.7449 2.18722 12.4013 1.73417C13.061 1.27876 13.7474 1 14.4264 1C15.7839 1 16.9013 1.534 17.6914 2.43665C18.4899 3.34899 19 4.69453 19 6.3677C19 9.9992 16.5297 12.3818 13.7152 15.0211C13.7151 15.0212 13.7151 15.0212 13.715 15.0213L13.6968 15.0384C12.4462 16.2107 11.0783 17.4929 9.9987 18.9252C8.92987 17.5051 7.57498 16.2332 6.33532 15.0694L6.28446 15.0216L6.28407 15.0213C3.46883 12.3811 1 9.99835 1 6.3677C1 4.69453 1.5101 3.34902 2.3087 2.43669C3.09881 1.53406 4.21643 1 5.57455 1C6.25281 1 6.93788 1.27855 7.59651 1.73381C8.25181 2.18676 8.81601 2.77042 9.23048 3.26696Z"/>
    </symbol>

    <symbol id="clock" viewBox="0 0 20 20">
        <path d="M7 5H9V10H14V12H7V5Z"/>
        <path fill-rule="evenodd" clip-rule="evenodd"
              d="M20 10C20 15.523 15.523 20 10 20C4.477 20 0 15.523 0 10C0 4.477 4.477 0 10 0C15.523 0 20 4.477 20 10ZM18 10C18 12.1217 17.1571 14.1566 15.6569 15.6569C14.1566 17.1571 12.1217 18 10 18C7.87827 18 5.84344 17.1571 4.34315 15.6569C2.84285 14.1566 2 12.1217 2 10C2 7.87827 2.84285 5.84344 4.34315 4.34315C5.84344 2.84285 7.87827 2 10 2C12.1217 2 14.1566 2.84285 15.6569 4.34315C17.1571 5.84344 18 7.87827 18 10Z"/>
    </symbol>

    <symbol id="notification" viewBox="0 0 18 20">
        <path d="M9 20C10.2375 20 11.25 19.0769 11.25 17.9487H6.75C6.75 19.0769 7.7625 20 9 20ZM15.75 13.8462V8.71795C15.75 5.56923 13.9163 2.93333 10.6875 2.2359V1.53846C10.6875 0.68718 9.93375 0 9 0C8.06625 0 7.3125 0.68718 7.3125 1.53846V2.2359C4.095 2.93333 2.25 5.55897 2.25 8.71795V13.8462L0 15.8974V16.9231H18V15.8974L15.75 13.8462ZM13.5 14.8718H4.5V8.71795C4.5 6.17436 6.19875 4.10256 9 4.10256C11.8013 4.10256 13.5 6.17436 13.5 8.71795V14.8718Z"/>
    </symbol>


    <symbol id="question" viewBox="0 0 20 20">
        <path d="M10 0C8.02219 0 6.08879 0.58649 4.4443 1.6853C2.79981 2.78412 1.51809 4.3459 0.761209 6.17316C0.00433284 8.00042 -0.1937 10.0111 0.192152 11.9509C0.578004 13.8907 1.53041 15.6725 2.92894 17.0711C4.32746 18.4696 6.10929 19.422 8.0491 19.8078C9.98891 20.1937 11.9996 19.9957 13.8268 19.2388C15.6541 18.4819 17.2159 17.2002 18.3147 15.5557C19.4135 13.9112 20 11.9778 20 10C20 8.68678 19.7413 7.38642 19.2388 6.17316C18.7362 4.95991 17.9997 3.85752 17.0711 2.92893C16.1425 2.00035 15.0401 1.26375 13.8268 0.761204C12.6136 0.258658 11.3132 0 10 0ZM10 18C8.41775 18 6.87103 17.5308 5.55544 16.6518C4.23985 15.7727 3.21447 14.5233 2.60897 13.0615C2.00347 11.5997 1.84504 9.99112 2.15372 8.43927C2.4624 6.88743 3.22433 5.46196 4.34315 4.34314C5.46197 3.22432 6.88743 2.4624 8.43928 2.15372C9.99113 1.84504 11.5997 2.00346 13.0615 2.60896C14.5233 3.21446 15.7727 4.23984 16.6518 5.55544C17.5308 6.87103 18 8.41775 18 10C18 12.1217 17.1571 14.1566 15.6569 15.6568C14.1566 17.1571 12.1217 18 10 18Z"/>
        <path d="M10 4.00001C9.07174 4.00001 8.1815 4.36876 7.52513 5.02513C6.86875 5.68151 6.5 6.57175 6.5 7.50001C6.5 7.76522 6.60536 8.01958 6.79289 8.20711C6.98043 8.39465 7.23478 8.5 7.5 8.5C7.76522 8.5 8.01957 8.39465 8.20711 8.20711C8.39464 8.01958 8.5 7.76522 8.5 7.50001C8.5 7.20333 8.58797 6.91332 8.75279 6.66665C8.91762 6.41998 9.15188 6.22772 9.42597 6.11419C9.70006 6.00065 10.0017 5.97095 10.2926 6.02883C10.5836 6.08671 10.8509 6.22957 11.0607 6.43935C11.2704 6.64912 11.4133 6.9164 11.4712 7.20737C11.5291 7.49834 11.4993 7.79994 11.3858 8.07403C11.2723 8.34812 11.08 8.58239 10.8334 8.74721C10.5867 8.91203 10.2967 9 10 9C9.73478 9 9.48043 9.10536 9.29289 9.2929C9.10536 9.48043 9 9.73479 9 10V12C9 12.2652 9.10536 12.5196 9.29289 12.7071C9.48043 12.8946 9.73478 13 10 13C10.2652 13 10.5196 12.8946 10.7071 12.7071C10.8946 12.5196 11 12.2652 11 12V10.84C11.8081 10.604 12.5037 10.0839 12.9585 9.37544C13.4133 8.66702 13.5967 7.81807 13.4749 6.98507C13.3532 6.15207 12.9344 5.39116 12.2958 4.8426C11.6572 4.29403 10.8418 3.99478 10 4.00001Z"/>
        <path d="M10 16C10.5523 16 11 15.5523 11 15C11 14.4477 10.5523 14 10 14C9.44772 14 9 14.4477 9 15C9 15.5523 9.44772 16 10 16Z"/>
    </symbol>


    <symbol id="tab-catalog1" viewBox="0 0 24 24">
        <path d="M4 8H8V4H4V8ZM10 20H14V16H10V20ZM4 20H8V16H4V20ZM4 14H8V10H4V14ZM10 14H14V10H10V14ZM16 4V8H20V4H16ZM10 8H14V4H10V8ZM16 14H20V10H16V14ZM16 20H20V16H16V20Z"/>
    </symbol>


    <symbol id="tab-catalog2" viewBox="0 0 24 24">
        <path d="M4 10.5C3.17 10.5 2.5 11.17 2.5 12C2.5 12.83 3.17 13.5 4 13.5C4.83 13.5 5.5 12.83 5.5 12C5.5 11.17 4.83 10.5 4 10.5ZM4 4.5C3.17 4.5 2.5 5.17 2.5 6C2.5 6.83 3.17 7.5 4 7.5C4.83 7.5 5.5 6.83 5.5 6C5.5 5.17 4.83 4.5 4 4.5ZM4 16.5C3.17 16.5 2.5 17.18 2.5 18C2.5 18.82 3.18 19.5 4 19.5C4.82 19.5 5.5 18.82 5.5 18C5.5 17.18 4.83 16.5 4 16.5ZM7 19H21V17H7V19ZM7 13H21V11H7V13ZM7 5V7H21V5H7Z"/>
    </symbol>


    <symbol id="list" viewBox="0 0 18 16">
        <path d="M1.44225 8.07314C0.96075 8.448 0.63225 8.76914 0.457875 9.04571C0.2835 9.32 0.17775 9.61486 0.144 9.92343H3.15788V9.06857H1.58963C1.68075 8.976 1.76063 8.896 1.82812 8.83886C1.89787 8.78171 2.03288 8.67657 2.23425 8.53029C2.57512 8.28114 2.80912 8.05029 2.9385 7.84C3.069 7.62743 3.13312 7.41143 3.13312 7.17943C3.13619 6.9714 3.07695 6.76733 2.96325 6.59429C2.85162 6.41928 2.68985 6.28326 2.49975 6.20457C2.304 6.11771 2.02837 6.07771 1.67512 6.07771C1.33762 6.07771 1.071 6.12114 0.880875 6.208C0.697756 6.28871 0.542601 6.42325 0.435375 6.59429C0.329625 6.75772 0.2565 6.98971 0.217125 7.28457L1.22287 7.37143C1.251 7.15657 1.30613 7.00914 1.38825 6.92114C1.42943 6.87979 1.47855 6.84749 1.53255 6.82625C1.58655 6.80502 1.64427 6.7953 1.70213 6.79771C1.82588 6.79771 1.92712 6.83771 2.00812 6.92114C2.04757 6.95891 2.07877 7.00467 2.09971 7.05546C2.12064 7.10626 2.13083 7.16095 2.12963 7.216C2.12268 7.33878 2.08044 7.4568 2.00812 7.55543C1.92487 7.672 1.737 7.84571 1.44225 8.07314ZM1.50412 15.3714C1.38699 15.3751 1.27309 15.3321 1.18687 15.2514C1.10362 15.1714 1.04288 15.0286 1.00463 14.8194L0 14.9543C0.066375 15.1874 0.15975 15.3794 0.282375 15.5326C0.405 15.6846 0.561375 15.8011 0.7515 15.8823C0.9405 15.9611 1.20038 16 1.53 16C1.8675 16 2.13863 15.9463 2.34562 15.84C2.54626 15.7382 2.71237 15.5778 2.82262 15.3794C2.93287 15.1794 2.98688 14.9749 2.98688 14.7577C2.991 14.602 2.95698 14.4476 2.88787 14.3086C2.82142 14.1862 2.72491 14.0835 2.60775 14.0103C2.50738 13.9521 2.39889 13.9097 2.286 13.8846C2.44097 13.8047 2.57425 13.6873 2.67412 13.5429C2.75911 13.4134 2.80344 13.2608 2.80125 13.1051C2.80333 12.9746 2.77592 12.8453 2.72111 12.7273C2.66631 12.6092 2.58558 12.5054 2.48513 12.424C2.27475 12.2423 1.93388 12.152 1.4625 12.152C1.05188 12.152 0.7335 12.2343 0.509625 12.4023C0.284625 12.5657 0.133875 12.8057 0.0551248 13.1177L1.00463 13.2903C1.0305 13.1051 1.08 12.9771 1.15425 12.904C1.2285 12.8309 1.32413 12.792 1.44337 12.792C1.49297 12.7897 1.54251 12.7975 1.58908 12.815C1.63565 12.8324 1.6783 12.8592 1.7145 12.8937C1.78088 12.9623 1.81238 13.0526 1.81238 13.1657C1.81238 13.2846 1.76962 13.3863 1.68075 13.4743C1.59187 13.5623 1.48163 13.6023 1.35113 13.6023C1.3074 13.6009 1.26381 13.5967 1.22063 13.5897L1.17 14.3314C1.27516 14.2958 1.38447 14.2743 1.49513 14.2674C1.64363 14.2674 1.76175 14.3143 1.84725 14.4114C1.93388 14.5051 1.97662 14.6389 1.97662 14.8137C1.97662 14.9806 1.93163 15.1177 1.84275 15.2183C1.80053 15.2671 1.74841 15.3061 1.68995 15.3325C1.6315 15.359 1.5681 15.3722 1.50412 15.3714ZM2.57062 3.848V0H1.73925C1.63762 0.230559 1.48611 0.434865 1.296 0.597714C1.107 0.76 0.8415 0.897143 0.4995 1.01486V1.87657C0.88408 1.7688 1.24284 1.58211 1.55363 1.328V3.84914H2.57062V3.848ZM5.625 1.14286H18V3.42857H5.625V1.14286ZM5.625 6.85714H18V9.14286H5.625V6.85714ZM5.625 12.5714H18V14.8571H5.625V12.5714Z"/>
    </symbol>

    <symbol id="filter" viewBox="0 0 16 16">
        <path d="M9.33333 16H6.66667C6.31305 16 5.97391 15.8595 5.72386 15.6095C5.47381 15.3594 5.33333 15.0203 5.33333 14.6667V9.60667L0.393333 4.66667C0.142942 4.41777 0.00148853 4.07972 0 3.72667V1.33333C0 0.979711 0.140476 0.640573 0.390524 0.390524C0.640573 0.140476 0.979711 0 1.33333 0H14.6667C15.0203 0 15.3594 0.140476 15.6095 0.390524C15.8595 0.640573 16 0.979711 16 1.33333V3.72667C15.9985 4.07972 15.8571 4.41777 15.6067 4.66667L10.6667 9.60667V14.6667C10.6667 15.0203 10.5262 15.3594 10.2761 15.6095C10.0261 15.8595 9.68696 16 9.33333 16ZM1.33333 1.33333V3.72667L6.66667 9.06V14.6667H9.33333V9.06L14.6667 3.72667V1.33333H1.33333Z"/>
    </symbol>

    <symbol id="play" viewBox="0 0 80 80">
        <path d="M40 5C33.0777 5 26.3108 7.05271 20.5551 10.8986C14.7993 14.7444 10.3133 20.2107 7.66423 26.6061C5.01516 33.0015 4.32205 40.0388 5.67253 46.8282C7.02301 53.6175 10.3564 59.8539 15.2513 64.7487C20.1461 69.6436 26.3825 72.977 33.1719 74.3275C39.9612 75.678 46.9985 74.9848 53.3939 72.3358C59.7893 69.6867 65.2556 65.2007 69.1015 59.445C72.9473 53.6892 75 46.9223 75 40C75 30.7174 71.3125 21.815 64.7487 15.2513C58.185 8.68749 49.2826 5 40 5ZM58.7 42.2L31.2 57.2C30.82 57.4194 30.3889 57.5349 29.95 57.5349C29.5112 57.5349 29.0801 57.4194 28.7 57.2C28.3241 56.9713 28.0152 56.6475 27.8045 56.2612C27.5938 55.8749 27.4887 55.4399 27.5 55V25C27.5001 24.5661 27.6131 24.1398 27.8279 23.7628C28.0426 23.3858 28.3518 23.0713 28.725 22.85C29.1051 22.6306 29.5362 22.5151 29.975 22.5151C30.4139 22.5151 30.845 22.6306 31.225 22.85L58.725 37.85C59.1219 38.0642 59.4534 38.3818 59.6845 38.7691C59.9156 39.1564 60.0376 39.599 60.0376 40.05C60.0376 40.501 59.9156 40.9436 59.6845 41.3309C59.4534 41.7182 59.1219 42.0358 58.725 42.25L58.7 42.2Z"/>
    </symbol>

</svg>