<svg width="92" height="40" viewBox="0 0 92 40" fill="none" xmlns="http://www.w3.org/2000/svg">
    <path fill-rule="evenodd" clip-rule="evenodd" d="M37.2064 21.3477L32.5955 33.8864L32.1034 31.3388C30.9553 28.2149 28.469 24.9375 25.5737 23.6092L29.7919 39.7099L34.7787 39.7073L42.1942 21.3477H37.2064ZM41.1586 39.7278L44.1064 21.3303H48.8171L45.8673 39.7278H41.1586ZM62.9574 21.7838C62.0268 21.413 60.5582 21.0098 58.7357 21.0098C54.0759 21.0098 50.8016 23.5075 50.7731 27.0798C50.743 29.726 53.1142 31.2022 54.8965 32.0815C56.7364 32.9808 57.3507 33.5582 57.3446 34.363C57.3267 35.5957 55.873 36.1576 54.5221 36.1576C52.6389 36.1576 51.6355 35.8803 50.0916 35.1961L49.4798 34.9028L48.8207 39.0201C49.9229 39.5327 51.9574 39.9764 54.0723 39.9995C59.0179 39.9995 62.2356 37.53 62.2733 33.7169C62.2937 31.6182 61.035 30.029 58.3144 28.7178C56.6722 27.8651 55.6565 27.2996 55.6718 26.4352C55.6733 25.6719 56.5234 24.8532 58.371 24.8532C59.9139 24.8275 61.0233 25.1845 61.8964 25.561L62.3166 25.7716L62.9574 21.7838ZM75.0398 21.3493H71.4003C70.272 21.3493 69.4265 21.6734 68.9283 22.8763L61.9351 39.7335H66.8831C66.8831 39.7335 67.692 37.4648 67.8749 36.9676C68.4148 36.9676 73.2203 36.9784 73.9059 36.9784C74.0516 37.6204 74.4795 39.7335 74.4795 39.7335H78.8545L75.0398 21.3493ZM69.2304 33.2043C69.6216 32.1488 71.1069 28.0618 71.1069 28.0618C71.0779 28.1117 71.4935 26.9981 71.7334 26.3094L72.0472 27.8949L73.1413 33.2043H69.2304Z" fill="white" fill-opacity="0.5"/>
    <path fill-rule="evenodd" clip-rule="evenodd" d="M28.318 21.3379H20.7201L20.6758 21.6548C22.4607 22.1008 24.1078 22.8922 25.4874 23.5719C26.5777 24.0703 27.694 24.8671 28.5337 25.7941C30.186 27.3908 31.3529 29.3124 32.1031 31.3433L30.4522 22.888C30.1685 21.7247 29.3418 21.379 28.318 21.3379Z" fill="white" fill-opacity="0.5"/>
    <path fill-rule="evenodd" clip-rule="evenodd" d="M6.46959 16.8941H3.46529L0 1.14276L3.32012 0.582912L5.69126 12.9099L11.7304 0.745733H14.9196L6.46959 16.8941ZM22.0917 11.745H14.9278C14.7322 13.9351 15.7418 14.8905 17.4517 14.8905C18.8846 14.8905 20.1453 14.3543 21.5013 13.4924L21.4911 15.6825C20.1606 16.5218 18.6233 17.0575 16.8206 17.0575C13.7012 17.0575 11.6408 15.2634 12.2602 11.2083C12.8185 7.55025 15.3282 5.33755 18.2403 5.33755C21.5909 5.33755 22.7049 7.87692 22.2185 11.0696C22.1828 11.3023 22.1166 11.5817 22.0917 11.745ZM17.8761 7.27135C16.7666 7.27135 15.7301 8.15633 15.2411 9.99717H19.6777C19.7592 8.2493 19.2157 7.27135 17.8761 7.27135ZM26.7611 10.3701L25.776 16.8248H23.0034L24.7211 5.56971H27.0785L27.08 7.82967C28.0182 6.52506 29.2947 5.43051 31.0419 5.33703L31.0582 8.10959C29.307 8.22618 27.732 9.15841 26.7611 10.3701ZM31.0215 16.8248L32.7397 5.56971H35.5127L33.7951 16.8248H31.0215ZM34.4374 3.68265C33.5134 3.68265 32.8736 3.03034 33.0157 2.09811C33.1614 1.14276 34.0039 0.466834 34.9284 0.466834C35.83 0.466834 36.4657 1.14276 36.3201 2.09811C36.1774 3.02982 35.339 3.68265 34.4374 3.68265ZM43.1926 2.49412C42.2451 2.49412 41.6726 2.91323 41.5198 3.91583L41.2666 5.56971H43.3928L43.3912 7.85278H40.9182L39.549 16.8248H36.7994L38.1686 7.85278H36.5508L36.8992 5.56971H38.517L38.8124 3.6354C39.1924 1.14277 40.906 0.210538 43.1941 0.210538C43.6795 0.210538 44.0422 0.257278 44.3127 0.303505L44.3331 2.58709C43.9559 2.52488 43.5743 2.49379 43.1921 2.49412H43.1926ZM43.2226 16.8243L44.9408 5.56971H47.7133L45.9957 16.8248H43.2226V16.8243ZM46.638 3.68265C45.714 3.68265 45.0742 3.03034 45.2168 2.09811C45.362 1.14276 46.205 0.466834 47.129 0.466834C48.0306 0.466834 48.6673 1.14276 48.5212 2.09811C48.3785 3.02982 47.5396 3.68265 46.638 3.68265ZM58.4647 11.745H51.3008C51.1052 13.9351 52.1148 14.8905 53.8248 14.8905C55.2577 14.8905 56.5179 14.3543 57.8743 13.4924L57.8636 15.6825C56.5342 16.5218 54.9958 17.0575 53.1932 17.0575C50.0737 17.0575 48.0138 15.2634 48.6327 11.2083C49.1915 7.55025 51.7012 5.33755 54.6128 5.33755C57.964 5.33755 59.078 7.87692 58.591 11.0696C58.5554 11.3023 58.4892 11.5817 58.4647 11.745ZM54.2486 7.27135C53.1392 7.27135 52.1026 8.15633 51.6141 9.99717H56.0508C56.1323 8.2493 55.5882 7.27135 54.2486 7.27135ZM66.6789 16.8248L66.6855 15.2634C65.7534 16.2187 64.54 17.0575 62.9915 17.0575C60.6571 17.0575 59.053 15.3101 59.6327 11.5113C60.2725 7.31758 62.8448 5.45363 65.433 5.45363C66.496 5.45363 67.3227 5.64007 67.9574 5.87274L68.7862 0.443722L71.6265 0.000976562L69.0592 16.8248H66.6789ZM67.6055 8.17944C66.9621 7.85278 66.4553 7.68996 65.5078 7.68996C64.0515 7.68996 62.8076 8.87848 62.4302 11.349C62.0965 13.5386 62.8642 14.5643 64.0887 14.5643C65.1054 14.5643 65.9836 13.9588 66.8648 13.0265L67.6055 8.17944ZM77.5536 16.9306C76.2409 16.9306 75.1712 16.7185 74.1749 16.3656L75.9985 4.41662L78.1501 4.0807L77.3605 9.25292C77.9896 8.68793 78.8632 8.12294 79.9313 8.12294C81.7167 8.12294 82.9122 9.46454 82.4757 12.3239C81.9969 15.4652 80.075 16.9306 77.5536 16.9306ZM79.1031 9.99357C78.4027 9.99357 77.6998 10.4702 77.0778 11.1061L76.488 14.9711C76.9016 15.1303 77.1884 15.2007 77.7833 15.2007C79.1133 15.2007 80.0429 14.3892 80.3388 12.4477C80.59 10.8056 80.0485 9.99357 79.1031 9.99357ZM87.4248 17.2835C86.3515 19.3842 85.2895 20.037 83.6615 20.037C83.2932 20.037 83.089 20.0011 82.9046 19.9487L82.8913 18.2013C83.1608 18.2722 83.4496 18.3246 83.8525 18.3246C84.4653 18.3246 84.9986 18.0421 85.3552 17.4247L85.6338 16.8597L83.853 8.45834L86.0846 8.17585L87.1186 14.2469L89.9166 8.29963H92L87.4248 17.2835Z" fill="white" fill-opacity="0.5"/>
</svg>
