<svg width="118" height="40" viewBox="0 0 118 40" fill="none" xmlns="http://www.w3.org/2000/svg">
    <path d="M58.4258 0.708514L50.5412 39.3952H41.0053L48.8929 0.708514H58.4258ZM98.5416 25.6874L103.561 11.1614L106.45 25.6874H98.5416ZM109.181 39.3956H118L110.302 0.708514H102.164C100.333 0.708514 98.7899 1.82491 98.1048 3.54574L83.798 39.3952H93.8078L95.7967 33.6154H108.029L109.181 39.3952V39.3956ZM84.2929 26.7626C84.3355 16.5535 70.8423 15.9898 70.9351 11.4278C70.9646 10.0406 72.2234 8.56576 74.9792 8.18788C76.3434 8.00115 80.1114 7.85601 84.3794 9.91844L86.0551 1.71561C83.7592 0.84126 80.8087 0.000976562 77.1343 0.000976562C67.7109 0.000976562 61.0767 5.25994 61.0235 12.7884C60.9603 18.3607 65.7578 21.4656 69.3719 23.3183C73.0851 25.2139 74.3308 26.4299 74.3169 28.1255C74.2891 30.7229 71.3541 31.8671 68.6097 31.9118C63.8164 31.9902 61.0341 30.5516 58.8166 29.4675L57.0907 37.9451C59.3166 39.0186 63.429 39.954 67.6936 40.0001C77.7114 40.0001 84.2626 34.8088 84.2934 26.7631L84.2929 26.7626ZM44.8011 0.708514L29.3527 39.3952H19.2738L11.6716 8.52063C11.21 6.6197 10.8095 5.9219 9.40607 5.12232C7.11442 3.81566 3.32956 2.59085 0 1.83022L0.224697 0.708514H16.4497C18.5162 0.708514 20.377 2.15146 20.8466 4.6524L24.8617 27.0396L34.7854 0.708514H44.8007H44.8011Z" fill="white" fill-opacity="0.5"/>
</svg>
