<svg width="152" height="40" viewBox="0 0 152 40" fill="none" xmlns="http://www.w3.org/2000/svg">
    <path d="M143.423 19.7912L139.856 23.0137L143.077 26.5779L146.643 23.3554L143.423 19.7912Z" fill="white" fill-opacity="0.5"/>
    <path d="M136.314 22.6892L131.557 26.9707L135.84 31.7291L140.597 27.4476L136.314 22.6892Z" fill="white" fill-opacity="0.5"/>
    <path d="M149.857 18.6581L147.482 20.7988L149.623 23.174L151.998 21.0332L149.857 18.6581Z" fill="white" fill-opacity="0.5"/>
    <path d="M137.08 5.09391L133.51 8.30762L136.724 11.8776L140.294 8.66387L137.08 5.09391Z" fill="white" fill-opacity="0.5"/>
    <path d="M146.815 11.5605L144.444 13.7021L146.588 16.0747L148.958 13.9331L146.815 11.5605Z" fill="white" fill-opacity="0.5"/>
    <path d="M15.9439 11.7607L13.6131 23.8354H13.4516L10.2769 11.7607H8.24466L5.27707 23.8354H5.11559L2.55932 11.7607H0L3.69882 27.9435H6.16673L9.18003 16.551H9.34151L12.4462 27.9435H14.9141L18.616 11.7607H15.9439Z" fill="white" fill-opacity="0.5"/>
    <path d="M132.937 14.4478L128.176 18.7334L132.459 23.4918L137.22 19.2062L132.937 14.4478Z" fill="white" fill-opacity="0.5"/>
    <path d="M129.537 6.34043L124.778 10.624L129.061 15.3825L133.82 11.0989L129.537 6.34043Z" fill="white" fill-opacity="0.5"/>
    <path d="M140.361 12.2719L136.799 15.4863L140.02 19.0542L143.581 15.8398L140.361 12.2719Z" fill="white" fill-opacity="0.5"/>
    <path d="M143.76 4.50473L141.385 6.64551L143.526 9.02066L145.901 6.87989L143.76 4.50473Z" fill="white" fill-opacity="0.5"/>
    <path d="M104.673 16.6426L102.08 25.0507H101.943L99.0213 16.6456H96.5107L100.892 28.0625C100.344 29.7526 99.3869 30.9829 97.8331 30.9829V32.8497C100.456 32.8497 101.849 31.2082 102.991 28.0564L107.12 16.6426H104.673Z" fill="white" fill-opacity="0.5"/>
    <path d="M29.0727 21.8346C29.0758 18.1041 27.3177 16.2617 24.4629 16.2617C21.0383 16.2617 19.2803 18.768 19.2803 22.2396C19.2803 25.8483 20.8585 28.2206 24.6914 28.2206C26.3336 28.2206 27.7047 27.7638 28.7315 27.1639V25.4372C27.4762 26.1833 26.3336 26.6218 25.1027 26.6218C22.7536 26.6218 21.6324 25.4159 21.6324 22.6721H29.0727V21.8346ZM21.6781 21.1403C21.9279 18.8624 23.0035 17.7874 24.3959 17.7874C25.6298 17.7874 26.7937 18.7406 26.9064 21.1403H21.6781Z" fill="white" fill-opacity="0.5"/>
    <path d="M146.567 27.0021L142.998 30.2178L146.216 33.7886L149.784 30.5729L146.567 27.0021Z" fill="white" fill-opacity="0.5"/>
    <path d="M95.7884 21.8346C95.7945 18.1041 94.0335 16.2617 91.1816 16.2617C87.754 16.2617 85.999 18.768 85.999 22.2396C85.999 25.8483 87.5742 28.2206 91.4071 28.2206C93.0493 28.2206 94.4143 27.7638 95.4441 27.1639V25.4372C94.1919 26.1833 93.0493 26.6218 91.8184 26.6218C89.4693 26.6218 88.3451 25.4159 88.3451 22.6721H95.7884V21.8346ZM88.3908 21.1403C88.6467 18.8624 89.7222 17.7874 91.1146 17.7874C92.3425 17.7874 93.5124 18.7406 93.6252 21.1403H88.3908Z" fill="white" fill-opacity="0.5"/>
    <path d="M140.306 31.0468L135.653 35.3346L127.799 26.5976L129.983 24.6761L124.484 18.5215L126.68 16.5969L121.099 10.4484L129.81 2.60982L132.576 5.63685L137.247 1.47088L140.007 4.33041L141.847 2.6829C141.436 2.44537 141.025 2.22611 140.607 2.02816C137.954 0.730867 134.974 0 131.836 0C120.815 0 111.824 8.98363 111.824 20.0015C111.824 31.0164 120.815 40 131.836 40C135.416 40 138.788 39.0529 141.698 37.3932C142.658 36.8512 143.532 36.2634 144.331 35.6452L140.306 31.0468Z" fill="white" fill-opacity="0.5"/>
    <path d="M36.6103 16.2618C35.3763 16.2618 34.2124 16.7399 33.5239 17.1053V10.6006L31.1504 11.1701V27.1C32.5215 27.8278 34.3922 28.2176 35.6048 28.2176C38.9167 28.2176 40.9702 26.1377 40.9702 21.8682C40.9702 18.223 39.4407 16.2618 36.6103 16.2618ZM35.6048 26.6189C35.032 26.6189 34.2368 26.5762 33.5056 26.2565V18.7924C34.4196 18.29 35.0838 18.0403 35.9918 18.0403C37.5213 18.0403 38.5755 18.9782 38.5755 21.8712C38.5755 25.5682 37.2958 26.6189 35.6048 26.6189Z" fill="white" fill-opacity="0.5"/>
    <path d="M80.1096 16.2559C77.4832 16.2559 75.3139 17.3278 74.2871 17.943V27.9376H76.6575V18.9022C77.3644 18.4911 78.5313 18.08 79.4423 18.08C80.6153 18.08 81.5019 18.3997 81.5019 20.2026V27.9407H83.8754V19.6818C83.8754 17.3339 82.8456 16.2619 80.1096 16.2559Z" fill="white" fill-opacity="0.5"/>
    <path d="M56.363 11.7617L51.482 24.5185H51.3662L46.2506 11.7617H43.4902V27.9444H45.5438V16.485H45.7479L50.4065 27.9444H51.8659L56.5245 16.2079H56.7286V27.9444H59.1935V11.7617H56.363Z" fill="white" fill-opacity="0.5"/>
    <path d="M66.9111 16.2617C63.8978 16.2617 61.7041 18.2473 61.7041 22.2396C61.7041 26.1407 63.7851 28.2206 66.9111 28.2206C70.0402 28.2206 72.1181 26.1407 72.1181 22.2396C72.1181 18.2442 69.9244 16.2617 66.9111 16.2617ZM66.9111 26.6188C65.2902 26.6188 64.1019 25.3702 64.1019 22.2396C64.1019 19.1578 65.406 17.8575 66.9111 17.8575C68.465 17.8575 69.7202 19.1578 69.7202 22.2396C69.7202 25.3672 68.532 26.6188 66.9111 26.6188Z" fill="white" fill-opacity="0.5"/>
</svg>
