<svg width="116" height="40" viewBox="0 0 116 40" fill="none" xmlns="http://www.w3.org/2000/svg">
    <path d="M115.955 21.762C115.802 20.8859 115.062 20.3601 113.991 20.3485C113.661 20.3438 113.333 20.3765 113.012 20.3415C112.379 20.276 112.213 20.4863 112.217 20.9863C112.248 23.4396 112.238 25.8905 112.229 28.3368C112.222 29.6195 110.966 30.9372 109.457 31.2714C104.771 32.2971 100.089 33.3391 95.3983 34.3555C94.8711 34.4699 94.3158 34.5284 93.7792 34.5237C93.5449 34.5237 93.2215 34.3461 93.1208 34.1732C93.0551 34.0587 93.2613 33.7807 93.423 33.6382C93.6362 33.4653 93.908 33.3274 94.1869 33.2316C95.0468 32.9256 95.9208 32.6475 96.7901 32.3601C100.27 31.2059 103.756 30.0657 107.231 28.9045C108.799 28.3765 109.645 27.3344 109.67 26.019C109.75 21.7573 109.71 17.4957 109.691 13.2293C109.691 12.5541 109.34 11.991 108.534 11.6989C107.606 11.3672 106.791 11.6312 105.985 12.0144C101.059 14.3578 96.1364 16.6966 91.2064 19.0354C89.756 19.7246 88.9476 20.7223 88.9546 22.1429C88.971 26.1732 88.9593 30.1966 88.964 34.2223C88.964 34.4232 88.9851 34.6288 89.0484 34.8204C89.5334 36.1896 90.7917 36.9746 92.5303 36.9746C95.9958 36.984 99.473 36.9793 102.941 36.9793C106.397 36.9793 109.841 36.984 113.298 36.9746C114.047 36.9746 114.739 36.8204 115.301 36.3578C116.03 35.7737 115.992 35.0307 115.992 34.29C115.999 30.3648 115.999 26.4443 115.995 22.512C116.002 22.2667 115.997 22.0097 115.955 21.762ZM101.544 20.5027C101.893 19.5985 102.655 19.033 103.817 18.8882C104.586 18.7901 105.256 19.2644 105.366 19.9559C105.532 21.0214 104.197 22.2597 102.878 22.255C101.776 22.255 101.162 21.4863 101.544 20.5027Z" fill="white" fill-opacity="0.5"/>
    <path d="M18.8334 4.92281C18.8334 6.1658 18.8334 7.38309 18.8334 8.61206C17.8891 8.61206 17.0104 8.61206 16.0638 8.61206C16.0638 7.35739 16.0638 6.1401 16.0638 4.91113C15.5506 4.91113 15.1054 4.91113 14.6157 4.91113C14.6157 7.98823 14.6157 11.0116 14.6157 14.042C15.1218 14.042 15.5788 14.042 16.1083 14.042C16.1083 12.6588 16.1083 11.313 16.1083 9.95318C17.0456 9.95318 17.9125 9.95318 18.8428 9.95318C18.8428 11.3317 18.8428 12.6798 18.8428 14.0466C19.37 14.0466 19.8269 14.0466 20.3166 14.0466C20.3166 10.9906 20.3166 7.96253 20.3166 4.92281C19.8152 4.92281 19.3582 4.92281 18.8334 4.92281Z" fill="white" fill-opacity="0.5"/>
    <path d="M55.6699 30.0562C55.2341 27.8857 53.5798 26.5679 50.9391 26.3506C49.8987 26.2712 48.8396 26.3366 47.7173 26.3366C47.7173 24.4231 47.7173 22.4885 47.7173 20.5586C46.9206 20.5586 46.1989 20.5586 45.4585 20.5586C45.4585 25.8763 45.4585 31.1567 45.4585 36.624C47.1292 36.624 48.7436 36.7198 50.3369 36.5983C52.7246 36.4207 54.5452 35.4745 55.3981 33.5329C55.8949 32.4067 55.9042 31.2338 55.6699 30.0562ZM52.1763 32.4908C51.7569 34.2665 49.9339 35.103 47.736 34.5843C47.736 32.6123 47.7267 30.6731 47.7548 28.7291C47.7548 28.6006 47.9797 28.3904 48.1414 28.36C50.3393 27.895 51.8084 28.624 52.1903 30.4534C52.3262 31.11 52.3309 31.8319 52.1763 32.4908Z" fill="white" fill-opacity="0.5"/>
    <path d="M11.0847 4.61226e-05C10.2857 4.61226e-05 9.49141 0.00238257 8.69474 4.61226e-05C7.57004 -0.00462677 6.63746 0.345841 5.87126 1.02107C3.23991 3.3435 3.93113 7.75471 7.43179 8.6963C6.25553 10.458 5.0863 12.215 3.86084 14.0561C4.35993 14.0561 4.7442 14.0304 5.11911 14.0631C5.61585 14.1075 5.87126 13.9463 6.10088 13.5795C6.97722 12.1612 7.90745 10.7641 8.81659 9.35751C9.23601 8.71265 9.28756 8.69396 10.2764 8.88321C10.2764 10.5841 10.2764 12.2991 10.2764 14.0117C10.8739 14.0117 11.3917 14.0117 11.9541 14.0117C11.9541 13.7173 11.9541 13.4697 11.9541 13.2173C11.9541 9.04443 11.9541 4.8692 11.9541 0.693972C11.9541 4.8185e-05 11.9517 0.00238257 11.0847 4.61226e-05ZM10.2295 7.41125C9.08839 7.39957 7.89808 7.68228 7.02877 6.82948C6.03293 5.85518 5.74941 4.72901 6.11729 3.49303C6.14775 3.3949 6.19695 3.30145 6.23679 3.20799C6.97722 1.50939 7.95431 1.03743 10.2295 1.32014C10.2295 3.35051 10.2295 5.35284 10.2295 7.41125Z" fill="white" fill-opacity="0.5"/>
    <path d="M52.5538 12.731C50.0677 13.5581 48.3525 12.8104 47.9026 10.6516C47.666 9.5324 47.7503 8.40624 48.1604 7.31512C48.7134 5.82446 49.8123 5.38054 51.64 5.87353C51.6751 5.88287 51.7173 5.86652 51.7806 5.85717C51.9633 5.63054 52.1508 5.39222 52.3546 5.13755C50.8456 4.14923 48.7766 4.38522 47.6519 5.63288C46.7826 6.59549 46.4429 7.70998 46.3327 8.88054C46.2086 10.224 46.3749 11.5277 47.2653 12.7076C48.1979 13.9413 49.8147 14.5207 51.4783 14.1329C52.6522 13.8572 52.7834 13.7357 52.5538 12.731Z" fill="white" fill-opacity="0.5"/>
    <path d="M13.1936 34.727C13.1936 29.984 13.1936 25.2948 13.1936 20.5635C10.2811 20.5635 7.45995 20.5635 4.7091 20.5635C4.59194 22.9677 4.5357 25.3322 4.34357 27.692C4.17252 29.7854 3.70858 31.8392 2.78069 33.8158C2.47374 34.4677 2.10587 34.8976 1.16861 34.741C1.1194 34.734 1.05848 34.7714 0.997559 34.7948C0.997559 36.5331 0.997559 38.2621 0.997559 39.991C1.85281 39.991 2.65885 39.991 3.5305 39.991C3.5305 38.8158 3.5305 37.6873 3.5305 36.5611C6.60704 36.5611 9.62267 36.5611 12.7039 36.5611C12.7039 37.7247 12.7039 38.8508 12.7039 40.0004C13.5615 40.0004 14.3488 40.0004 15.1642 40.0004C15.1642 38.2434 15.1642 36.5097 15.1642 34.727C14.487 34.727 13.8614 34.727 13.1936 34.727ZM10.4451 34.7083C8.54248 34.7083 6.66093 34.7083 4.89186 34.7083C5.36518 33.5261 5.94393 32.3625 6.2954 31.1546C7.00069 28.727 6.99601 26.2364 7.01475 23.7527C7.01944 23.3695 7.01475 22.9817 7.01475 22.5611C8.16523 22.5611 9.28057 22.5611 10.4475 22.5611C10.4451 26.5798 10.4451 30.6102 10.4451 34.7083Z" fill="white" fill-opacity="0.5"/>
    <path d="M37.0373 12.8546C36.6085 12.9784 36.1961 13.1279 35.7649 13.2144C34.5629 13.4574 33.7053 13.191 33.2484 12.4364C32.7118 11.5532 32.7376 10.6046 32.7704 9.6116C34.3122 9.6116 35.7931 9.6116 37.3044 9.6116C37.4028 8.12562 37.22 6.7331 36.2757 5.46674C35.4463 4.3546 34.0099 4.17703 32.8688 5.09058C32.44 5.4317 32.0792 5.86861 31.8261 6.31254C31.1185 7.54852 30.849 8.88029 31.0154 10.2308C31.1208 11.0695 31.3528 11.9223 31.7113 12.7121C32.2315 13.8733 33.4335 14.4667 34.823 14.3195C35.4955 14.2494 36.168 14.0602 36.8006 13.8406C37.5059 13.5976 37.5246 13.3733 37.0373 12.8546ZM33.5225 6.15833C34.0334 5.52515 34.8769 5.54384 35.3291 6.2074C35.8352 6.94338 35.8962 7.75646 35.8751 8.60927C34.7761 8.60927 33.7709 8.60927 32.7165 8.60927C32.7657 7.71674 32.9368 6.88964 33.5225 6.15833Z" fill="white" fill-opacity="0.5"/>
    <path d="M41.206 20.8617C41.1076 20.7426 40.9834 20.5627 40.8592 20.558C40.1117 20.5276 39.3619 20.5393 38.5348 20.5393C38.5348 22.7566 38.5348 24.9435 38.5348 27.1421C36.9087 27.1421 35.3622 27.1421 33.6845 27.1421C33.6845 24.9248 33.6845 22.7519 33.6845 20.551C32.7777 20.551 31.9506 20.551 31.0977 20.551C31.0977 25.9365 31.0977 31.294 31.0977 36.6771C31.9763 36.6771 32.8175 36.6771 33.7173 36.6771C33.7173 36.4435 33.7173 36.2426 33.7173 36.0463C33.7173 34.1631 33.7149 32.2916 33.7173 30.4108C33.7173 29.3758 33.7173 29.3758 34.9592 29.3758C36.1354 29.3758 37.3117 29.3758 38.5535 29.3758C38.5535 31.8547 38.5535 34.2589 38.5535 36.6818C39.465 36.6818 40.3086 36.6818 41.1825 36.6818C41.1943 36.5043 41.213 36.3524 41.213 36.2075C41.213 31.1561 41.213 26.1047 41.213 21.058C41.213 20.9903 41.2458 20.9061 41.206 20.8617Z" fill="white" fill-opacity="0.5"/>
    <path d="M42.6518 8.49287C43.5562 7.45548 44.4209 6.39707 45.2995 5.34801C45.4073 5.2195 45.501 5.08399 45.651 4.88773C45.3675 4.88773 45.2011 4.90642 45.0441 4.88539C44.4021 4.79894 44.0108 5.00689 43.6617 5.46483C42.8908 6.47418 42.0355 7.43679 41.2107 8.41577C41.117 8.52558 40.9999 8.62137 40.7749 8.83866C40.7749 7.43446 40.7749 6.1868 40.7749 4.91343C40.2688 4.91343 39.8259 4.91343 39.3433 4.91343C39.3433 7.9181 39.3433 10.8737 39.3433 13.827C39.8353 13.827 40.2782 13.827 40.796 13.827C40.796 12.7686 40.7726 11.7312 40.8101 10.6985C40.8241 10.3433 40.9881 9.98819 41.0819 9.63305C41.3607 9.80361 41.4802 9.95548 41.5857 10.1144C42.3331 11.2335 43.0712 12.3527 43.8257 13.4648C43.9241 13.612 44.0928 13.8106 44.2521 13.8316C44.6786 13.8854 45.1168 13.8503 45.644 13.8503C44.5942 12.2569 43.6148 10.7522 42.6119 9.25455C42.4222 8.97417 42.4081 8.7709 42.6518 8.49287Z" fill="white" fill-opacity="0.5"/>
    <path d="M77.0701 20.507C76.6483 20.4929 76.4585 20.6121 76.3086 20.9322C75.294 23.1612 74.2536 25.3784 73.2203 27.6004C72.7681 28.5724 72.2995 29.5443 71.8426 30.5163C71.798 30.5116 71.7629 30.5023 71.7184 30.4976C71.7184 27.1892 71.7184 23.8808 71.7184 20.5467C70.8092 20.5467 69.9657 20.5467 69.1011 20.5467C69.1011 25.9415 69.1011 31.3177 69.1011 36.6962C69.9657 36.6962 70.7811 36.6962 71.6715 36.6962C73.3047 33.1775 74.9378 29.6448 76.5851 26.0817C76.5851 29.6284 76.5851 33.1588 76.5851 36.6868C77.6114 36.6868 78.5627 36.6868 79.5421 36.6868C79.5421 31.292 79.5421 25.9345 79.5421 20.5186C78.6916 20.5186 77.8808 20.542 77.0701 20.507Z" fill="white" fill-opacity="0.5"/>
    <path d="M27.5101 34.3764C26.7064 34.6241 25.9824 34.9068 25.2185 35.0633C22.7371 35.5703 21.1157 34.8857 20.408 33.0913C19.8621 31.7128 19.8832 30.29 19.8597 28.7876C22.5778 28.7876 25.2138 28.7876 27.9576 28.7876C27.8452 27.5376 27.8335 26.318 27.6062 25.1381C27.318 23.6591 26.7462 22.2409 25.563 21.0493C24.5156 19.9956 23.255 19.6895 21.6827 20.1147C20.0495 20.5563 19.0537 21.5797 18.3836 22.7923C16.42 26.3507 16.2513 30.0166 17.7556 33.7128C18.2078 34.8297 18.974 35.8016 20.2487 36.4231C22.3856 37.4722 25.8418 37.1077 28.0092 35.596C27.8381 35.1755 27.6647 34.7502 27.5101 34.3764ZM21.0829 22.9395C21.4648 22.4044 21.9733 21.9675 22.8262 22.0073C23.6603 22.0516 24.1547 22.4862 24.4898 23.0516C25.2302 24.3203 25.3544 25.6801 25.3474 27.0914C23.4822 27.0914 21.6804 27.0914 19.7824 27.0914C19.923 25.5984 20.1854 24.1988 21.0829 22.9395Z" fill="white" fill-opacity="0.5"/>
    <path d="M28.7264 12.8293C28.7264 10.1751 28.7264 7.55365 28.7264 4.91113C27.1166 4.91113 25.5725 4.91113 23.9393 4.91113C23.9393 5.50459 23.9604 6.0373 23.937 6.57234C23.8573 8.43215 23.7894 10.2943 23.0114 12.0747C22.8193 12.5139 22.6764 12.9836 21.9336 12.8854C21.9336 13.8761 21.9336 14.82 21.9336 15.7592C22.4022 15.7592 22.8216 15.7592 23.3137 15.7592C23.3137 15.1167 23.3137 14.5046 23.3137 13.8924C25.0664 13.8924 26.7441 13.8924 28.4991 13.8924C28.4991 14.5396 28.4991 15.1518 28.4991 15.7499C28.9911 15.7499 29.4059 15.7499 29.8042 15.7499C29.8042 14.7592 29.8042 13.8153 29.8042 12.8714C29.4293 12.8574 29.1106 12.8434 28.7264 12.8293ZM27.215 12.8293C26.1231 12.8293 25.0968 12.8293 23.9909 12.8293C25.3897 10.6705 25.1999 8.35038 25.3007 6.03496C25.9404 6.03496 26.559 6.03496 27.215 6.03496C27.215 8.29664 27.215 10.5373 27.215 12.8293Z" fill="white" fill-opacity="0.5"/>
    <path d="M58.0928 20.542C58.0928 25.9485 58.0928 31.3153 58.0998 36.6845C58.9058 36.6845 59.6721 36.6845 60.4922 36.6845C60.4922 31.8434 60.4922 27.0373 60.4922 22.1658C62.9571 22.1658 65.3753 22.1658 67.7864 22.1658C67.7864 21.5887 67.7864 21.077 67.7864 20.542C64.5481 20.542 61.3521 20.542 58.0928 20.542Z" fill="white" fill-opacity="0.5"/>
</svg>
